<?xml version="1.0" standalone="no"?>
<!DOCTYPE svg PUBLIC "-//W3C//DTD SVG 20010904//EN"
 "http://www.w3.org/TR/2001/REC-SVG-20010904/DTD/svg10.dtd">
<svg version="1.0" xmlns="http://www.w3.org/2000/svg"
 width="312.000000pt" height="312.000000pt" viewBox="0 0 312.000000 312.000000"
 preserveAspectRatio="xMidYMid meet">

<g transform="translate(0.000000,312.000000) scale(0.100000,-0.100000)"
fill="#000000" stroke="none">
<path d="M0 2325 l0 -796 23 12 c22 12 22 12 3 -10 -11 -11 -17 -23 -15 -26 9
-9 86 49 105 79 10 17 28 47 40 66 75 125 105 170 138 204 20 22 37 44 37 48
1 4 2 13 3 18 0 6 5 9 10 8 5 -2 12 7 17 20 5 12 17 25 26 29 10 4 45 32 78
64 33 31 85 78 115 103 30 26 53 49 50 51 -3 2 11 17 30 32 62 50 179 174 230
246 18 26 37 47 41 47 5 0 23 15 42 34 18 18 82 70 141 115 83 62 115 81 140
81 26 -1 28 -2 13 -11 -9 -6 -15 -14 -12 -20 4 -5 -2 -9 -11 -9 -10 0 -15 -3
-11 -6 3 -3 30 3 59 14 29 10 66 22 83 26 l30 8 -24 -21 -24 -21 22 0 c12 0
20 4 17 8 -4 7 97 8 114 2 3 -1 10 -2 15 0 6 1 6 -3 -1 -9 -6 -7 -41 -14 -79
-18 -46 -4 -82 -14 -109 -30 -23 -14 -31 -22 -20 -18 13 3 28 0 37 -10 9 -8
33 -15 54 -16 35 0 36 -1 16 -11 -13 -6 -23 -14 -23 -18 0 -10 30 -21 40 -15
4 3 19 1 32 -4 17 -7 18 -10 6 -10 -10 -1 -18 -5 -18 -11 0 -5 -7 -10 -15 -10
-14 0 -20 -17 -16 -47 1 -6 -3 -14 -9 -18 -5 -3 -10 -11 -10 -16 0 -5 24 8 52
29 29 21 74 46 99 56 53 19 81 46 79 73 -5 43 1 70 14 70 11 0 13 -5 5 -19 -7
-14 -6 -18 6 -18 8 0 15 -7 15 -15 0 -8 5 -15 11 -15 6 0 9 -7 5 -15 -4 -11 2
-15 22 -15 15 -1 55 -7 90 -14 67 -15 81 -5 30 19 -50 24 -84 45 -73 45 23 0
143 -49 179 -74 22 -15 50 -29 63 -32 13 -4 42 -24 63 -46 22 -21 40 -34 40
-29 0 5 -4 12 -9 16 -15 9 -41 65 -30 65 5 0 16 -9 25 -19 9 -10 40 -45 70
-76 30 -32 66 -79 82 -106 32 -58 49 -65 26 -11 -30 71 -34 83 -32 108 l2 26
18 -24 c10 -13 24 -30 31 -38 25 -28 29 -40 11 -33 -13 5 -12 0 6 -25 23 -31
39 -44 24 -20 -4 7 -3 8 5 4 6 -4 9 -11 6 -16 -3 -4 13 -43 35 -86 22 -43 40
-85 39 -94 0 -10 -2 -11 -6 -2 -2 6 -9 10 -13 7 -5 -3 -15 4 -23 16 -11 15
-16 17 -20 7 -3 -7 -6 -1 -6 14 -1 15 -5 30 -11 33 -13 8 -13 -21 -1 -44 6
-10 12 -36 15 -59 5 -42 24 -88 33 -79 2 3 -3 19 -12 37 -9 18 -14 34 -11 37
3 3 9 -3 13 -13 3 -10 9 -21 13 -24 3 -3 19 -36 35 -75 33 -79 93 -195 108
-210 7 -7 7 -5 2 5 -5 8 -5 12 0 8 5 -5 9 -20 11 -35 2 -16 12 -68 24 -118 15
-68 20 -116 18 -200 -3 -128 -11 -143 -108 -218 -31 -25 -67 -59 -80 -77 l-23
-32 34 17 c19 10 41 23 49 30 19 15 62 27 54 14 -3 -5 0 -9 6 -9 7 0 8 -6 0
-19 -13 -25 -13 -54 0 -46 6 4 8 10 6 13 -2 4 2 18 10 32 l15 25 -6 -29 c-6
-27 -5 -28 22 -21 15 3 44 22 65 41 21 19 49 34 62 34 14 0 28 5 31 10 4 6 10
8 14 5 5 -2 43 2 86 10 90 17 151 19 160 5 4 -6 33 -24 65 -40 32 -16 60 -35
63 -42 3 -7 6 436 6 985 l1 997 -1335 0 c-1182 0 -1334 -2 -1329 -15 4 -8 1
-15 -5 -15 -7 0 -14 7 -17 15 -5 13 -39 15 -220 15 l-214 0 0 -795z m2397
-227 c-3 -8 -6 -5 -6 6 -1 11 2 17 5 13 3 -3 4 -12 1 -19z m193 -218 c0 -5 -2
-10 -4 -10 -3 0 -8 5 -11 10 -3 6 -1 10 4 10 6 0 11 -4 11 -10z m131 -178 c31
-36 31 -46 1 -18 -18 17 -32 31 -32 33 0 9 18 1 31 -15z m-2611 -71 c-5 -11
-15 -23 -22 -27 -7 -5 -8 -2 -3 7 21 37 44 55 25 20z m2691 -118 c-12 -20 -14
-14 -5 12 4 9 9 14 11 11 3 -2 0 -13 -6 -23z m73 -119 c13 -5 13 -11 -7 -45
-22 -39 -57 -57 -42 -21 4 9 10 29 13 45 4 28 10 31 36 21z m-9 -132 c-6 -6
-64 40 -69 55 -3 8 12 -1 33 -19 22 -18 38 -34 36 -36z"/>
<path d="M1200 2570 c0 -5 -6 -7 -13 -4 -8 3 -20 -3 -27 -13 -12 -15 -12 -16
0 -5 20 17 35 15 20 -3 -7 -8 -17 -15 -22 -15 -15 0 -118 -102 -118 -116 0
-31 25 -23 71 22 30 29 44 51 38 55 -8 5 -8 8 0 13 6 4 16 4 23 0 6 -4 8 -3 5
3 -8 13 17 36 27 26 4 -4 4 0 0 10 -4 12 1 20 17 26 l24 10 -22 0 c-13 1 -23
-3 -23 -9z m-120 -149 c-6 -12 -15 -21 -21 -21 -5 0 -2 11 8 24 21 28 29 27
13 -3z"/>
<path d="M1725 2560 c3 -5 18 -10 33 -10 21 0 24 2 12 10 -20 13 -53 13 -45 0z"/>
<path d="M1760 2536 c0 -2 7 -7 16 -10 8 -3 12 -2 9 4 -6 10 -25 14 -25 6z"/>
<path d="M2250 2435 c0 -5 5 -17 10 -25 5 -8 10 -10 10 -5 0 6 -5 17 -10 25
-5 8 -10 11 -10 5z"/>
<path d="M1233 2319 c-62 -61 -113 -115 -113 -120 0 -5 -4 -9 -9 -9 -14 0
-100 -93 -101 -107 0 -7 -5 -13 -10 -13 -6 0 -20 -9 -32 -20 -12 -11 -17 -20
-12 -20 12 0 59 44 107 99 42 50 51 47 12 -3 -26 -35 -32 -52 -14 -40 6 3 3
-5 -6 -20 -21 -32 -30 -34 -14 -3 11 20 11 21 -4 8 -9 -7 -26 -28 -38 -47 -11
-19 -25 -34 -30 -34 -6 0 -8 4 -4 9 3 5 1 12 -4 16 -6 3 -8 -5 -6 -17 3 -17
-4 -28 -30 -45 -19 -13 -39 -23 -44 -23 -5 0 -12 -11 -15 -24 -3 -14 -16 -26
-30 -30 -14 -3 -35 -21 -48 -39 -12 -17 -29 -39 -37 -47 -38 -39 -46 -81 -46
-265 -1 -175 -2 -182 -29 -240 -15 -33 -43 -80 -61 -105 -17 -25 -45 -67 -60
-95 -64 -114 -131 -173 -309 -276 -32 -19 -85 -60 -117 -92 -31 -31 -61 -57
-66 -57 -5 0 -21 -14 -36 -31 l-27 -31 0 -299 0 -299 49 0 c29 0 53 6 60 14
12 14 51 10 51 -5 0 -5 169 -9 385 -9 l385 0 0 151 c0 119 -4 166 -19 218 -10
36 -22 91 -25 122 -3 31 -18 101 -32 155 -14 55 -27 123 -29 152 -3 46 -1 54
19 67 13 9 31 12 41 9 13 -5 16 -4 11 4 -4 7 -16 12 -27 12 -10 0 -19 5 -19
10 0 6 7 10 15 10 8 0 18 12 21 26 5 19 9 22 15 12 7 -11 9 -11 9 1 0 10 3 11
14 2 11 -9 16 -5 28 24 16 39 12 105 -6 105 -22 0 -35 16 -41 47 -4 26 -2 31
10 27 8 -4 15 -16 15 -28 1 -19 2 -19 11 -3 5 9 7 22 4 27 -3 6 -1 10 4 10 6
0 12 -10 12 -22 1 -13 5 9 9 47 4 39 10 93 13 122 4 29 3 55 -2 57 -4 3 -5 26
-1 51 4 25 3 48 -2 51 -12 7 -12 7 -23 -41 -6 -22 -8 -88 -5 -148 3 -59 2
-107 -2 -107 -5 0 -8 43 -8 95 0 64 -4 95 -11 95 -11 0 -11 6 6 100 5 28 4 31
-5 18 -6 -10 -13 -46 -17 -82 -4 -50 -9 -63 -20 -59 -15 6 -13 35 12 148 l6
30 -15 -25 c-12 -21 -33 -142 -29 -175 7 -58 15 -84 27 -79 7 3 16 -1 19 -9 4
-10 -2 -15 -19 -15 -20 0 -25 7 -30 39 -4 25 -13 40 -25 44 -20 7 -27 37 -8
32 7 -1 13 18 15 51 3 41 1 52 -11 52 -8 0 -15 9 -15 20 0 11 5 20 11 20 6 0
8 -7 5 -16 -3 -8 -2 -13 3 -10 5 3 9 17 9 32 0 16 -3 21 -8 14 -11 -18 -19 2
-10 26 7 17 15 21 44 19 24 -2 36 1 36 10 0 14 22 25 52 25 11 0 29 10 39 23
l20 22 -6 -23 c-5 -16 1 -31 19 -53 31 -36 32 -45 9 -58 -20 -11 -14 -14 32
-12 21 0 25 -2 13 -7 -12 -5 -15 -11 -8 -22 9 -13 10 -13 10 0 0 12 2 13 9 1
5 -7 5 -28 1 -45 -5 -17 -11 -73 -14 -125 -4 -52 -9 -98 -12 -103 -3 -4 6 -3
20 3 14 7 23 15 21 20 -3 4 1 10 7 12 10 4 9 8 -2 16 -12 9 -11 11 7 11 16 0
21 4 17 15 -4 8 -2 15 3 15 5 0 10 30 11 66 2 49 -2 73 -14 92 -12 18 -18 53
-21 121 -2 53 -11 155 -20 226 -16 129 -16 131 6 201 12 39 33 86 46 104 13
18 27 45 30 61 8 35 39 59 80 60 l30 1 -30 7 c-16 4 -29 12 -28 19 4 20 74
123 110 163 19 21 31 39 27 39 -5 0 -26 -19 -47 -42 -41 -45 -41 -35 0 20 13
17 23 32 21 32 -2 0 -54 -50 -115 -111z m-143 -555 c12 -30 3 -73 -16 -81 -8
-3 -14 -12 -14 -20 0 -10 -6 -13 -16 -9 -9 3 -20 6 -25 6 -5 0 -9 9 -9 21 0
15 5 19 15 15 9 -3 18 0 20 7 5 13 13 55 14 75 2 21 21 13 31 -14z m-90 -44
c0 -5 -4 -10 -9 -10 -6 0 -13 5 -16 10 -3 6 1 10 9 10 9 0 16 -4 16 -10z m30
-79 c0 -6 -4 -13 -10 -16 -5 -3 -10 1 -10 9 0 9 5 16 10 16 6 0 10 -4 10 -9z
m-203 -243 c-3 -8 -6 -5 -6 6 -1 11 2 17 5 13 3 -3 4 -12 1 -19z m0 -50 c-3
-8 -6 -5 -6 6 -1 11 2 17 5 13 3 -3 4 -12 1 -19z m81 -68 c-1 -17 -4 -28 -7
-24 -9 8 -8 54 0 54 4 0 7 -14 7 -30z m-61 -15 c8 -22 -6 -33 -17 -15 -13 20
-12 30 0 30 6 0 13 -7 17 -15z m67 -80 c3 -8 1 -15 -3 -15 -5 0 -11 7 -15 15
-3 8 -1 15 3 15 5 0 11 -7 15 -15z m23 -211 c-3 -3 -12 -4 -19 -1 -8 3 -5 6 6
6 11 1 17 -2 13 -5z m-819 -467 c32 -1 68 -107 37 -107 -8 0 -26 -8 -42 -17
-28 -16 -30 -16 -51 5 -26 26 -27 35 -8 51 10 9 15 8 20 -4 9 -24 28 -18 21 7
-6 17 -4 20 9 15 22 -9 20 0 -4 13 -15 8 -23 6 -39 -11 -18 -20 -21 -20 -27
-6 -8 22 35 69 56 61 8 -4 21 -7 28 -7z m17 -147 c-3 -5 1 -10 10 -10 9 0 13
-5 10 -10 -5 -8 -11 -7 -21 1 -17 14 -18 29 -3 29 5 0 7 -4 4 -10z m95 -20 c0
-5 -7 -10 -16 -10 -8 0 -12 5 -9 10 3 6 10 10 16 10 5 0 9 -4 9 -10z m-54
-200 c2 0 3 6 2 13 -2 6 3 12 11 12 8 0 15 -10 16 -22 2 -28 -20 -70 -29 -54
-4 6 -2 11 4 11 6 0 8 5 5 10 -4 6 -12 10 -18 9 -7 -1 -22 2 -35 6 -22 7 -22
8 -5 25 15 14 20 14 31 3 7 -7 15 -13 18 -13z"/>
<path d="M951 2351 c-16 -21 -18 -31 -9 -34 8 -4 7 -6 -4 -7 -10 -2 -22 -3
-27 -4 -16 -2 -63 -66 -49 -66 27 0 104 64 102 85 -1 15 5 20 20 20 12 0 22 4
23 9 1 5 7 13 15 17 10 7 10 9 0 9 -7 0 -15 -7 -18 -15 -4 -8 -10 -15 -16 -15
-5 0 -7 4 -3 9 3 5 1 12 -4 15 -5 4 -19 -7 -30 -23z"/>
<path d="M2013 2269 c1 -14 8 -26 15 -26 16 0 15 9 -2 32 -14 19 -14 18 -13
-6z"/>
<path d="M1893 2192 c-18 -9 -31 -23 -28 -29 3 -8 -12 -17 -40 -24 -25 -6 -45
-15 -45 -19 0 -5 -15 -12 -32 -16 -18 -4 -27 -9 -20 -11 16 -6 132 23 188 48
76 32 126 21 85 -20 -11 -11 -41 -22 -70 -26 -28 -4 -51 -10 -51 -15 0 -4 -11
-5 -25 -2 -14 2 -25 8 -25 13 0 5 -5 9 -11 9 -6 0 -8 -7 -5 -16 5 -14 4 -15
-8 -5 -11 10 -23 8 -55 -9 -61 -31 -75 -57 -63 -122 7 -40 10 -45 11 -21 0 17
6 44 12 60 12 33 47 68 57 58 4 -4 1 -10 -5 -12 -21 -8 -15 -23 9 -23 l22 0
-22 -20 c-29 -27 -28 -46 0 -26 31 22 46 20 50 -6 2 -18 11 -24 35 -26 29 -3
33 -1 30 20 -1 17 4 24 19 26 12 2 24 -4 27 -12 8 -20 -29 -46 -66 -46 -49 0
-25 -25 28 -28 37 -3 55 2 77 18 32 24 76 24 91 -1 7 -11 2 -34 -18 -80 -15
-35 -32 -79 -39 -97 -7 -18 -18 -38 -24 -44 -7 -7 -12 -20 -12 -30 0 -19 -44
-92 -71 -118 -8 -8 -26 -40 -38 -70 -13 -30 -30 -67 -37 -82 -8 -14 -14 -35
-14 -47 0 -28 -53 -112 -82 -130 -102 -64 -164 -74 -250 -40 -51 19 -118 72
-118 92 0 12 -122 132 -143 140 -27 10 44 -94 115 -168 38 -38 68 -73 68 -77
0 -5 7 -8 16 -8 14 0 14 -3 4 -15 -10 -13 -9 -15 12 -15 13 0 35 -11 48 -25
13 -14 29 -25 36 -25 6 0 14 -6 17 -13 3 -7 30 -19 61 -26 31 -7 58 -17 61
-22 4 -5 18 -9 33 -9 40 0 97 -37 83 -54 -6 -7 -8 -16 -4 -19 3 -4 -8 -7 -26
-7 -30 0 -31 -1 -17 -16 11 -10 30 -15 58 -12 l43 3 7 -43 c4 -23 10 -47 14
-54 4 -6 3 -8 -3 -5 -6 4 -13 -5 -16 -21 -6 -32 1 -45 9 -15 4 14 17 23 41 28
26 5 33 10 29 22 -4 8 -2 21 4 28 9 11 18 6 46 -21 18 -19 34 -41 34 -49 0 -8
10 -23 22 -35 17 -15 24 -17 30 -8 5 8 6 0 2 -17 -13 -62 -85 -340 -89 -344
-3 -2 -35 9 -71 24 -53 23 -69 35 -80 60 -21 50 -21 60 0 60 29 0 30 20 2 33
-19 8 -26 8 -30 -1 -2 -7 -5 0 -5 15 -1 15 -6 30 -13 34 -7 5 -8 3 -3 -6 5 -9
4 -11 -3 -6 -7 4 -12 13 -12 20 0 8 -10 11 -29 8 -16 -2 -32 1 -35 7 -11 17
-47 13 -61 -6 -11 -15 -15 -15 -49 5 -41 25 -50 27 -41 11 11 -17 108 -57 124
-51 9 3 12 1 7 -6 -4 -7 -1 -13 6 -13 7 -1 19 -2 27 -3 8 0 30 -27 48 -58 33
-57 86 -101 150 -127 l31 -13 -30 -27 c-26 -23 -28 -28 -12 -28 10 0 24 3 29
8 23 17 35 -7 29 -54 -4 -26 -9 -47 -13 -47 -3 0 -7 -10 -7 -22 -1 -13 -8 -41
-17 -63 -8 -22 -18 -57 -21 -77 l-7 -38 446 0 c349 0 445 3 445 13 -1 24 -40
99 -62 119 -13 11 -18 17 -12 14 7 -3 3 11 -7 31 -11 21 -19 43 -19 50 0 26
-18 12 -22 -17 -3 -22 1 -34 16 -45 21 -15 21 -15 -2 -5 -31 15 -38 36 -24 74
8 20 9 32 2 34 -15 5 -12 32 4 32 15 0 56 58 56 80 0 6 9 23 20 37 12 16 18
34 14 45 -3 11 1 27 9 36 22 25 30 66 22 119 -5 37 -16 55 -56 94 -56 54 -118
79 -194 77 -27 -1 -61 2 -75 6 l-25 7 23 -19 c28 -21 75 -47 116 -62 16 -6 26
-13 23 -16 -7 -7 -84 19 -133 46 -21 12 -30 15 -20 6 11 -9 25 -16 30 -16 6 0
5 -4 -2 -8 -24 -16 88 -55 163 -58 104 -3 103 -3 85 -13 -64 -36 -211 -12
-341 55 -161 83 -212 175 -173 314 4 14 11 31 17 38 14 18 20 82 7 82 -5 0
-11 -19 -11 -42 l-2 -43 -8 50 c-4 28 -7 103 -7 168 0 65 -2 120 -5 123 -14
15 -23 -218 -12 -343 3 -36 1 -63 -4 -63 -5 0 -7 10 -3 22 3 14 2 19 -6 14 -7
-4 -12 -2 -12 3 0 6 5 11 11 11 6 0 3 8 -7 17 -11 11 -13 18 -5 21 6 2 10 18
10 35 l-2 32 -4 -29 c-3 -21 -7 -25 -13 -16 -5 7 -4 24 1 37 4 12 6 59 3 103
-3 51 -1 80 6 80 5 0 9 16 7 35 -1 19 -5 35 -8 35 -14 0 -18 -14 -9 -31 7 -12
7 -20 0 -24 -5 -3 -10 -33 -10 -66 0 -44 -3 -59 -12 -56 -7 2 -12 14 -11 26 2
11 -1 21 -5 21 -5 0 -14 30 -22 68 -7 37 -15 62 -17 55 -5 -13 -33 -6 -33 9 0
5 4 7 9 4 11 -7 35 20 28 31 -3 5 7 24 23 43 26 32 29 33 45 17 9 -9 23 -17
31 -17 8 0 14 -4 14 -8 0 -5 7 -17 16 -28 15 -18 15 -18 5 3 -12 24 -15 84 -3
67 7 -11 46 -34 57 -34 4 0 4 12 1 26 -5 19 -3 24 5 18 12 -7 10 14 -7 75 -5
16 -4 22 3 18 8 -5 8 5 2 31 -5 20 -9 42 -10 47 0 6 -4 -1 -8 -15 -4 -14 -13
-24 -19 -23 -7 2 -14 -7 -16 -20 -12 -54 -15 -59 -11 -17 l3 45 -19 -37 c-21
-41 -34 -50 -24 -17 12 36 13 51 14 131 1 61 4 76 15 72 9 -3 16 6 21 28 10
43 7 71 -12 138 -9 30 -18 64 -20 74 -2 11 -10 27 -17 35 -8 9 -24 36 -36 61
-28 56 -29 57 -39 41 -7 -10 -14 -10 -39 3 -39 20 -88 19 -129 -2z m-93 -126
c0 -11 -19 -15 -25 -6 -3 5 1 10 9 10 9 0 16 -2 16 -4z m46 -91 c-3 -8 2 -19
12 -24 16 -10 16 -10 0 -11 -9 0 -20 5 -23 10 -7 12 0 40 11 40 3 0 4 -7 0
-15z m150 -667 c-4 -35 -9 -76 -11 -93 -2 -16 1 -37 6 -46 6 -12 5 -19 -3 -21
-8 -3 -8 -9 0 -24 10 -18 7 -20 -27 -22 -37 -3 -38 -2 -33 30 4 28 3 31 -10
21 -14 -12 -72 -120 -83 -157 -5 -18 -6 -18 -26 0 -16 14 -18 20 -7 22 8 1 23
19 33 40 11 20 24 40 30 44 5 4 7 8 3 8 -4 0 7 15 25 33 32 34 57 33 57 -1 0
-29 15 0 16 31 3 56 14 138 20 149 4 6 0 14 -7 19 -12 8 -12 11 1 19 23 15 23
14 16 -52z m21 25 c-3 -10 -5 -4 -5 12 0 17 2 24 5 18 2 -7 2 -21 0 -30z m38
-78 c2 -19 0 -37 -4 -40 -4 -2 -8 17 -10 43 -1 25 1 43 5 39 4 -4 8 -23 9 -42z
m-25 -77 c0 -61 -2 -109 -5 -106 -9 9 -12 218 -3 218 4 0 8 -50 8 -112z m90 7
c0 -8 -4 -15 -10 -15 -5 0 -10 7 -10 15 0 8 5 15 10 15 6 0 10 -7 10 -15z
m-73 -142 c-2 -27 -3 -5 -3 47 0 52 1 74 3 48 2 -27 2 -69 0 -95z m-52 39 c-2
-3 1 -14 6 -25 8 -14 13 -16 19 -7 4 7 7 -5 6 -26 -1 -25 3 -38 11 -37 8 2 10
-9 6 -34 -4 -26 -3 -34 5 -29 7 4 12 3 12 -2 0 -5 -10 -12 -21 -15 -22 -6 -22
-15 -4 -59 4 -11 3 -18 -4 -18 -7 0 -16 10 -21 23 -5 12 -9 17 -9 10 -2 -25
12 -43 34 -43 27 0 39 -14 31 -36 -5 -13 -10 -12 -33 6 -48 37 -61 83 -63 218
-1 51 -4 63 -16 58 -8 -3 -14 -1 -14 3 0 5 6 11 13 14 15 6 48 4 42 -1z m-194
-99 c13 -17 13 -17 -6 -3 -11 8 -22 16 -24 17 -2 2 0 3 6 3 6 0 17 -8 24 -17z
m126 -85 c-3 -8 -6 -5 -6 6 -1 11 2 17 5 13 3 -3 4 -12 1 -19z m-17 -31 c0
-17 -20 -37 -37 -37 -7 0 -13 5 -13 11 0 5 5 7 10 4 6 -3 10 -1 10 4 0 6 -7
11 -16 11 -8 0 -12 5 -9 10 9 15 55 12 55 -3z m107 -102 c0 -22 -14 -18 -20 4
-3 13 0 18 7 15 7 -3 13 -11 13 -19z m547 -14 c-2 -3 -12 3 -22 13 -16 17 -16
18 5 5 12 -7 20 -15 17 -18z m-909 -151 c3 -5 1 -10 -4 -10 -6 0 -11 5 -11 10
0 6 2 10 4 10 3 0 8 -4 11 -10z m1065 -144 c0 -2 -7 -7 -16 -10 -8 -3 -12 -2
-9 4 6 10 25 14 25 6z m-820 -146 c0 -5 -5 -10 -11 -10 -5 0 -7 5 -4 10 3 6 8
10 11 10 2 0 4 -4 4 -10z"/>
<path d="M1983 1046 c0 -8 5 -12 10 -9 6 4 8 -5 4 -23 -6 -27 -6 -28 5 -6 9
18 8 26 -4 38 -13 13 -15 13 -15 0z"/>
<path d="M2014 972 c-19 -13 -24 -40 -8 -46 8 -3 17 1 20 9 8 21 1 46 -12 37z"/>
<path d="M1447 2139 c7 -7 15 -10 18 -7 3 3 -2 9 -12 12 -14 6 -15 5 -6 -5z"/>
<path d="M1265 2103 c-33 -5 -80 -38 -67 -47 5 -3 17 -21 26 -41 11 -22 24
-35 36 -35 11 0 20 -4 20 -10 0 -16 56 -40 92 -40 32 1 32 1 -12 16 -56 20
-66 29 -51 47 16 20 64 29 57 12 -6 -18 30 -49 49 -42 8 4 15 13 15 22 0 22
21 19 27 -4 3 -11 12 -18 21 -16 10 2 21 4 26 4 5 1 3 8 -4 16 -8 9 -10 27 -6
46 5 25 2 32 -14 36 -11 3 -20 9 -20 12 0 20 -122 34 -195 24z m151 -122 c-12
-19 -24 -12 -19 10 4 13 9 17 15 11 6 -6 7 -15 4 -21z"/>
<path d="M910 1980 c-8 -5 -35 -18 -60 -30 -25 -12 -34 -19 -19 -16 38 8 97
34 104 46 7 12 -4 12 -25 0z"/>
<path d="M1895 1960 c-3 -5 -1 -10 4 -10 6 0 11 5 11 10 0 6 -2 10 -4 10 -3 0
-8 -4 -11 -10z"/>
<path d="M836 1904 c-5 -14 -4 -15 9 -4 17 14 19 20 6 20 -5 0 -12 -7 -15 -16z"/>
<path d="M1681 1855 c0 -16 4 -37 9 -45 8 -12 10 -11 9 5 -1 11 -5 31 -9 45
-8 24 -8 24 -9 -5z"/>
<path d="M1720 1781 c0 -5 5 -13 10 -16 6 -3 10 -2 10 4 0 5 -4 13 -10 16 -5
3 -10 2 -10 -4z"/>
<path d="M1738 1728 c3 -13 1 -19 -5 -15 -6 4 -30 0 -53 -8 -53 -19 -109 -19
-134 0 -22 17 -36 19 -36 6 0 -5 10 -11 23 -15 12 -3 35 -17 51 -31 32 -27 64
-31 117 -14 50 17 62 32 54 68 -4 17 -10 31 -15 31 -4 0 -6 -10 -2 -22z"/>
<path d="M1691 1557 c13 -10 14 -14 3 -25 -9 -8 -15 -8 -19 -1 -4 5 -21 7 -38
4 -18 -3 -71 -8 -118 -10 -89 -3 -139 -19 -121 -37 13 -13 103 -17 127 -5 22
11 116 10 125 -2 3 -4 25 -13 49 -20 35 -10 49 -10 68 0 12 7 23 17 23 22 0
16 -82 87 -99 87 -14 -1 -14 -2 0 -13z"/>
<path d="M861 1474 c0 -11 3 -14 6 -6 3 7 2 16 -1 19 -3 4 -6 -2 -5 -13z"/>
<path d="M182 1467 c-15 -17 -54 -109 -49 -114 3 -2 17 22 32 54 15 32 30 61
32 66 7 12 -4 8 -15 -6z"/>
<path d="M1007 1453 c-11 -10 -8 -101 3 -108 5 -3 7 -11 5 -18 -11 -39 -15
-68 -7 -63 6 3 13 22 16 41 4 20 11 33 15 30 5 -3 5 -22 0 -42 -19 -80 -18
-95 2 -28 12 39 26 73 33 77 6 4 -4 6 -22 3 l-34 -4 7 60 c6 54 0 71 -18 52z"/>
<path d="M1052 1430 c0 -14 2 -19 5 -12 2 6 2 18 0 25 -3 6 -5 1 -5 -13z"/>
<path d="M1742 1442 c-12 -2 -27 -12 -33 -24 -6 -11 -13 -17 -16 -14 -3 3 -16
-5 -29 -19 -18 -20 -33 -25 -86 -27 l-63 -3 48 -9 c71 -13 129 0 172 37 41 35
44 64 7 59z m-47 -62 c-3 -5 -12 -10 -18 -10 -7 0 -6 4 3 10 19 12 23 12 15 0z"/>
<path d="M1430 1428 c0 -18 54 -68 73 -68 7 0 -3 12 -20 26 -18 14 -37 33 -43
42 -9 16 -9 16 -10 0z"/>
<path d="M120 1405 c-7 -9 -10 -18 -7 -21 3 -3 10 4 17 15 13 25 8 27 -10 6z"/>
<path d="M1072 1380 c0 -14 2 -19 5 -12 2 6 2 18 0 25 -3 6 -5 1 -5 -13z"/>
<path d="M2070 1391 c0 -6 5 -13 10 -16 6 -3 10 1 10 9 0 9 -4 16 -10 16 -5 0
-10 -4 -10 -9z"/>
<path d="M13 1378 c-13 -17 -17 -135 -5 -142 6 -3 15 1 22 9 10 12 10 15 -1
15 -8 0 3 12 24 27 20 14 37 32 37 39 0 7 7 17 16 22 16 9 12 32 -5 32 -4 0
-22 -13 -41 -30 -18 -16 -36 -28 -38 -25 -3 3 5 14 18 25 13 11 20 23 17 27
-4 3 -16 -2 -27 -12 -21 -19 -28 -7 -8 13 7 7 9 12 6 12 -3 0 -10 -6 -15 -12z"/>
<path d="M2081 1344 c0 -11 3 -14 6 -6 3 7 2 16 -1 19 -3 4 -6 -2 -5 -13z"/>
<path d="M2279 1313 c-1 -38 -1 -38 -9 -8 -7 29 -8 29 -10 5 -8 -71 -7 -90 1
-90 23 0 50 112 29 125 -6 4 -10 -8 -11 -32z"/>
<path d="M507 1296 c-10 -22 -16 -41 -13 -43 7 -8 37 49 33 65 -2 12 -9 4 -20
-22z"/>
<path d="M2190 1304 c0 -8 5 -12 10 -9 6 4 8 11 5 16 -9 14 -15 11 -15 -7z"/>
<path d="M1057 1267 c-3 -8 -1 -20 4 -28 6 -10 9 -7 9 14 0 29 -5 35 -13 14z"/>
<path d="M57 1263 c-4 -3 -7 -11 -7 -17 0 -6 5 -5 12 2 6 6 9 14 7 17 -3 3 -9
2 -12 -2z"/>
<path d="M1190 1260 c-12 -7 -10 -9 8 -7 12 0 22 5 22 9 0 11 -12 10 -30 -2z"/>
<path d="M1001 1224 c0 -11 3 -14 6 -6 3 7 2 16 -1 19 -3 4 -6 -2 -5 -13z"/>
<path d="M1070 1117 c0 -19 10 -27 25 -20 17 6 8 33 -11 33 -8 0 -14 -6 -14
-13z"/>
<path d="M1026 1095 c-4 -14 -6 -26 -4 -27 1 -2 -3 -12 -9 -23 -17 -32 -25
-78 -13 -70 5 3 10 0 10 -7 1 -37 20 27 26 86 7 67 1 87 -10 41z"/>
<path d="M40 1090 c-9 -6 -10 -10 -3 -10 6 0 15 5 18 10 8 12 4 12 -15 0z"/>
<path d="M2350 1089 c0 -5 5 -7 10 -4 6 3 10 8 10 11 0 2 -4 4 -10 4 -5 0 -10
-5 -10 -11z"/>
<path d="M2 1055 c0 -16 2 -22 5 -12 2 9 2 23 0 30 -3 6 -5 -1 -5 -18z"/>
<path d="M1280 1073 c0 -5 11 -13 25 -20 29 -13 31 -11 9 11 -16 17 -34 21
-34 9z"/>
<path d="M2366 1049 c-11 -10 -15 -19 -10 -19 12 1 44 25 44 34 0 11 -15 5
-34 -15z"/>
<path d="M1350 1056 c0 -2 7 -6 15 -10 8 -3 15 -1 15 4 0 6 -7 10 -15 10 -8 0
-15 -2 -15 -4z"/>
<path d="M1054 1035 c-14 -38 -31 -120 -27 -134 7 -29 72 -10 73 21 0 4 -8 5
-17 2 -11 -4 -14 -3 -7 3 7 4 14 17 17 28 4 19 5 19 6 -1 l1 -21 40 19 c35 17
55 40 33 37 -5 -1 -20 -1 -35 0 -22 1 -25 5 -21 24 4 18 3 19 -6 7 -6 -8 -11
-10 -11 -4 0 5 6 16 12 22 10 10 6 12 -21 10 -18 -1 -35 -7 -37 -13z"/>
<path d="M1225 1034 c-22 -22 -19 -25 18 -19 30 6 31 5 12 -9 -11 -8 -23 -12
-27 -10 -5 3 -8 1 -8 -5 0 -14 27 -20 103 -20 38 -1 73 -3 78 -6 5 -4 6 0 3 8
-3 8 -25 18 -48 21 -24 4 -52 15 -62 24 -29 28 -52 33 -69 16z"/>
<path d="M2255 1019 c-4 -12 -2 -26 5 -33 10 -8 11 -6 5 12 -4 13 -2 22 4 22
6 0 11 5 11 10 0 18 -19 10 -25 -11z"/>
<path d="M1320 1020 c0 -5 11 -10 25 -10 14 0 25 5 25 10 0 6 -11 10 -25 10
-14 0 -25 -4 -25 -10z"/>
<path d="M990 919 c0 -5 5 -7 10 -4 6 3 10 8 10 11 0 2 -4 4 -10 4 -5 0 -10
-5 -10 -11z"/>
<path d="M1450 923 c0 -5 5 -14 12 -21 7 -7 8 -12 4 -12 -5 0 -3 -7 5 -16 10
-13 10 -17 -1 -24 -7 -4 -11 -17 -7 -29 3 -12 1 -18 -4 -15 -6 3 -7 -12 -3
-38 10 -69 24 -107 46 -119 17 -9 18 -8 9 9 -5 10 -12 41 -14 68 -3 27 -3 41
0 31 2 -9 9 -15 14 -11 5 3 7 10 4 15 -4 5 2 9 12 9 23 0 53 34 53 58 0 20 18
42 35 42 5 0 2 -5 -7 -11 -10 -5 -18 -17 -18 -26 0 -13 7 -10 29 11 25 24 35
27 65 22 20 -4 36 -3 36 1 0 16 -77 43 -135 48 -33 3 -77 7 -97 11 -21 3 -38
2 -38 -3z"/>
<path d="M981 886 l-24 -13 32 -11 c32 -11 34 -9 23 20 -6 14 -10 15 -31 4z"/>
<path d="M1408 883 c6 -2 10 -9 7 -14 -4 -5 1 -6 9 -3 24 9 19 24 -6 23 -13 0
-17 -3 -10 -6z"/>
<path d="M91 857 c-29 -16 -33 -16 -22 -3 17 20 10 20 -34 -1 l-35 -17 0 -71
c0 -40 3 -75 7 -78 10 -11 33 13 33 35 0 10 7 21 15 24 8 4 15 13 15 20 0 8 7
17 15 20 8 3 30 25 50 49 33 40 34 44 13 42 -12 -1 -38 -10 -57 -20z"/>
<path d="M1811 864 c0 -11 3 -14 6 -6 3 7 2 16 -1 19 -3 4 -6 -2 -5 -13z"/>
<path d="M1285 860 c-3 -5 3 -10 14 -10 12 0 21 5 21 10 0 6 -6 10 -14 10 -8
0 -18 -4 -21 -10z"/>
<path d="M1769 853 c-13 -17 -13 -17 6 -3 11 8 22 16 24 17 2 2 0 3 -6 3 -6 0
-17 -8 -24 -17z"/>
<path d="M1374 841 c21 -23 26 -26 26 -11 0 5 -10 15 -22 21 -23 12 -23 12 -4
-10z"/>
<path d="M2505 820 c3 -5 8 -10 11 -10 2 0 4 5 4 10 0 6 -5 10 -11 10 -5 0 -7
-4 -4 -10z"/>
<path d="M1638 784 c-16 -8 -28 -19 -28 -24 0 -12 28 -8 59 9 13 7 34 11 47 8
14 -2 27 0 30 4 3 5 -3 10 -13 10 -10 1 -29 3 -43 4 -14 2 -37 -3 -52 -11z"/>
<path d="M1625 730 c-16 -7 -17 -9 -3 -9 9 -1 20 4 23 9 7 11 7 11 -20 0z"/>
<path d="M2881 703 c-46 -171 -51 -208 -29 -201 13 5 23 41 31 113 3 22 9 59
12 83 9 52 -1 55 -14 5z"/>
<path d="M1835 710 c10 -11 25 -20 33 -20 9 0 6 7 -11 20 -14 11 -29 20 -33
20 -4 0 1 -9 11 -20z"/>
<path d="M3037 723 c-4 -3 -7 -18 -6 -32 1 -26 1 -25 10 3 9 31 7 41 -4 29z"/>
<path d="M3112 650 c0 -14 2 -19 5 -12 2 6 2 18 0 25 -3 6 -5 1 -5 -13z"/>
<path d="M1740 635 c0 -8 2 -15 4 -15 2 0 6 7 10 15 3 8 1 15 -4 15 -6 0 -10
-7 -10 -15z"/>
<path d="M3017 643 c-4 -3 -7 -15 -7 -25 0 -10 -3 -18 -8 -18 -4 0 -12 -16
-18 -35 -18 -57 3 -40 26 21 19 53 22 73 7 57z"/>
<path d="M1164 525 c11 -30 19 -131 12 -158 -3 -14 -18 -39 -32 -56 -14 -17
-21 -31 -16 -31 5 0 12 7 16 15 3 8 11 15 17 15 8 0 8 -4 -1 -15 -11 -13 -10
-14 2 -10 9 4 19 -4 27 -19 12 -21 11 -31 -3 -66 -9 -22 -15 -53 -15 -68 2
-26 2 -27 6 -2 9 53 25 91 44 100 11 7 19 21 19 37 0 15 8 35 17 45 16 18 16
18 -1 12 -14 -5 -12 2 11 34 15 23 33 41 40 42 22 0 25 21 7 41 -9 10 -22 29
-28 41 -20 39 -36 33 -36 -14 l0 -43 -17 31 c-24 42 -45 68 -62 79 -11 6 -13
4 -7 -10z m141 -95 c3 -5 1 -10 -4 -10 -6 0 -11 5 -11 10 0 6 2 10 4 10 3 0 8
-4 11 -10z m-95 -10 c0 -5 -4 -10 -10 -10 -5 0 -10 5 -10 10 0 6 5 10 10 10 6
0 10 -4 10 -10z m17 -82 c-3 -8 -6 -5 -6 6 -1 11 2 17 5 13 3 -3 4 -12 1 -19z"/>
<path d="M1570 435 c-15 -39 -12 -53 11 -65 15 -9 24 -8 37 2 15 12 16 11 3
-5 -13 -16 -12 -19 7 -24 14 -3 22 -13 22 -26 0 -18 -2 -18 -25 7 -13 14 -29
27 -35 27 -5 1 -16 2 -22 3 -7 1 -18 -3 -24 -9 -13 -11 -6 -48 7 -39 5 3 9 -4
9 -16 0 -27 25 -87 45 -107 9 -8 14 -22 11 -30 -3 -8 -1 -11 4 -8 6 4 10 -10
10 -35 0 -46 16 -84 31 -75 5 4 9 3 8 -2 -3 -20 2 -34 11 -28 14 9 12 68 -2
84 -11 11 -10 14 0 18 10 4 8 9 -5 20 -10 8 -12 12 -5 8 7 -3 12 0 12 8 0 8 7
20 15 27 8 7 13 16 10 20 -3 5 3 11 12 13 14 4 13 5 -4 6 -12 0 -25 -4 -28 -9
-4 -6 -15 -1 -26 12 -12 13 -18 18 -15 13 2 -6 0 -17 -5 -25 -8 -13 -12 -12
-24 5 -14 18 -14 20 4 26 15 6 56 5 56 -1 0 -1 11 -4 25 -6 20 -3 26 0 27 16
1 11 -2 22 -8 25 -5 3 -6 -1 -3 -9 4 -10 1 -16 -9 -16 -10 0 -15 7 -12 20 2
12 -2 20 -10 20 -7 0 -15 6 -18 13 -4 10 2 13 21 9 l26 -5 -18 29 c-10 16 -25
35 -34 42 -11 8 -12 12 -3 12 7 0 9 5 5 11 -3 6 -15 8 -26 5 -25 -6 -58 22
-39 33 9 6 8 11 -3 20 -13 11 -17 9 -26 -14z m82 -367 c-5 -5 -9 5 -10 24 0
31 1 31 9 9 6 -14 6 -28 1 -33z"/>
<path d="M2816 314 c-13 -33 -5 -56 30 -90 19 -20 33 -39 29 -42 -3 -3 -19 9
-35 26 -16 18 -32 32 -36 32 -10 0 5 -86 28 -154 11 -33 20 -67 21 -73 0 -9
22 -13 73 -13 77 0 84 5 84 56 0 14 4 22 10 19 6 -3 10 3 10 15 0 11 -7 23
-15 26 -8 4 -15 15 -15 26 0 25 -28 78 -41 78 -5 0 -33 22 -62 50 -35 33 -55
46 -62 39 -7 -7 -5 -13 5 -19 13 -8 12 -10 -4 -10 -14 0 -17 5 -12 25 7 28 2
34 -8 9z m138 -256 c7 -5 6 -11 -3 -20 -11 -10 -12 -10 -7 0 4 7 1 15 -8 18
-9 3 -16 16 -16 28 1 21 1 21 12 1 6 -11 16 -23 22 -27z"/>
<path d="M1390 250 c-12 -8 -11 -10 5 -9 11 1 31 5 45 9 24 8 24 8 -5 9 -16 0
-37 -4 -45 -9z"/>
<path d="M1330 199 c0 -5 5 -7 10 -4 6 3 10 8 10 11 0 2 -4 4 -10 4 -5 0 -10
-5 -10 -11z"/>
<path d="M1163 50 c0 -30 2 -43 4 -28 2 16 2 40 0 55 -2 16 -4 3 -4 -27z"/>
<path d="M1365 42 c-22 -5 -36 -22 -29 -34 3 -4 21 -8 40 -8 29 0 34 3 33 23
0 21 -1 21 -8 2 -8 -20 -9 -20 -12 0 -3 14 -10 19 -24 17z"/>
</g>
</svg>
