<?xml version="1.0" standalone="no"?>
<!DOCTYPE svg PUBLIC "-//W3C//DTD SVG 20010904//EN"
 "http://www.w3.org/TR/2001/REC-SVG-20010904/DTD/svg10.dtd">
<svg version="1.0" xmlns="http://www.w3.org/2000/svg"
 width="828.000000pt" height="1067.000000pt" viewBox="0 0 828.000000 1067.000000"
 preserveAspectRatio="xMidYMid meet">

<g transform="translate(0.000000,1067.000000) scale(0.100000,-0.100000)"
fill="#000000" stroke="none">
<path d="M0 10334 l0 -336 26 -20 c16 -13 24 -27 21 -39 -5 -18 21 -36 32 -22
3 4 22 16 42 25 29 13 38 23 42 50 5 38 -7 58 -37 58 -19 1 -19 2 -3 11 9 5
17 14 17 18 0 12 -53 66 -62 64 -4 -2 -12 6 -18 17 -9 16 -3 28 40 75 27 30
50 60 50 65 0 14 50 37 90 41 66 6 123 -11 152 -45 16 -17 28 -41 28 -53 0
-45 17 -70 52 -76 20 -3 39 0 49 9 8 8 30 17 47 20 41 8 44 -18 5 -43 -15 -10
-46 -37 -70 -60 -26 -27 -52 -43 -66 -43 -13 0 -32 -9 -41 -19 -10 -11 -32
-23 -50 -27 -33 -7 -86 -31 -177 -81 -34 -19 -70 -31 -93 -31 -21 0 -45 -7
-57 -18 -18 -16 -19 -35 -19 -505 l0 -488 37 -7 c33 -6 40 -4 63 25 18 21 32
29 43 25 12 -4 17 -1 17 10 0 9 7 16 16 16 11 0 14 5 10 16 -7 19 19 43 47 44
44 0 26 -64 -21 -73 -17 -4 -33 -16 -42 -34 -8 -15 -26 -44 -40 -63 -31 -42
-50 -84 -50 -110 0 -21 -28 -40 -59 -40 -21 0 -21 -1 -21 -535 l0 -535 25 0
c18 0 25 -5 25 -19 0 -24 23 -43 43 -35 8 3 25 1 36 -6 27 -14 59 2 67 34 11
45 44 64 112 68 52 2 65 0 73 -15 6 -9 16 -17 23 -17 52 0 68 -139 24 -202
-37 -53 -60 -78 -69 -72 -5 3 -17 0 -28 -5 -14 -8 -22 -7 -31 4 -7 8 -20 15
-28 15 -9 0 -31 14 -49 32 -18 17 -35 30 -37 27 -3 -2 -11 -27 -18 -54 -14
-53 -29 -75 -65 -94 -14 -7 -28 -31 -39 -66 -11 -33 -27 -61 -41 -70 -23 -15
-23 -18 -23 -196 l0 -181 25 5 c17 3 30 -1 38 -13 11 -17 15 -17 50 -1 28 12
37 22 38 41 l1 25 8 -25 c5 -14 8 -18 9 -9 2 27 51 132 74 157 11 12 32 22 45
22 14 0 32 8 41 18 52 58 122 81 146 48 7 -9 18 -16 24 -16 7 0 23 -11 37 -25
22 -22 24 -30 18 -75 -4 -34 -3 -50 4 -50 6 0 9 -7 6 -15 -4 -9 0 -15 7 -15
12 0 12 -2 0 -9 -10 -7 -11 -13 -2 -30 15 -28 35 -27 51 4 8 16 22 25 37 25
15 0 27 -9 35 -25 15 -33 21 -32 43 9 18 34 61 54 68 33 6 -20 26 4 39 44 8
30 20 45 43 56 28 14 45 34 85 106 16 28 60 57 86 57 7 0 22 10 33 22 25 26
70 32 92 12 9 -8 24 -35 34 -59 16 -44 28 -51 72 -46 6 1 18 -8 26 -20 9 -12
20 -18 27 -14 6 4 19 0 28 -9 9 -8 27 -24 40 -36 20 -18 22 -29 22 -111 0 -49
4 -88 8 -85 5 3 18 -5 29 -17 11 -12 30 -30 43 -40 20 -17 22 -26 19 -90 -2
-58 2 -82 20 -120 16 -34 27 -47 37 -43 9 3 26 -5 40 -19 14 -14 31 -25 38
-25 24 0 38 55 35 142 -1 45 3 175 9 288 6 113 12 295 12 405 0 110 5 220 11
245 6 25 12 137 14 250 2 220 8 302 31 449 13 78 13 109 4 177 -7 46 -9 88 -5
94 4 6 6 115 6 242 -1 253 8 311 56 368 44 52 78 64 183 65 84 0 101 -3 152
-28 97 -48 100 -55 92 -227 l-7 -146 27 -28 c30 -33 31 -41 11 -161 -10 -63
-12 -130 -8 -220 8 -195 5 -906 -5 -1015 -10 -105 -7 -189 6 -202 4 -4 32 -3
63 4 69 15 103 13 159 -6 25 -9 66 -16 92 -16 53 0 126 -15 176 -36 36 -15 71
-77 72 -126 0 -41 -30 -98 -53 -98 -13 0 -17 -6 -15 -22 2 -13 9 -22 16 -21
20 5 13 -22 -12 -46 -23 -22 -25 -22 -35 -4 -9 16 -12 16 -20 3 -9 -13 -12
-12 -24 4 -9 13 -20 16 -35 12 -18 -6 -21 -12 -15 -33 6 -27 49 -72 68 -73 30
-1 39 -21 41 -87 0 -37 4 -82 8 -100 7 -29 10 -32 35 -27 16 3 31 1 35 -4 3
-6 38 -16 76 -23 65 -11 72 -11 93 7 31 27 80 52 93 47 13 -4 74 70 74 90 0 8
6 20 14 26 8 7 19 34 26 60 7 30 25 63 46 86 19 21 37 48 40 61 4 17 13 24 30
24 13 0 24 4 24 8 0 12 -120 129 -155 151 -69 43 -105 101 -105 172 0 34 5 42
41 69 23 16 67 42 98 56 30 15 72 38 92 51 39 25 87 33 128 19 19 -7 29 -2 56
29 40 47 48 38 50 -57 2 -38 5 -72 9 -75 3 -4 6 -62 6 -130 0 -84 9 -185 29
-321 16 -108 32 -226 36 -262 3 -36 13 -123 21 -194 10 -77 15 -180 12 -259
-3 -121 -4 -131 -25 -145 -13 -8 -23 -23 -23 -34 0 -26 -29 -80 -52 -96 -10
-8 -26 -31 -35 -53 -8 -22 -29 -49 -45 -60 -17 -12 -42 -48 -58 -83 -47 -104
-54 -127 -59 -199 0 -10 -4 -16 -8 -14 -5 3 -8 -7 -8 -21 -1 -15 -5 -43 -9
-62 -8 -31 -7 -33 8 -21 14 11 16 11 16 -2 0 -9 -5 -19 -11 -22 -6 -4 -15 -17
-20 -29 -7 -15 -8 -3 -6 43 3 54 2 61 -10 45 -35 -48 -56 -131 -63 -249 -4
-66 -13 -155 -19 -198 -10 -67 -9 -82 4 -111 15 -31 15 -37 1 -65 -19 -36 -21
-91 -9 -224 4 -53 5 -215 1 -360 -8 -273 -7 -306 19 -500 10 -82 12 -122 5
-129 -7 -7 -7 -19 0 -37 5 -14 11 -66 13 -116 3 -119 14 -186 33 -208 23 -26
10 -29 -36 -7 -51 25 -113 26 -155 3 -27 -15 -57 -17 -186 -16 -94 2 -161 -2
-174 -8 -32 -18 -208 -12 -229 8 -16 15 -20 15 -35 1 -11 -10 -49 -19 -98 -23
-44 -4 -83 -12 -86 -17 -4 -6 -38 -14 -75 -18 -38 -4 -83 -13 -100 -20 -27
-12 -34 -11 -62 10 -33 24 -72 22 -103 -6 -15 -13 -21 -13 -54 0 -21 9 -55 16
-76 16 -28 0 -41 5 -49 20 -8 15 -17 19 -31 15 -11 -4 -26 -1 -34 5 -17 14
-18 11 -19 -45 l-1 -40 -47 -3 c-27 -2 -48 -7 -48 -13 0 -5 -8 -9 -19 -9 -10
0 -24 -7 -31 -16 -30 -35 -45 -34 -99 6 -52 39 -81 50 -81 30 0 -5 -19 -15
-41 -22 -41 -12 -42 -11 -68 21 -29 35 -75 50 -158 51 -41 0 -42 -1 -45 -37
-3 -35 -5 -38 -35 -38 -24 0 -42 10 -74 42 -23 23 -57 49 -75 58 -19 9 -39 25
-45 37 l-11 21 -13 -23 c-7 -13 -10 -31 -7 -42 6 -26 -16 -50 -37 -39 -9 5
-19 10 -23 10 -23 4 -38 15 -38 27 0 22 -24 17 -50 -10 -26 -28 -65 -26 -110
5 -35 24 -96 31 -111 13 -16 -19 -103 -19 -123 1 -20 20 -44 19 -86 -4 -21
-11 -43 -15 -54 -11 -11 3 -42 3 -70 -2 -28 -4 -59 -5 -69 -2 -35 11 -47 -14
-47 -93 l0 -74 47 7 c27 3 52 10 58 15 23 22 165 -6 210 -41 17 -13 142 -19
154 -7 8 8 11 5 11 -9 0 -12 8 -28 18 -37 19 -17 44 -15 97 8 52 22 117 34
141 25 13 -5 30 -21 40 -35 19 -29 13 -43 -50 -107 -46 -48 -80 -50 -95 -8
-11 34 -19 37 -36 13 -11 -14 -16 -15 -43 -4 -17 7 -38 24 -47 37 -22 35 -43
30 -51 -11 -5 -31 -10 -35 -35 -35 -30 0 -33 3 -43 51 -6 26 -45 47 -56 30 -9
-14 -72 -23 -160 -21 -69 1 -89 5 -106 21 -11 10 -28 19 -37 19 -16 0 -17 -93
-17 -1395 l0 -1395 1994 0 1995 0 3 28 c3 25 6 27 48 27 42 0 45 -2 48 -27 l3
-28 2095 0 2094 0 0 1535 c0 1074 -3 1535 -11 1535 -5 0 -7 5 -4 10 3 6 3 10
-2 11 -88 7 -94 11 -97 69 -2 45 -16 60 -58 60 -27 0 -43 12 -31 24 3 3 12 1
20 -6 16 -13 18 -11 27 25 4 17 2 27 -5 27 -15 0 -7 43 10 48 9 3 12 0 9 -10
-9 -23 22 -78 48 -84 13 -3 24 -10 24 -14 0 -6 52 -30 66 -30 2 0 4 48 4 106
l0 106 -52 -4 c-29 -2 -69 -12 -88 -20 -65 -30 -108 -39 -147 -32 -35 7 -37 6
-24 -10 7 -9 19 -16 25 -15 29 3 33 -4 35 -63 2 -69 14 -90 44 -86 44 6 50
-140 7 -174 -18 -14 -35 -18 -76 -14 -30 2 -60 8 -67 14 -14 11 -91 2 -123
-16 -11 -6 -27 -18 -34 -27 -13 -16 -50 -14 -117 7 -18 5 -63 11 -100 13 -38
2 -99 10 -138 18 -63 12 -72 12 -86 -2 -9 -9 -15 -19 -12 -23 2 -5 -1 -8 -7
-8 -6 0 -14 8 -17 17 -16 42 -144 170 -217 218 -14 10 -26 23 -26 30 0 14 -67
103 -96 127 -12 10 -27 32 -34 50 -8 18 -22 45 -32 60 -24 35 -78 144 -78 158
0 6 8 9 18 6 10 -4 58 -8 106 -11 75 -4 92 -9 118 -30 21 -18 41 -25 71 -25
48 0 59 6 76 37 6 13 18 23 25 23 7 0 21 9 30 19 11 12 30 19 47 19 17 -1 43
9 60 21 16 12 38 21 47 18 9 -2 30 3 46 11 25 12 30 12 43 -1 12 -12 13 -19 3
-37 -14 -25 -4 -36 40 -46 14 -3 38 -12 54 -21 16 -9 61 -18 100 -20 123 -8
111 -95 114 789 8 1911 11 2277 21 2483 5 121 13 287 17 368 6 128 4 157 -12
215 -21 76 -23 155 -9 382 19 312 11 440 -28 401 -9 -9 -12 -94 -12 -354 0
-330 -5 -406 -29 -436 -7 -9 -10 -45 -7 -95 7 -163 6 -181 -26 -278 -15 -43
-25 -57 -58 -75 -42 -24 -99 -30 -110 -13 -3 6 -23 10 -43 9 -61 0 -82 -37
-91 -156 -7 -101 7 -313 21 -313 4 0 8 -5 8 -10 0 -6 32 -57 70 -114 39 -56
70 -112 70 -124 0 -11 4 -23 9 -26 4 -3 14 -27 21 -53 18 -68 51 -143 62 -143
5 0 8 -6 5 -12 -2 -7 0 -21 5 -32 6 -10 7 -33 3 -52 -8 -47 -133 -171 -180
-180 -19 -3 -39 -12 -46 -20 -15 -18 -50 -18 -117 0 -53 14 -82 12 -82 -5 0
-5 -24 -9 -52 -8 -29 0 -60 -1 -68 -1 -30 -2 -100 13 -100 21 0 10 -31 12 -54
3 -9 -3 -16 -14 -16 -24 0 -11 -5 -22 -10 -25 -6 -4 -8 -10 -6 -14 3 -4 1 -13
-5 -21 -7 -13 -9 -12 -9 2 0 29 -24 26 -58 -8 -40 -41 -168 -104 -211 -104
-17 0 -39 -4 -49 -9 -9 -5 -51 -16 -92 -26 -41 -10 -79 -21 -85 -25 -5 -4 -26
-11 -45 -15 -33 -7 -79 -26 -198 -83 -30 -14 -61 -36 -69 -49 -9 -13 -18 -22
-20 -19 -4 4 -17 74 -43 236 -12 78 -69 320 -88 378 -9 29 -9 33 4 28 25 -9
135 6 141 20 2 7 -4 32 -15 56 l-20 43 4 -45 c3 -42 3 -43 -8 -17 -8 19 -20
27 -37 28 -24 2 -24 2 -3 6 12 2 22 9 22 14 0 9 -68 5 -127 -7 -20 -4 -22 -1
-17 24 10 49 -51 321 -85 378 -13 22 -37 84 -53 139 -16 55 -37 116 -45 135
-9 19 -20 74 -24 121 -10 124 -26 145 -93 119 l-25 -9 29 -57 c23 -42 30 -69
30 -110 0 -34 9 -76 24 -112 12 -32 26 -75 30 -96 4 -21 22 -72 41 -114 48
-111 72 -234 80 -404 l7 -147 -23 -5 c-13 -3 -61 -7 -106 -10 l-83 -5 0 48 0
48 58 11 57 11 -57 -4 -56 -3 -4 136 c-4 114 -9 151 -32 222 -15 47 -38 128
-51 180 -13 52 -38 127 -56 165 -35 78 -59 156 -59 198 0 24 -4 27 -35 27 -32
0 -35 -2 -35 -29 0 -47 41 -211 67 -271 29 -64 109 -370 122 -468 6 -37 13
-120 16 -184 l6 -118 -38 0 c-66 0 -173 13 -173 20 0 4 32 5 70 2 49 -3 70 -1
70 7 0 6 -8 14 -17 17 -10 3 -29 11 -43 16 -24 11 -22 12 30 24 l55 12 -88 1
c-56 1 -86 5 -82 11 3 6 17 10 31 10 13 0 24 4 24 9 0 6 -9 8 -20 6 -15 -3
-20 3 -24 28 -23 163 -31 206 -41 232 -7 17 -20 76 -29 132 -10 56 -31 144
-48 195 -25 76 -30 108 -29 177 1 47 -2 100 -5 118 -6 32 -9 34 -43 31 -41 -3
-39 16 -22 -188 6 -69 19 -156 30 -195 35 -125 83 -378 85 -444 l1 -65 -60
-11 c-89 -17 -135 -36 -122 -50 8 -9 30 -8 90 3 68 13 100 12 86 -2 -4 -4
-194 -46 -207 -46 -2 0 -2 7 2 15 5 14 -20 313 -29 345 -2 8 -9 58 -15 110 -7
52 -22 138 -35 190 -13 52 -27 141 -31 198 -6 100 -7 102 -31 102 -55 0 -59
-10 -51 -110 4 -50 18 -150 32 -223 38 -199 62 -403 68 -587 l2 -65 -75 -12
c-41 -6 -93 -12 -116 -12 l-43 -1 0 68 c0 165 -40 535 -86 811 l-16 93 -41 -6
c-23 -4 -43 -9 -45 -11 -3 -3 22 -203 48 -370 12 -78 19 -171 30 -385 11 -198
15 -253 25 -292 l7 -28 -115 0 -115 0 -9 65 c-10 67 -6 136 6 116 5 -7 14 -4
29 9 11 11 28 20 37 20 8 0 15 5 15 10 0 16 -57 12 -74 -5 -11 -12 -16 -12
-23 -3 -4 7 -7 102 -5 211 2 110 -1 204 -6 210 -5 7 -17 35 -25 62 -17 53 -21
137 -15 363 4 133 4 133 32 156 19 15 27 28 23 39 -8 22 -34 186 -47 297 -6
52 -26 154 -45 225 -19 72 -50 193 -70 270 -20 77 -54 197 -75 266 -22 69 -40
134 -40 143 0 25 -89 284 -122 356 -28 60 -76 128 -118 168 -10 10 -43 55 -74
102 -31 47 -62 93 -68 102 -11 15 -37 19 -161 24 -118 6 -147 10 -143 21 7 18
-9 17 -24 -3 -8 -8 -23 -20 -34 -26 -19 -10 -20 -10 -7 6 26 31 172 171 183
175 7 2 9 -3 5 -12 -5 -13 -1 -15 23 -10 51 10 161 -18 252 -63 79 -40 92 -50
136 -112 46 -67 48 -68 70 -54 33 22 85 25 99 7 7 -11 13 -12 18 -6 3 6 -1 14
-9 17 -23 9 -20 24 4 24 11 0 20 -7 20 -15 0 -8 4 -15 9 -15 5 0 13 -9 16 -20
3 -11 16 -25 27 -31 20 -11 21 -9 14 22 -3 18 -12 36 -19 41 -21 13 5 27 32
17 17 -7 22 -15 18 -29 -3 -11 0 -23 5 -27 8 -4 9 8 5 35 -4 32 -2 42 9 42 8
0 14 -10 14 -25 0 -16 4 -23 13 -19 8 3 21 -14 35 -46 12 -28 22 -52 22 -55 0
-3 -15 -5 -32 -5 -24 0 -29 3 -18 9 8 6 18 7 22 5 4 -3 8 0 8 6 0 16 -32 70
-42 70 -8 0 0 -29 14 -47 7 -8 -3 -15 -32 -24 -23 -7 -60 -29 -82 -49 l-41
-35 -53 25 c-29 14 -53 31 -53 38 -1 17 27 15 45 -3 21 -20 48 -20 40 1 -3 9
-6 20 -6 25 0 5 -9 9 -20 9 -23 0 -27 18 -6 26 8 3 24 -4 35 -15 30 -30 42
-26 29 9 -8 24 -15 29 -29 25 -10 -4 -19 -2 -19 4 0 6 -16 10 -35 9 -19 -1
-35 -5 -35 -10 0 -5 -4 -6 -10 -3 -5 3 -10 2 -10 -4 0 -5 -14 -9 -30 -9 -43 1
-57 -15 -33 -38 11 -11 32 -41 48 -69 42 -74 49 -79 80 -59 14 9 25 12 25 6 0
-15 66 26 105 66 18 17 36 32 41 32 5 0 4 -4 -3 -8 -6 -4 19 -7 55 -7 60 0 67
-2 67 -20 0 -22 -21 -24 -82 -10 -22 5 -33 4 -33 -4 0 -6 10 -11 23 -11 12 0
35 -7 51 -15 15 -8 41 -15 57 -15 34 0 43 -13 28 -41 -10 -19 -9 -21 5 -16 11
4 15 3 11 -4 -4 -5 -2 -15 3 -22 29 -37 61 -110 67 -156 6 -43 10 -51 24 -46
16 7 75 25 165 49 27 8 55 12 61 9 7 -2 15 3 18 11 4 9 1 16 -6 16 -7 0 -6 4
3 10 9 4 31 5 50 0 19 -4 29 -8 21 -9 -8 -1 -12 -3 -9 -6 8 -8 39 6 33 15 -11
18 8 41 29 35 21 -6 21 -6 2 9 -11 9 -15 16 -9 16 7 0 14 8 16 18 3 11 6 8 7
-10 1 -16 4 -32 5 -38 1 -5 3 -14 4 -18 0 -4 11 -8 24 -9 12 0 16 1 9 4 -15 6
-6 23 13 23 8 0 12 -6 9 -14 -5 -13 2 -13 53 -1 32 7 90 16 128 20 39 3 80 8
92 11 l22 4 -24 53 c-14 28 -25 60 -25 69 0 21 -10 47 -61 156 -22 46 -39 87
-39 91 0 7 -35 98 -63 163 -14 33 -35 44 -44 22 -4 -12 -9 -8 -17 17 -8 26
-23 41 -64 62 -55 30 -76 30 -50 0 19 -21 58 -98 58 -113 0 -19 -18 -10 -23
11 -5 18 -11 20 -34 15 -46 -12 -54 -30 -10 -22 27 5 37 4 32 -3 -3 -6 -2 -11
3 -11 5 0 12 -9 15 -20 3 -11 10 -19 16 -18 11 3 35 -30 47 -65 4 -10 31 -29
60 -42 36 -16 62 -37 83 -66 36 -49 41 -89 11 -89 -11 0 -20 -7 -20 -15 0 -16
-16 -21 -22 -6 -1 5 -16 13 -32 17 -24 6 -28 4 -23 -9 9 -23 -4 -28 -22 -8
-12 14 -25 18 -53 14 -21 -3 -38 -11 -38 -17 0 -24 -61 -6 -71 20 -5 14 -15
27 -23 30 -9 3 -12 12 -9 21 4 9 2 14 -3 10 -5 -3 -10 2 -11 11 0 9 -4 32 -8
50 -5 23 -4 32 5 32 10 0 75 -39 197 -118 l34 -22 -33 40 c-18 22 -37 40 -43
40 -5 0 -3 -5 5 -10 8 -5 11 -10 5 -10 -5 0 -16 4 -24 9 -11 7 -10 10 5 15 15
4 19 16 20 51 1 24 -2 42 -7 39 -4 -2 -15 6 -24 20 -20 30 -45 41 -45 20 0 -8
5 -12 10 -9 6 3 10 -1 10 -9 0 -8 8 -23 18 -33 10 -10 19 -31 20 -47 2 -24 0
-27 -13 -16 -12 10 -15 9 -15 -4 0 -14 -4 -13 -24 6 -23 23 -25 45 -3 32 7 -4
0 4 -16 19 -15 14 -27 31 -27 36 0 6 -11 21 -25 35 -14 14 -25 28 -25 31 0 3
-4 11 -10 18 -5 7 -36 46 -69 87 -91 116 -145 166 -209 199 -55 28 -102 71
-102 92 0 16 35 9 87 -16 28 -13 64 -27 80 -31 61 -15 137 -56 173 -92 40 -42
87 -64 71 -34 -13 24 -51 57 -86 75 -16 9 -27 16 -24 17 18 1 176 -33 191 -41
19 -10 126 -137 146 -174 7 -13 35 -43 63 -66 l51 -43 -7 35 c-4 18 -18 54
-31 78 -30 55 -30 56 6 29 27 -19 34 -21 63 -10 59 21 115 25 197 13 53 -8 85
-9 93 -3 26 21 140 53 168 47 58 -13 169 -193 169 -273 l0 -42 43 6 c23 3 52
7 64 9 29 5 119 -23 133 -41 7 -7 18 -14 25 -14 7 0 24 -11 39 -25 39 -36 70
-19 46 25 -8 14 -6 22 6 32 9 7 30 25 46 41 16 15 35 27 42 27 6 0 17 5 23 11
19 19 90 1 116 -30 13 -15 31 -32 40 -38 34 -18 163 17 192 52 6 7 21 15 33
20 18 5 27 2 38 -14 10 -14 26 -21 49 -21 27 0 37 6 53 34 11 19 46 50 76 70
50 32 64 36 120 36 43 0 67 -5 76 -14 6 -8 21 -16 33 -18 12 -2 21 -9 19 -16
-1 -6 2 -12 8 -12 5 0 10 -18 10 -39 0 -50 15 -91 34 -91 22 0 29 18 32 78 2
33 9 61 20 73 29 32 92 57 132 52 39 -5 112 19 112 37 0 6 9 10 19 10 32 0 78
-64 100 -138 21 -70 70 -132 104 -132 9 0 17 -6 17 -13 0 -14 40 -37 65 -37
25 0 43 43 55 130 6 47 18 95 26 107 9 14 36 29 71 39 47 14 69 15 132 6 78
-11 98 -24 138 -88 9 -15 12 163 12 804 l1 822 -4140 0 -4140 0 0 -336z m620
307 c0 -11 6 -22 13 -24 7 -3 4 -6 -6 -6 -10 -1 -16 -5 -12 -10 3 -5 -6 -18
-20 -29 -21 -17 -30 -18 -72 -9 -55 13 -69 25 -45 44 15 11 15 12 1 7 -13 -4
-15 0 -12 20 5 25 8 26 79 26 66 0 74 -2 74 -19z m4714 3 c3 -9 6 -24 6 -34 0
-11 6 -23 13 -27 6 -4 20 -24 30 -44 26 -51 5 -98 -49 -111 -17 -4 -20 -1 -16
23 l4 28 -55 -30 -55 -29 -58 15 c-32 8 -64 15 -72 15 -7 0 -22 9 -34 20 -28
25 -30 25 -67 -6 l-30 -25 -23 20 c-12 12 -26 21 -30 21 -5 0 -13 11 -18 24
-9 24 -11 25 -119 23 -101 -1 -113 1 -142 22 -31 23 -33 23 -46 5 -8 -10 -12
-27 -9 -36 7 -28 -28 -63 -86 -87 -29 -12 -63 -27 -75 -33 -12 -6 -32 -8 -45
-5 -13 4 -52 0 -88 -7 -45 -10 -71 -11 -84 -4 -17 10 -18 11 -3 20 30 16 18
28 -27 28 -25 0 -81 14 -128 31 -75 28 -83 29 -95 14 -17 -24 -8 -37 36 -59
30 -14 40 -25 44 -50 3 -21 0 -35 -11 -43 -12 -10 -13 -18 -5 -36 14 -30 5
-183 -12 -216 -12 -23 -12 -22 -9 18 1 23 -5 59 -13 79 l-16 37 -8 -29 c-5
-17 -4 -35 1 -41 16 -19 6 -101 -15 -121 -18 -18 -18 -18 -12 23 4 23 3 44 -2
47 -4 3 -11 -18 -14 -46 -4 -28 -12 -55 -19 -59 -17 -11 -22 5 -10 27 7 12 6
26 -1 41 -13 30 -22 29 -36 -4 -7 -16 -21 -38 -31 -51 -16 -19 -23 -21 -40
-12 -17 9 -22 7 -30 -15 -5 -14 -12 -25 -15 -25 -2 0 0 12 6 26 13 37 5 41
-25 10 -15 -14 -32 -23 -40 -20 -7 3 -20 -1 -27 -8 -26 -23 -40 -20 -33 7 4
15 2 25 -5 25 -6 0 -11 -12 -11 -27 -1 -25 -2 -26 -14 -10 -16 21 -26 22 -26
2 0 -13 -4 -14 -20 -5 -22 12 -26 40 -8 58 9 9 8 12 -4 12 -8 0 -22 -9 -29
-21 l-14 -21 -28 22 -27 21 0 -21 c0 -31 -32 -22 -41 13 -4 15 -6 27 -3 27 2
0 10 -12 18 -27 l15 -28 1 27 c0 15 -7 34 -15 42 -9 8 -21 29 -26 46 -15 41
-29 38 -30 -7 -1 -22 -3 -29 -6 -18 -9 38 -23 40 -23 2 0 -28 -3 -35 -15 -31
-8 4 -15 1 -15 -4 0 -6 7 -17 15 -26 20 -19 19 -30 -2 -22 -9 4 -19 2 -23 -3
-3 -6 -18 -1 -35 13 -26 21 -28 25 -13 39 12 12 18 13 27 4 9 -9 11 -8 5 6 -5
13 -2 16 10 11 19 -7 19 -4 6 30 -8 22 -6 27 18 38 36 18 39 43 6 73 -33 30
-23 32 22 4 19 -11 38 -18 44 -14 5 3 10 0 10 -8 0 -15 49 -61 57 -54 2 3 -1
15 -7 27 -6 12 -9 24 -6 27 11 11 -15 43 -34 43 -11 0 -20 7 -20 15 0 8 -7 15
-15 15 -8 0 -15 5 -15 10 0 6 -7 10 -15 10 -8 0 -15 5 -15 10 0 17 -36 11 -54
-9 -9 -10 -29 -18 -44 -18 -14 0 -28 -4 -29 -9 -2 -5 -12 -27 -22 -49 l-19
-40 -1 39 c-1 34 -3 37 -17 25 -8 -7 -13 -21 -11 -30 3 -10 -1 -20 -8 -23 -8
-3 -15 -15 -17 -28 -3 -24 -21 -30 -49 -16 -13 6 -20 0 -29 -22 -7 -16 -16
-27 -21 -24 -5 3 -9 -8 -9 -25 0 -25 3 -29 18 -24 9 3 26 17 38 31 17 21 24
23 40 14 18 -11 18 -11 -1 -12 -31 0 -46 -19 -34 -42 8 -15 5 -20 -17 -29 -15
-5 -33 -8 -41 -5 -16 6 -18 -36 -3 -64 7 -14 6 -20 -7 -24 -17 -7 -32 9 -45
49 -4 14 -6 9 -7 -17 -1 -22 5 -40 13 -45 8 -4 18 -21 21 -38 7 -28 6 -29 -8
-10 -8 11 -15 24 -15 29 0 5 -6 12 -12 16 -16 10 -15 77 1 96 13 16 19 55 20
127 0 31 3 36 14 27 8 -7 15 -7 19 -1 4 5 -3 16 -15 25 -18 12 -20 18 -10 30
7 8 10 20 6 26 -3 6 3 10 15 10 16 0 20 4 15 19 -4 13 5 28 30 50 20 17 40 29
46 26 5 -4 9 -2 9 4 0 6 16 13 35 17 25 4 35 12 35 24 0 10 -6 21 -12 23 -8 3
-6 6 5 6 9 1 17 -3 17 -7 0 -21 31 -6 37 17 13 53 63 118 63 82 0 -6 -5 -11
-10 -11 -18 0 -33 -52 -18 -62 21 -13 41 -9 34 7 -3 8 -1 15 4 15 6 0 9 3 8 8
-4 20 16 62 33 67 10 4 19 11 19 16 0 6 5 7 11 4 6 -4 8 -14 5 -22 -9 -22 3
-36 20 -22 11 9 11 15 3 25 -9 11 -6 14 14 14 14 0 29 -4 32 -10 3 -5 15 -10
26 -10 11 0 22 -7 25 -15 10 -25 20 -17 39 28 15 35 19 39 22 20 l4 -23 26 24
c30 28 80 41 98 26 7 -6 25 -8 41 -4 20 5 30 2 41 -11 10 -15 16 -16 25 -7 16
16 49 15 47 0 -3 -24 3 -53 8 -40 8 20 31 14 35 -10 2 -14 13 -24 31 -29 15
-4 27 -4 27 -1 0 4 3 16 6 27 4 15 -3 24 -31 39 -31 17 -35 24 -35 58 0 27 -5
41 -16 45 -15 6 -15 8 2 20 14 11 157 13 770 13 676 0 752 -2 758 -16z m367
-25 c3 -5 27 -12 55 -15 27 -4 56 -12 64 -19 8 -7 25 -16 38 -20 31 -9 25 -39
-8 -40 -69 -3 -77 -7 -124 -62 l-18 -22 93 4 c100 3 119 0 119 -20 0 -8 9 -17
20 -20 12 -4 32 -24 46 -45 22 -33 25 -47 21 -86 -4 -25 -12 -53 -18 -61 -10
-11 -10 -16 0 -23 13 -7 -23 -15 -123 -24 -44 -5 -69 2 -60 15 3 5 -1 9 -9 9
-8 0 -27 10 -42 22 -25 19 -32 20 -79 11 -44 -10 -61 -8 -121 10 -38 11 -78
30 -88 41 -26 30 -49 85 -41 98 4 6 -1 17 -11 24 -24 18 -13 39 35 64 45 23
46 26 23 75 -22 45 -12 62 47 85 33 13 62 16 110 12 36 -3 67 -9 71 -13z
m-2148 -36 c-7 -2 -19 -2 -25 0 -7 3 -2 5 12 5 14 0 19 -2 13 -5z m-2644 -89
c8 -7 -23 -36 -48 -46 -21 -7 -23 -11 -11 -18 10 -7 11 -10 3 -10 -24 0 -13
-16 20 -29 29 -13 30 -14 10 -18 -13 -2 -23 -8 -23 -13 0 -15 -149 -90 -180
-90 -16 0 -30 -5 -30 -11 0 -5 -4 -8 -9 -4 -13 8 -3 72 20 121 35 74 86 115
158 125 41 5 79 3 90 -7z m1105 -26 c-7 -11 -44 -10 -44 2 0 16 34 30 42 17 4
-6 4 -15 2 -19z m262 -73 c10 -8 29 -15 42 -15 14 0 22 -6 22 -18 0 -28 -53
-103 -99 -141 -22 -19 -41 -40 -41 -47 0 -7 -10 -20 -22 -28 -19 -14 -25 -14
-57 3 -20 11 -44 22 -53 25 -12 3 -16 13 -12 33 8 45 15 63 25 63 5 0 9 12 9
28 0 23 10 32 78 69 42 23 80 42 83 42 3 1 14 -6 25 -14z m5084 -121 c0 -1
-12 -22 -26 -45 -14 -24 -23 -36 -20 -25 4 10 2 24 -4 31 -16 19 -3 40 25 40
14 0 25 -1 25 -1z m-1295 -64 c-3 -5 3 -14 14 -19 11 -6 21 -21 23 -33 2 -14
11 -24 23 -26 28 -4 82 -48 72 -58 -4 -5 -13 -2 -18 6 -8 12 -12 12 -16 2 -6
-15 -67 -42 -95 -42 -10 0 -23 10 -28 23 -7 17 -4 27 16 45 14 12 21 22 17 22
-5 0 -13 -4 -18 -9 -15 -13 -78 -22 -94 -12 -11 7 -10 13 3 33 9 14 28 31 42
38 14 8 30 22 35 32 6 10 14 16 20 13 5 -4 7 -10 4 -15z m1601 -32 c-3 -13
-13 -56 -23 -95 -9 -40 -21 -73 -26 -73 -5 0 -7 10 -3 23 3 12 13 55 23 95 9
39 21 72 26 72 5 0 7 -10 3 -22z m-86 -58 c0 -40 -4 -70 -10 -70 -5 0 -10 25
-10 56 0 46 -3 55 -15 50 -21 -8 -19 11 3 23 29 18 32 13 32 -59z m188 58 c19
-19 15 -34 -19 -73 l-31 -35 31 0 c17 0 31 -4 31 -10 0 -5 -20 -10 -45 -10
-25 0 -45 3 -45 6 0 4 16 24 35 45 19 22 35 46 35 54 0 24 -31 31 -46 10 -8
-10 -17 -16 -20 -12 -11 11 17 37 40 37 12 0 27 -5 34 -12z m-4648 -39 c0 -5
-4 -9 -10 -9 -5 0 -10 7 -10 16 0 8 5 12 10 9 6 -3 10 -10 10 -16z m3090 -93
c0 -21 -47 -54 -86 -62 -62 -12 -54 19 8 32 15 4 35 15 44 25 20 23 34 24 34
5z m-2363 -53 c-3 -10 -5 -2 -5 17 0 19 2 27 5 18 2 -10 2 -26 0 -35z m2406
-22 c21 -8 24 -16 26 -64 1 -65 -17 -86 -81 -94 l-43 -6 24 20 c23 19 23 20 7
45 -9 14 -26 28 -36 31 -24 6 -25 20 -5 41 8 8 15 19 15 25 0 13 60 14 93 2z
m-3039 -17 c4 -10 1 -14 -6 -12 -15 5 -23 28 -10 28 5 0 13 -7 16 -16z m16
-34 c0 -5 -5 -10 -11 -10 -5 0 -7 5 -4 10 3 6 8 10 11 10 2 0 4 -4 4 -10z
m235 -30 c-3 -5 -11 -10 -16 -10 -6 0 -7 5 -4 10 3 6 11 10 16 10 6 0 7 -4 4
-10z m609 -21 c-3 -5 2 -6 10 -3 16 6 18 1 20 -49 1 -10 8 -23 16 -28 11 -8
10 -9 -7 -4 -19 5 -23 2 -24 -17 -1 -13 -1 -27 0 -32 1 -4 -1 -17 -4 -27 -11
-33 -23 -11 -23 42 0 33 3 47 9 38 7 -12 9 -12 9 -1 0 18 -32 75 -47 85 -25
15 -13 26 17 16 16 -6 27 -15 24 -20z m-588 -38 c-9 -16 -16 -43 -16 -59 0
-23 8 -32 41 -50 46 -25 53 -27 44 -12 -3 6 1 10 9 10 9 0 16 5 16 11 0 6 -9
9 -20 6 -23 -6 -25 -4 -35 43 -6 28 -5 33 6 25 24 -18 54 -12 51 10 -3 16 -2
17 13 5 9 -8 39 -13 75 -13 42 1 60 -3 64 -13 4 -10 14 -12 31 -8 15 4 25 2
25 -5 0 -6 5 -11 11 -11 5 0 7 5 4 10 -6 9 8 14 28 11 4 0 7 8 7 19 0 23 13
26 32 7 14 -15 68 -45 56 -32 -12 13 12 34 30 28 23 -9 38 -29 62 -83 12 -24
26 -48 32 -51 7 -5 0 -10 -18 -14 -205 -46 -358 -98 -424 -146 -44 -32 -60
-36 -60 -16 0 7 -7 22 -16 33 -15 18 -15 18 -10 -8 9 -41 -24 -29 -39 15 -7
20 -21 49 -31 63 -36 51 -64 108 -64 130 0 8 9 19 20 26 23 15 26 28 6 28 -9
0 -12 7 -9 20 4 17 8 18 20 8 12 -10 18 -8 34 12 10 14 22 34 26 45 6 17 7 18
11 3 2 -9 -4 -30 -12 -47z m2375 8 c27 -12 58 -19 71 -16 35 10 116 -12 133
-36 8 -11 20 -45 27 -75 11 -52 11 -56 -11 -73 -35 -28 -83 -38 -128 -26 -32
8 -46 7 -87 -12 -54 -24 -97 -27 -146 -10 -18 7 -35 8 -39 3 -3 -5 -13 -10
-21 -12 -29 -5 -60 -25 -60 -39 0 -9 -15 -13 -47 -13 -41 0 -53 -5 -80 -34
-18 -18 -33 -41 -33 -50 0 -9 -7 -16 -15 -16 -22 0 -18 -21 6 -27 13 -4 19
-12 17 -26 -4 -25 -56 -41 -104 -33 -40 8 -124 71 -124 94 0 29 24 72 43 78 9
3 17 11 17 19 0 15 -31 77 -43 86 -5 3 -1 9 8 13 26 10 37 7 29 -6 -6 -9 -3
-9 9 0 15 13 15 16 0 38 -15 24 -15 25 5 31 13 3 22 13 22 24 0 10 11 26 25
35 14 9 25 21 25 28 0 18 39 38 61 31 22 -7 25 -34 7 -54 -11 -11 -10 -13 4
-8 10 3 20 2 24 -4 3 -6 19 -7 35 -4 20 5 38 1 54 -9 13 -9 27 -16 29 -16 14
0 76 70 81 92 12 49 121 63 206 27z m-2901 -74 c0 -7 10 -20 23 -28 l22 -16
-22 0 c-14 -1 -23 5 -23 14 0 8 -4 15 -9 15 -5 0 -11 9 -14 19 -3 14 -1 18 9
14 8 -3 14 -11 14 -18z m558 -8 c2 -10 -3 -17 -12 -17 -10 0 -16 9 -16 21 0
24 23 21 28 -4z m-2022 -43 c40 -7 84 -48 84 -78 0 -12 -13 -35 -29 -50 -26
-25 -36 -28 -119 -31 -113 -4 -167 -20 -193 -57 -11 -15 -25 -28 -30 -28 -5 0
-19 -9 -31 -20 -12 -11 -28 -20 -36 -20 -15 0 -42 -24 -42 -37 0 -4 -20 -21
-45 -36 -46 -29 -49 -35 -60 -104 -5 -34 -11 -42 -33 -48 -15 -3 -35 -8 -45
-11 -15 -5 -17 -1 -11 34 5 34 3 40 -14 44 -33 9 -39 66 -11 112 15 26 19 40
11 48 -23 23 19 80 94 125 30 18 59 33 64 33 6 0 15 9 22 20 7 11 16 20 21 20
4 0 35 19 69 42 39 27 79 45 108 50 45 6 167 2 226 -8z m1829 -17 c12 -12 37
-42 54 -66 25 -36 30 -51 25 -78 -8 -43 1 -69 20 -54 16 14 24 5 51 -56 17
-42 17 -44 0 -83 -10 -22 -22 -40 -27 -40 -4 0 -8 -8 -8 -17 0 -12 -6 -8 -19
13 -11 18 -24 35 -30 38 -18 12 -12 37 14 58 31 25 31 38 0 68 -14 13 -23 31
-20 40 3 8 -6 36 -20 60 -14 25 -30 57 -36 72 -6 15 -26 37 -45 49 -19 11 -34
23 -34 26 0 12 53 -9 75 -30z m-374 -54 c10 3 19 1 19 -5 0 -5 -15 -8 -32 -6
-29 3 -33 7 -36 33 l-2 30 16 -28 c11 -21 21 -27 35 -24z m-2772 5 c31 -45 19
-71 -62 -131 -46 -35 -73 -29 -93 19 -21 49 -17 79 13 114 25 30 30 32 76 26
36 -4 54 -12 66 -28z m2414 -44 c10 -14 16 -32 13 -40 -3 -8 3 -22 14 -31 26
-23 25 -33 -3 -33 -13 0 -37 -15 -56 -35 -19 -21 -42 -35 -56 -35 -26 0 -41
-15 -26 -25 6 -3 8 -12 4 -20 -3 -8 0 -15 5 -15 6 0 10 -13 10 -30 -1 -36 -17
-38 -83 -10 -26 11 -55 20 -65 20 -25 0 -36 20 -19 31 10 6 11 9 2 9 -7 0 -13
11 -13 24 0 13 -7 26 -15 30 -20 7 -19 65 2 88 9 10 27 18 40 18 13 0 37 7 54
15 16 9 33 13 38 10 5 -2 23 -2 39 1 21 4 32 14 36 30 9 33 54 32 79 -2z
m2613 -8 c10 -21 8 -28 -11 -46 -28 -26 -85 -44 -99 -30 -14 14 19 74 47 88
35 17 51 14 63 -12z m-2206 -7 c4 -8 12 -24 19 -36 6 -13 7 -23 2 -23 -5 0
-17 -3 -27 -7 -13 -5 -16 -3 -11 9 3 10 0 19 -9 22 -14 6 -19 37 -7 50 10 9
25 2 33 -15z m4167 -141 c7 -6 13 -15 13 -20 0 -5 9 -21 20 -35 34 -43 19
-103 -31 -123 -36 -15 -59 -7 -59 20 0 12 4 18 10 15 16 -10 -1 27 -23 53 -11
12 -28 22 -38 22 -9 0 -19 7 -23 15 -20 53 82 94 131 53z m-2658 -98 c60 -30
128 -95 191 -184 50 -70 56 -74 84 -70 27 4 28 3 9 -5 -29 -13 -29 -22 1 -54
23 -25 23 -26 5 -32 -10 -4 -19 -11 -19 -17 0 -6 -12 -8 -30 -5 -23 5 -28 3
-24 -8 3 -8 15 -13 26 -12 12 1 22 -3 25 -8 2 -6 -9 -11 -24 -10 -20 0 -28 -6
-31 -20 -2 -18 -2 -18 8 -2 17 26 31 21 72 -25 21 -24 38 -36 38 -28 0 15 -20
51 -20 37 0 -9 -30 18 -30 26 0 3 8 3 19 0 23 -6 44 -49 36 -74 -4 -11 -2 -19
2 -19 10 0 43 -63 43 -81 0 -13 -69 -3 -84 12 -17 16 -27 10 -16 -10 8 -16 6
-21 -10 -26 -11 -3 -20 -11 -20 -16 0 -5 -9 -9 -19 -9 -11 0 -27 -7 -36 -16
-12 -13 -19 -14 -30 -4 -8 7 -15 8 -15 3 0 -9 36 -43 45 -43 3 0 6 8 6 18 1
16 2 16 6 0 2 -10 8 -18 13 -18 13 0 -1 -33 -19 -47 -9 -6 -20 -8 -26 -5 -5 4
-20 5 -32 3 -13 -1 -23 1 -23 6 0 5 12 10 27 11 15 1 32 7 38 13 7 8 1 9 -22
4 -21 -4 -33 -3 -33 4 0 6 7 8 15 5 20 -8 19 4 -3 50 -15 30 -20 35 -25 22 -5
-11 -3 -15 5 -10 7 4 8 3 4 -5 -11 -17 -28 -2 -21 19 4 12 -4 26 -25 44 -36
30 -48 32 -57 10 -4 -10 7 -26 31 -46 33 -27 36 -32 23 -46 -13 -12 -18 -12
-35 -1 -75 54 -149 146 -138 174 9 24 23 18 50 -22 l25 -36 11 27 c5 15 10 31
10 36 0 5 9 14 20 20 11 6 18 15 16 19 -3 4 1 8 9 8 8 0 13 -5 12 -11 -1 -6
10 -10 24 -8 22 2 31 -7 62 -56 32 -52 77 -104 77 -89 0 9 -41 80 -59 100 -13
16 -13 20 7 39 l21 22 43 -34 c72 -56 69 -54 62 -36 -3 9 -10 16 -15 16 -4 0
-14 12 -21 28 -8 15 -21 26 -31 26 -34 -3 -116 104 -109 143 2 6 -5 9 -15 7
-25 -6 -53 47 -53 98 l0 41 -36 -6 c-20 -3 -39 -9 -42 -12 -3 -3 8 -19 24 -36
l29 -31 6 39 c6 36 6 35 8 -14 0 -32 -3 -53 -10 -53 -5 0 -29 20 -52 45 -31
35 -47 45 -66 43 -13 -2 -27 -10 -29 -18 -3 -8 -1 -12 3 -8 4 4 25 -3 46 -14
41 -21 69 -52 69 -76 0 -7 7 -21 16 -30 15 -14 15 -16 -6 -24 -13 -5 -20 -15
-18 -25 5 -25 28 -28 28 -4 0 12 5 21 10 21 13 0 12 -7 -3 -53 -8 -20 -17 -34
-22 -30 -4 5 -5 3 -1 -4 3 -6 2 -14 -4 -18 -5 -3 -10 -1 -10 5 0 6 -5 8 -11 4
-8 -4 -7 -9 2 -14 10 -7 10 -13 1 -32 -7 -13 -11 -16 -8 -7 2 9 -11 34 -30 55
-18 21 -34 43 -34 47 0 11 -12 24 -135 151 -93 96 -123 120 -190 154 -97 49
-154 90 -134 96 8 2 59 11 113 20 l100 15 41 -37 c22 -20 62 -52 88 -69 51
-35 59 -53 26 -53 -18 0 -19 -2 -9 -15 8 -9 21 -13 36 -9 19 5 24 2 25 -12 0
-17 1 -17 10 1 6 13 27 25 55 31 24 6 44 9 44 7 0 -1 -12 -9 -27 -17 l-28 -15
33 -1 c17 0 32 4 32 9 0 5 10 7 23 4 l22 -6 -24 27 c-20 21 -31 25 -55 21 -26
-5 -41 2 -91 38 -68 51 -125 101 -125 110 0 4 10 7 23 8 12 0 47 8 77 18 l55
19 30 -33 c17 -18 50 -42 74 -55z m-2694 15 c0 -18 -5 -20 -55 -16 -62 3 -96
16 -70 25 20 7 58 11 95 11 23 0 30 -4 30 -20z m4965 5 c0 -5 -10 -10 -22 -10
-19 0 -20 2 -8 10 19 13 30 13 30 0z m-3856 -46 c10 -26 7 -32 -25 -43 -31
-10 -31 -10 -24 17 10 40 38 55 49 26z m3932 -12 c37 -27 31 -44 -13 -36 -21
4 -40 8 -42 10 -2 2 -13 -3 -23 -13 -15 -13 -23 -14 -43 -5 -31 14 -32 36 -2
57 27 19 87 13 123 -13z m-5033 1 c-13 -2 -33 -2 -45 0 -13 2 -3 4 22 4 25 0
35 -2 23 -4z m2073 -19 c21 -15 70 -39 107 -55 102 -41 144 -72 250 -187 26
-29 52 -52 58 -52 6 0 7 -5 4 -11 -4 -6 -13 -8 -21 -5 -8 3 -14 -1 -14 -9 0
-8 -5 -15 -11 -15 -6 0 -9 7 -5 15 3 8 1 15 -4 15 -6 0 -10 -5 -10 -11 0 -6
-9 -8 -20 -4 -21 7 -29 -10 -7 -18 7 -2 8 -8 3 -13 -5 -5 -11 -4 -13 4 -6 15
-37 16 -65 1 -18 -10 -28 -3 -87 58 -114 119 -248 183 -378 180 -81 -1 -83 15
-6 60 39 22 154 71 174 72 3 1 24 -11 45 -25z m-2000 -19 c4 -8 14 -15 23 -15
9 0 30 -9 46 -20 19 -12 47 -20 74 -20 46 0 52 -7 12 -13 -12 -2 -26 -8 -29
-14 -7 -11 -130 -2 -151 11 -18 11 -14 86 4 86 9 0 18 -7 21 -15z m4674 8 c-1
-20 -16 -31 -30 -22 -13 8 -13 10 0 19 18 12 30 13 30 3z m-4434 -30 c-10 -10
-19 5 -10 18 6 11 8 11 12 0 2 -7 1 -15 -2 -18z m2261 -29 c-3 -3 -12 -4 -19
-1 -8 3 -5 6 6 6 11 1 17 -2 13 -5z m-1733 -46 c16 -35 26 -108 15 -108 -8 0
-69 58 -69 66 0 9 32 74 36 74 2 0 10 -15 18 -32z m2413 -50 c-3 -8 -6 -5 -6
6 -1 11 2 17 5 13 3 -3 4 -12 1 -19z m-3838 -17 c17 -9 21 -21 21 -60 0 -58
-20 -80 -100 -110 -30 -12 -66 -27 -80 -35 -14 -7 -37 -16 -52 -20 -33 -8 -35
-18 -9 -54 30 -42 35 -71 15 -79 -9 -3 -25 -1 -35 6 -15 9 -27 8 -55 -4 -40
-17 -56 -19 -35 -6 8 5 11 16 8 25 -6 15 -53 17 -149 7 -15 -2 5 -31 21 -31
13 0 13 -2 2 -9 -8 -5 -19 -7 -26 -5 -6 3 -27 -6 -47 -19 -52 -36 -108 -53
-119 -36 -5 9 -23 12 -51 10 l-43 -3 20 22 c12 14 28 20 42 17 19 -3 22 -1 17
18 -4 15 1 24 18 33 59 31 84 51 96 76 8 15 27 32 43 38 16 5 29 14 29 19 0 5
7 9 15 9 8 0 15 5 15 10 0 16 22 12 35 -6 11 -15 18 -13 81 20 91 49 124 81
124 120 0 30 18 50 59 67 19 7 113 -6 140 -20z m3861 -56 c0 -5 -5 -3 -10 5
-5 8 -10 20 -10 25 0 6 5 3 10 -5 5 -8 10 -19 10 -25z m-2580 -45 c17 -32 3
-43 -44 -35 -22 4 -51 8 -63 8 -11 1 -19 5 -17 9 2 3 -2 8 -8 11 -7 2 -9 8 -5
13 4 5 13 2 18 -6 9 -13 12 -13 22 3 17 25 83 23 97 -3z m1835 -10 c-3 -5 -11
-10 -16 -10 -6 0 -7 5 -4 10 3 6 11 10 16 10 6 0 7 -4 4 -10z m542 -6 c10 -26
-12 -39 -42 -26 -19 9 -24 9 -19 1 3 -6 0 -15 -7 -20 -21 -13 -26 -11 -32 10
-7 29 7 45 37 37 15 -4 26 -2 26 4 0 16 30 12 37 -6z m-2017 -24 c30 -7 49
-19 55 -33 6 -12 19 -23 30 -25 11 -2 27 -10 35 -17 33 -28 57 -26 132 9 40
20 82 34 93 31 73 -15 74 -15 68 -32 -5 -13 -2 -15 11 -10 14 5 17 3 12 -8 -9
-24 2 -18 56 33 40 37 49 42 44 24 l-8 -23 105 7 c100 7 217 -6 258 -27 26
-13 118 -175 159 -279 l20 -52 -39 34 c-27 23 -84 49 -182 85 -140 50 -220 67
-331 68 -32 0 -48 4 -48 12 0 23 -17 14 -29 -15 -7 -15 -22 -39 -34 -53 -13
-13 -33 -46 -45 -74 l-22 -50 5 50 c6 48 5 49 -9 25 -14 -22 -21 -21 -17 4 3
13 -101 116 -116 116 -7 0 -17 9 -23 20 -7 14 -21 20 -45 20 -37 0 -63 -20
-77 -61 -6 -16 -22 -32 -41 -40 -18 -7 -49 -23 -69 -36 -21 -13 -44 -23 -53
-23 -30 0 -68 91 -79 189 -4 39 -12 62 -31 81 -24 25 -25 27 -8 42 10 9 27 18
38 21 32 7 136 0 185 -13z m1686 -36 c-4 -9 -9 -15 -11 -12 -3 3 -3 13 1 22 4
9 9 15 11 12 3 -3 3 -13 -1 -22z m-320 -27 c3 -23 -3 -21 -17 4 -8 17 -8 20 2
17 7 -2 13 -12 15 -21z m-46 -37 c0 -5 -2 -10 -4 -10 -3 0 -8 5 -11 10 -3 6
-1 10 4 10 6 0 11 -4 11 -10z m-140 -10 c0 -5 7 -10 15 -10 8 0 15 -4 15 -10
0 -5 -4 -10 -10 -10 -5 0 -7 -8 -4 -17 3 -11 -5 -6 -20 11 -24 28 -26 46 -5
46 5 0 9 -4 9 -10z m840 -75 c0 -5 -5 -3 -10 5 -5 8 -10 20 -10 25 0 6 5 3 10
-5 5 -8 10 -19 10 -25z m-775 -12 c18 -14 18 -15 2 -9 -10 3 -25 6 -33 6 -9 0
-12 5 -9 10 8 14 16 12 40 -7z m461 -22 c28 -22 18 -36 -11 -15 -10 8 -15 14
-9 15 5 0 0 4 -11 9 -11 5 -14 9 -7 9 8 1 25 -8 38 -18z m-476 5 c0 -2 -7 -6
-15 -10 -8 -3 -15 -1 -15 4 0 6 7 10 15 10 8 0 15 -2 15 -4z m18 -20 c-7 -8
-15 -12 -17 -11 -5 6 10 25 20 25 5 0 4 -6 -3 -14z m-752 -55 c41 15 100 10
212 -17 107 -26 216 -69 284 -111 49 -30 84 -83 109 -165 12 -38 23 -68 26
-68 3 0 2 19 -1 43 l-6 42 15 -50 c34 -109 68 -211 75 -220 11 -14 59 -170 72
-230 5 -27 11 -112 12 -187 1 -99 5 -141 15 -150 11 -11 12 -9 7 7 -3 11 -7
52 -10 90 -5 79 5 59 24 -50 7 -38 16 -74 20 -80 10 -14 40 -140 40 -169 0
-18 -4 -24 -14 -20 -8 3 -12 13 -9 25 3 11 0 19 -6 19 -7 0 -10 -4 -6 -9 3 -5
1 -12 -5 -16 -6 -4 -8 -10 -5 -14 2 -5 -6 -13 -18 -18 -21 -10 -23 -8 -22 16
0 14 -5 36 -13 48 -10 15 -13 44 -11 90 l4 68 -40 13 c-116 40 -496 -28 -565
-99 -15 -16 -30 -29 -33 -29 -10 0 -35 91 -72 260 -109 500 -105 483 -164 621
-22 53 -41 109 -40 125 0 25 3 22 20 -21 16 -42 18 -45 13 -15 -7 48 -24 90
-36 90 -19 0 3 55 49 125 26 38 48 64 50 58 3 -9 12 -9 29 -2z m1534 -51 c0
-11 3 -11 11 3 6 10 9 27 6 38 -7 25 9 24 23 -1 7 -14 7 -20 0 -20 -5 0 -10
-6 -10 -14 0 -20 -16 -29 -40 -21 -11 3 -17 12 -14 20 4 10 0 12 -15 8 -24 -6
-29 15 -9 35 10 10 16 8 30 -10 10 -13 18 -30 18 -38z m267 20 l2 -35 -15 34
c-14 32 -17 33 -57 28 -29 -4 -36 -3 -22 3 11 5 36 8 55 7 32 -2 35 -5 37 -37z
m-580 -2 c-3 -8 -6 -5 -6 6 -1 11 2 17 5 13 3 -3 4 -12 1 -19z m41 8 c-7 -8
-15 -12 -17 -11 -5 6 10 25 20 25 5 0 4 -6 -3 -14z m422 4 c0 -5 -7 -7 -15 -4
-8 4 -15 8 -15 10 0 2 7 4 15 4 8 0 15 -4 15 -10z m-21 -60 c1 -13 0 -13 -9 0
-5 8 -9 24 -9 35 l0 20 9 -20 c5 -11 9 -27 9 -35z m-4736 24 c26 -10 -3 -54
-35 -54 -23 0 -28 4 -28 24 0 31 28 44 63 30z m4535 -19 c-14 -30 -24 -32 -31
-5 -5 18 5 28 30 29 10 1 10 -5 1 -24z m-78 -40 c7 15 9 16 9 4 1 -9 -6 -22
-14 -29 -13 -11 -15 -6 -13 36 1 48 1 48 6 9 3 -32 6 -36 12 -20z m132 35 c31
0 18 -34 -15 -38 -23 -3 -27 0 -27 21 0 26 12 45 18 28 2 -6 13 -11 24 -11z
m98 -5 c0 -8 -2 -15 -4 -15 -2 0 -6 7 -10 15 -3 8 -1 15 4 15 6 0 10 -7 10
-15z m-4220 -46 c13 -49 9 -70 -26 -133 -30 -54 -51 -57 -70 -11 -11 28 -10
35 27 88 21 32 38 61 38 65 -7 47 18 40 31 -9z m3867 19 c-3 -8 -6 -5 -6 6 -1
11 2 17 5 13 3 -3 4 -12 1 -19z m38 2 c-3 -5 0 -10 8 -10 16 0 30 -24 20 -34
-12 -12 -22 -6 -17 9 4 11 0 15 -16 15 -16 0 -20 -4 -16 -16 3 -8 2 -12 -4 -9
-6 3 -10 -1 -10 -9 0 -9 -5 -16 -10 -16 -6 0 -1 18 10 40 11 22 25 40 31 40 6
0 7 -4 4 -10z m51 -5 c10 -26 -1 -35 -13 -10 -6 14 -7 25 -2 25 5 0 12 -7 15
-15z m-101 -15 c3 -5 1 -10 -4 -10 -6 0 -11 5 -11 10 0 6 2 10 4 10 3 0 8 -4
11 -10z m175 0 c0 -5 -4 -10 -10 -10 -5 0 -10 5 -10 10 0 6 5 10 10 10 6 0 10
-4 10 -10z m-3367 -33 c2 -7 -1 -28 -7 -47 -14 -45 -44 -50 -81 -16 -23 21
-26 28 -15 41 11 14 57 32 86 34 7 1 14 -5 17 -12z m3347 3 c0 -5 -5 -10 -11
-10 -5 0 -7 5 -4 10 3 6 8 10 11 10 2 0 4 -4 4 -10z m-50 -4 c0 -2 -7 -7 -16
-10 -8 -3 -12 -2 -9 4 6 10 25 14 25 6z m-743 -48 c-3 -8 -6 -5 -6 6 -1 11 2
17 5 13 3 -3 4 -12 1 -19z m-3347 -217 c0 -5 -7 -11 -15 -15 -8 -3 -15 -12
-15 -20 0 -19 -45 -50 -59 -42 -14 9 13 68 35 77 27 11 54 11 54 0z m264 -27
c9 -8 16 -24 16 -35 0 -24 -28 -77 -58 -109 -18 -19 -22 -21 -22 -7 0 12 -8
17 -27 17 -53 1 -80 42 -63 95 6 18 21 37 33 43 34 16 103 14 121 -4z m2136
-247 c0 -48 -48 -97 -95 -97 -23 0 -48 65 -38 97 13 39 67 57 106 35 15 -9 27
-25 27 -35z m-1397 -60 c27 -10 30 -32 11 -72 -19 -41 -55 -60 -84 -45 -24 13
-60 13 -60 0 0 -19 -28 -10 -43 13 -24 36 -11 71 33 91 20 9 45 14 53 10 10
-3 21 2 29 15 10 17 15 18 28 7 8 -7 23 -16 33 -19z m1397 -292 c0 -8 -7 -15
-15 -15 -26 0 -18 20 13 29 1 1 2 -6 2 -14z m-602 -107 c-3 -29 -7 -33 -34
-36 -18 -2 -36 3 -43 11 -16 20 -3 50 20 44 11 -3 19 -1 19 4 0 5 9 9 21 9 17
0 20 -5 17 -32z m1515 -175 c-7 -2 -21 -2 -30 0 -10 3 -4 5 12 5 17 0 24 -2
18 -5z m0 -20 c-7 -2 -19 -2 -25 0 -7 3 -2 5 12 5 14 0 19 -2 13 -5z m352
-164 c8 -78 13 -145 10 -147 -3 -3 -5 2 -5 11 0 8 -9 18 -20 22 -24 7 -90 -4
-90 -16 0 -11 79 -34 106 -31 16 2 23 -4 27 -23 3 -20 -2 -31 -24 -48 l-29
-21 7 -115 c8 -117 8 -185 2 -276 -2 -27 0 -73 5 -102 7 -42 6 -51 -6 -50 -14
2 -29 -7 -114 -71 -44 -33 -55 -52 -31 -52 14 0 70 24 97 41 8 5 23 12 33 16
10 3 16 12 13 19 -3 8 -4 14 -2 14 3 0 11 3 19 6 11 4 18 -5 25 -28 21 -69 23
-108 7 -130 -10 -15 -15 -46 -15 -95 0 -40 -2 -73 -3 -73 -14 0 -69 35 -74 46
-6 17 -41 18 -79 4 -31 -12 -37 -9 -28 14 3 9 14 16 24 16 30 0 33 19 5 26
-37 9 -31 20 19 33 25 6 48 15 51 21 8 12 -11 13 -52 1 -36 -11 -53 1 -53 37
0 13 -4 31 -9 40 -13 25 -23 295 -11 287 6 -3 10 3 10 15 0 12 -4 18 -10 15
-16 -10 -12 71 4 84 23 19 29 61 12 80 -14 15 -13 18 4 29 11 7 20 21 20 33 0
11 4 18 9 14 6 -3 10 3 9 12 0 10 3 39 7 66 9 52 -16 127 -42 127 -8 0 -13 12
-13 35 0 19 5 35 10 35 6 0 10 10 10 23 0 13 13 33 31 48 28 22 30 28 20 47
-15 28 -7 42 19 35 18 -5 19 -2 14 25 -5 24 -2 31 14 36 11 4 23 14 27 24 13
34 24 -12 40 -159z m-239 -405 c-13 -12 -16 -12 -16 -2 0 19 24 42 28 28 2 -5
-4 -17 -12 -26z m-8 -62 c-5 -19 15 -45 27 -34 4 4 5 0 1 -8 -3 -8 -9 -23 -12
-32 -4 -10 -10 -18 -14 -18 -5 0 -16 -3 -26 -7 -15 -6 -16 -2 -10 36 6 37 24
81 35 81 2 0 1 -8 -1 -18z m-20 -127 c6 11 12 16 12 10 0 -5 -11 -28 -25 -50
l-24 -40 -1 32 c0 17 3 39 7 49 6 16 7 16 13 -1 7 -19 7 -19 18 0z m-22 -273
l7 -118 -43 -2 -43 -3 7 33 c4 18 14 74 21 123 7 50 17 99 21 109 7 18 8 18
15 -3 5 -11 11 -74 15 -139z m-7 -291 l-32 -31 37 0 c54 0 49 -28 -6 -32 l-43
-4 42 -8 c34 -7 42 -13 45 -35 7 -51 -1 -64 -35 -57 -32 7 -73 36 -49 36 7 0
12 9 12 20 0 21 -20 29 -20 8 -1 -34 -37 40 -39 79 -2 43 -1 45 21 40 13 -3
39 0 58 7 19 7 36 11 38 10 2 -1 -11 -16 -29 -33z m1964 9 c20 -1 19 -2 -6
-16 -34 -18 -38 -16 -30 16 4 14 8 19 11 12 2 -6 13 -12 25 -12z m-1678 -40
l32 0 8 -91 c3 -50 5 -92 3 -94 -8 -8 -203 18 -210 28 -3 6 -2 22 3 36 6 14 9
39 9 56 -5 81 -7 79 61 71 34 -3 76 -6 94 -6z m1122 4 c-3 -3 -12 -4 -19 -1
-8 3 -5 6 6 6 11 1 17 -2 13 -5z m-1564 -31 c-13 -2 -33 -2 -45 0 -13 2 -3 4
22 4 25 0 35 -2 23 -4z m1406 -26 c-2 -1 -38 -14 -79 -28 -41 -14 -83 -29 -92
-33 -14 -7 -18 -3 -18 16 0 15 6 24 18 25 28 3 146 23 157 27 10 3 22 -2 14
-7z m-1369 -4 c0 -5 -9 -19 -20 -33 -11 -14 -20 -31 -20 -38 0 -7 -17 -36 -39
-65 -42 -58 -55 -84 -52 -108 1 -11 -13 -21 -46 -32 -82 -25 -104 -28 -119
-16 -10 8 -14 8 -14 0 0 -6 -5 -11 -11 -11 -7 0 -8 7 -4 18 5 9 14 37 22 62
l13 45 -4 -50 -4 -50 29 37 c27 33 32 36 61 27 45 -12 55 0 22 27 -24 19 -26
23 -10 24 16 0 17 5 11 37 -4 21 -12 41 -18 45 -9 6 -9 8 1 8 6 0 12 7 12 15
0 9 11 21 25 27 14 6 25 17 25 25 0 10 18 13 70 13 39 0 70 -3 70 -7z m1076
-21 c6 -4 14 -19 18 -34 5 -21 2 -30 -12 -37 -23 -12 -189 -47 -195 -41 -3 3
-8 29 -12 58 l-7 52 76 0 c42 0 85 -5 96 -12 10 -7 23 -9 27 -5 4 5 1 12 -7
17 -8 6 -10 10 -5 10 6 0 15 -4 21 -8z m-1340 -97 c-9 -9 -16 -13 -16 -8 0 12
22 34 28 28 2 -2 -3 -11 -12 -20z m263 -142 c5 -21 11 -45 13 -53 5 -24 -60
-100 -84 -100 -12 0 -36 11 -54 25 -18 14 -37 25 -43 25 -6 0 -11 5 -11 10 0
6 17 11 38 12 88 4 113 14 111 47 -6 76 13 97 30 34z m63 -34 c9 -74 -6 -84
-21 -13 -14 72 -14 77 2 72 6 -3 15 -29 19 -59z m-214 -10 c22 -2 39 -6 36
-11 -7 -11 -114 -10 -114 1 0 10 21 20 31 15 3 -2 24 -4 47 -5z m-249 -104
l26 -30 -32 29 c-39 35 -44 24 -8 -14 23 -24 24 -28 9 -46 -15 -19 -15 -19 -9
2 3 13 -1 26 -11 35 -23 19 -35 56 -27 87 l6 27 10 -30 c5 -17 21 -43 36 -60z
m441 45 c0 -22 -42 -70 -61 -70 -6 0 3 14 20 32 17 17 31 38 31 45 0 7 2 13 5
13 3 0 5 -9 5 -20z m-500 -60 c0 -6 9 -24 21 -39 l21 -28 -25 -50 c-26 -51
-53 -80 -64 -69 -3 3 2 15 11 25 14 16 15 23 6 41 -15 28 -4 39 14 14 8 -10
18 -16 22 -11 4 4 2 7 -4 7 -7 0 -12 12 -12 26 0 14 -4 23 -10 19 -11 -7 -13
18 -4 53 6 22 24 31 24 12z m219 -104 c-13 -14 -17 -5 -24 44 l-5 45 19 -40
c10 -23 15 -44 10 -49z m106 0 l27 -25 -24 3 c-32 3 -48 14 -48 32 0 21 15 17
45 -10z m1048 -236 c5 -23 30 -85 166 -410 39 -93 69 -149 91 -175 10 -11 23
-52 29 -95 19 -123 17 -117 53 -114 18 2 26 1 18 -2 -9 -2 -21 -18 -28 -34
-12 -26 -10 -34 19 -87 18 -32 39 -66 47 -76 8 -9 12 -20 9 -24 -4 -3 -2 -12
4 -19 6 -8 9 -20 6 -28 -3 -7 1 -23 9 -35 10 -14 13 -32 9 -52 -5 -21 -1 -38
11 -57 10 -15 19 -29 19 -32 1 -3 9 -22 18 -44 9 -21 17 -45 17 -54 0 -20 35
-49 76 -62 19 -7 39 -20 44 -31 6 -10 17 -19 25 -19 8 0 15 -4 15 -9 0 -14 90
-30 234 -42 72 -6 161 -17 199 -24 49 -10 75 -11 97 -3 17 5 50 8 74 7 24 -2
42 -1 39 4 -6 10 2 9 32 -5 15 -7 33 -25 42 -41 13 -26 42 -59 183 -207 25
-26 56 -62 69 -80 13 -18 36 -36 50 -41 14 -5 37 -26 51 -46 14 -20 44 -59 67
-87 25 -29 49 -70 57 -100 15 -51 13 -73 -4 -46 -6 8 -10 10 -10 4 0 -11 -45
-19 -219 -40 -41 -5 -50 -9 -38 -16 15 -8 16 -11 2 -24 -17 -18 -19 -30 -5
-39 6 -3 10 -15 10 -26 0 -17 -6 -20 -30 -17 -18 1 -34 -3 -39 -10 -5 -9 -41
-15 -107 -18 -54 -2 -135 -8 -179 -12 -59 -6 -91 -4 -123 6 -41 14 -46 13 -74
-8 -26 -19 -37 -21 -98 -15 -54 5 -74 3 -100 -10 -24 -12 -46 -16 -77 -11 -24
3 -43 2 -43 -4 0 -5 -12 -9 -27 -9 -16 0 -37 0 -48 -1 -58 -1 -140 6 -143 12
-2 4 -15 21 -30 38 -29 32 -47 36 -86 19 -20 -9 -32 -8 -60 5 -35 17 -41 28
-37 74 2 23 -22 31 -34 12 -10 -16 -118 -12 -143 6 -12 8 -26 12 -32 9 -10 -6
-60 22 -60 35 0 20 73 50 121 50 44 0 54 -4 91 -40 23 -22 45 -40 49 -40 9 0
79 86 79 97 0 4 -26 9 -57 11 -31 2 -65 8 -76 13 -10 6 -42 12 -70 14 -65 4
-76 6 -109 29 -23 15 -50 18 -200 17 -95 -1 -189 -4 -208 -8 -35 -8 -261 -8
-440 0 -61 3 -97 0 -102 -7 -4 -6 -10 -8 -13 -4 -10 10 -8 87 2 101 17 21 25
124 24 302 -2 177 -22 356 -62 547 -12 56 -27 132 -35 168 -25 119 -20 146 45
242 49 73 83 99 151 120 81 25 112 47 154 109 19 28 52 64 74 80 49 36 74 74
98 153 17 54 24 63 74 94 76 49 161 137 190 197 13 28 35 67 49 89 l25 38 62
-67 c34 -37 64 -80 67 -95z m1410 -47 c46 -71 77 -148 77 -194 0 -27 -34 -114
-49 -123 -4 -3 -7 -18 -6 -33 1 -15 0 -19 -2 -8 -4 15 -8 11 -19 -20 -8 -22
-12 -45 -9 -52 2 -7 -1 -15 -7 -19 -6 -4 -8 -3 -4 4 3 5 2 12 -4 14 -6 2 -3
20 6 47 13 40 13 46 -2 69 -9 14 -30 37 -45 50 -36 30 -37 57 -4 158 20 60 24
88 19 126 -4 26 -4 48 -1 48 3 0 25 -30 50 -67z m1333 32 c67 -51 70 -152 6
-205 -43 -35 -62 -37 -122 -7 -48 24 -58 48 -32 79 8 10 12 24 9 32 -4 9 -2
18 4 22 6 4 6 11 -2 21 -10 12 -10 16 2 24 11 7 11 11 1 17 -10 7 -10 11 2 21
8 7 21 9 27 5 8 -4 9 -3 5 4 -15 24 66 13 100 -13z m-841 -229 c33 -23 22 -97
-23 -151 -29 -35 -128 -105 -149 -105 -8 0 -28 -11 -45 -25 -16 -14 -42 -28
-56 -32 -15 -3 -54 -34 -87 -69 -33 -34 -70 -65 -81 -69 -20 -5 -23 0 -34 62
-6 37 -16 81 -21 97 -7 24 -7 27 6 16 8 -7 13 -15 11 -19 -2 -3 0 -15 5 -26 7
-18 8 -17 8 6 1 38 85 102 122 94 33 -7 71 27 109 98 13 26 27 47 30 47 3 0
19 13 35 28 68 63 125 80 170 48z m-473 -220 c3 -14 1 -31 -4 -38 -8 -10 -9
-9 -5 4 3 9 1 18 -5 20 -7 3 -9 12 -5 21 9 23 14 21 19 -7z m-64 -356 c13 -21
52 -28 52 -10 0 26 37 19 118 -21 99 -50 105 -54 182 -126 43 -41 51 -53 35
-53 -11 0 -26 9 -33 21 -9 14 -20 19 -33 16 -17 -4 -18 -3 -8 9 9 11 8 14 -6
14 -10 0 -16 3 -12 6 10 10 -20 34 -43 34 -14 0 -20 5 -17 13 7 18 -36 42 -98
55 -66 13 -103 14 -110 2 -6 -9 30 -15 63 -11 6 1 12 -8 12 -20 0 -18 4 -20
25 -15 18 5 25 2 25 -9 0 -8 5 -15 10 -15 6 0 10 8 10 17 0 14 3 13 23 -5 23
-22 24 -22 58 -22 16 0 20 -5 17 -27 -2 -18 -10 -29 -22 -31 -14 -3 -17 0 -12
13 5 15 4 16 -9 5 -25 -21 -12 -35 28 -32 52 5 46 -11 -10 -27 -99 -29 -191
-93 -239 -167 -9 -13 -19 -22 -21 -20 -3 3 5 19 18 37 18 26 20 31 6 26 -20
-7 -24 22 -6 40 8 8 8 16 0 30 -6 10 -11 15 -11 11 0 -4 -13 -2 -29 3 -27 10
-29 13 -20 42 6 21 6 33 -2 36 -5 1 -21 15 -35 29 -13 15 -24 23 -24 18 0 -5
-9 -1 -19 8 -11 10 -17 25 -14 37 3 10 0 19 -6 19 -12 0 -3 31 13 43 7 5 2 7
-11 4 -56 -12 -1 17 62 33 53 14 80 11 93 -10z m929 -52 c33 -37 43 -64 43
-119 0 -51 -2 -55 -55 -106 -93 -88 -179 -93 -223 -14 -50 89 -9 184 103 237
64 30 105 31 132 2z m233 -498 c0 -5 -4 -10 -10 -10 -5 0 -10 5 -10 10 0 6 5
10 10 10 6 0 10 -4 10 -10z m-412 -557 c-10 -2 -26 -2 -35 0 -10 3 -2 5 17 5
19 0 27 -2 18 -5z m-48 -17 c0 -2 -8 -10 -17 -17 -16 -13 -17 -12 -4 4 13 16
21 21 21 13z m-2161 -221 c45 -23 46 -43 4 -60 -54 -23 -90 -19 -109 10 -20
30 -7 52 34 58 15 2 31 5 35 6 4 0 21 -6 36 -14z m-2869 -15 c0 -5 -6 -10 -14
-10 -8 0 -18 5 -21 10 -3 6 3 10 14 10 12 0 21 -4 21 -10z m-684 -164 c22 -22
42 -32 53 -29 13 3 24 -5 37 -26 10 -17 22 -31 26 -31 4 0 8 -7 8 -15 0 -9 9
-15 25 -15 15 0 25 -6 25 -15 0 -19 -36 -39 -45 -25 -4 6 -10 8 -15 5 -4 -3
-22 11 -38 30 -31 34 -31 34 -66 20 -20 -9 -36 -19 -36 -23 0 -4 -11 -19 -25
-34 -17 -19 -31 -25 -46 -21 -20 5 -21 11 -16 60 5 45 3 55 -11 59 -45 15 -62
29 -62 51 0 22 3 23 49 18 33 -3 54 0 67 10 27 20 31 19 70 -19z m2219 18 c31
-20 23 -37 -11 -24 -31 12 -34 12 -34 2 0 -4 13 -12 28 -18 33 -13 62 -67 62
-117 0 -20 5 -39 10 -42 14 -9 12 -42 -2 -49 -10 -5 -10 -7 0 -12 19 -9 14
-24 -8 -24 -28 0 -146 -49 -161 -66 -18 -22 2 -17 67 16 59 29 108 38 118 21
9 -14 -5 -69 -17 -68 -23 2 -107 -26 -107 -34 0 -5 -5 -9 -12 -9 -18 0 -101
-42 -122 -62 -11 -10 -24 -18 -28 -18 -5 0 -7 -4 -4 -8 9 -15 -44 -45 -83 -46
-22 -1 -38 1 -36 3 8 7 -21 27 -42 28 -15 1 -23 -4 -23 -14 0 -11 6 -14 26 -9
37 10 27 -12 -14 -29 -19 -8 -34 -10 -37 -4 -4 5 -1 9 4 9 6 0 11 5 11 12 0
18 -56 -40 -74 -76 -9 -17 -16 -24 -16 -15 0 16 65 130 79 139 14 9 41 99 40
133 -1 28 -3 26 -18 -23 l-17 -55 -11 30 c-10 26 -12 27 -12 8 -1 -26 -13 -29
-31 -9 -6 8 -18 12 -26 9 -18 -7 -17 1 2 57 57 165 198 301 366 356 88 28 101
29 133 8z m-2025 -20 c12 -21 12 -27 0 -34 -20 -12 -40 -1 -40 24 0 42 20 47
40 10z m-500 -13 c0 -10 -3 -33 -6 -50 -5 -25 -9 -29 -20 -20 -17 14 -17 29
-4 63 11 30 30 35 30 7z m94 -70 c4 -5 2 -21 -4 -35 -11 -31 -59 -54 -71 -35
-10 16 0 39 17 39 7 0 18 9 24 20 11 21 25 26 34 11z m560 -67 c26 -10 18 -24
-14 -24 -20 0 -30 5 -30 15 0 16 17 19 44 9z m2463 -125 c30 -57 53 -130 53
-170 0 -17 -3 -19 -14 -10 -8 7 -25 9 -40 5 -23 -6 -26 -3 -27 22 0 25 -1 26
-9 9 -7 -15 -9 -16 -9 -4 -1 9 5 22 13 28 10 9 12 21 6 44 -12 49 -20 151 -10
141 4 -5 21 -34 37 -65z m193 -92 c10 -2 20 -15 22 -28 3 -21 9 -24 43 -25 67
-1 80 -3 70 -13 -6 -5 -39 -12 -75 -16 -36 -3 -76 -7 -89 -8 -35 -3 -50 26
-30 60 9 16 20 42 25 58 l8 30 4 -26 c2 -16 11 -29 22 -32z m-1240 -99 c0 -5
-6 -8 -12 -7 -29 3 -37 -2 -43 -31 -11 -51 -28 -35 -23 21 6 62 24 77 55 47
13 -12 23 -25 23 -30z m1630 42 c24 -15 -14 -23 -68 -14 l-47 8 45 7 c25 3 47
7 50 7 3 1 12 -2 20 -8z m-203 -6 c-3 -3 -12 -4 -19 -1 -8 3 -5 6 6 6 11 1 17
-2 13 -5z m-1043 -36 c-10 -13 -19 -24 -20 -26 -1 -2 -5 5 -8 15 -4 9 -4 14 0
11 3 -4 13 -1 21 7 23 23 28 17 7 -7z m106 12 c11 -7 6 -10 -20 -10 -26 0 -31
3 -20 10 8 5 17 10 20 10 3 0 12 -5 20 -10z m590 -41 c0 -24 -4 -30 -15 -25
-10 4 -19 -2 -25 -17 l-9 -22 0 22 c-1 12 6 29 15 37 8 9 13 16 9 16 -3 0 -3
5 0 10 12 20 25 9 25 -21z m-673 -13 c-27 -26 -40 -33 -61 -29 -21 4 -26 2
-26 -16 0 -11 -6 -21 -13 -21 -7 0 -13 9 -13 20 0 15 12 24 46 37 25 9 52 22
60 30 32 29 38 11 7 -21z m694 -9 c-8 -8 -11 -7 -11 4 0 20 13 34 18 19 3 -7
-1 -17 -7 -23z m-854 -31 c-14 -13 -23 -28 -19 -32 4 -5 0 -3 -8 4 -13 11 -12
16 10 32 36 28 48 25 17 -4z m-77 -46 c0 -27 -4 -50 -10 -50 -5 0 -10 23 -10
50 0 28 5 50 10 50 6 0 10 -22 10 -50z m245 41 c-6 -5 -21 -12 -35 -15 -24 -7
-24 -6 -6 8 21 17 57 23 41 7z m-281 -9 c3 -5 -2 -21 -9 -36 -13 -25 -13 -27
0 -22 9 3 15 0 15 -8 0 -20 -24 -26 -62 -15 -18 5 -46 9 -62 9 -29 0 -29 0
-11 20 19 21 89 58 112 59 6 1 14 -3 17 -7z m84 -53 c10 -13 9 -19 -3 -29 -13
-11 -15 -8 -15 20 0 19 1 31 3 29 1 -2 8 -11 15 -20z m52 11 c0 -5 -7 -10 -15
-10 -8 0 -15 5 -15 10 0 6 7 10 15 10 8 0 15 -4 15 -10z m148 -137 c-15 -4
-26 -23 -14 -23 2 0 13 -3 23 -6 13 -4 14 -3 5 4 -28 19 14 20 54 1 l39 -20
-35 6 c-24 4 -31 3 -21 -4 17 -11 23 -53 7 -44 -6 3 -35 22 -64 41 -44 30 -50
37 -35 43 10 4 27 7 38 7 17 0 17 -1 3 -5z m602 -3 c0 -5 -4 -10 -10 -10 -5 0
-10 5 -10 10 0 6 5 10 10 10 6 0 10 -4 10 -10z m-750 -35 c0 -5 4 -5 8 2 5 8
25 -4 62 -39 30 -28 48 -48 40 -46 -8 3 -23 1 -32 -4 -29 -14 -61 1 -95 46
-18 24 -33 45 -33 47 0 2 11 4 25 4 14 0 25 -4 25 -10z m-132 -36 c-8 -23 -13
-27 -19 -17 -15 24 -10 48 10 48 18 0 19 -3 9 -31z m70 -48 c13 -23 19 -41 13
-41 -20 0 -41 13 -41 25 0 7 -7 15 -15 19 -18 7 -20 -5 -3 -22 8 -8 8 -12 1
-12 -18 0 -23 27 -10 59 13 35 22 30 55 -28z m525 4 c73 -34 125 -80 110 -95
-8 -9 -16 -9 -30 -1 -17 10 -16 10 5 11 13 0 20 4 17 10 -9 15 -42 12 -59 -6
-9 -8 -16 -11 -16 -5 0 6 -5 11 -12 11 -7 0 -24 12 -39 26 l-27 26 -17 -25
c-10 -16 -22 -24 -31 -20 -11 4 -12 9 -4 18 8 9 7 14 -2 18 -8 3 -5 6 7 6 13
1 16 4 9 11 -14 14 -46 1 -40 -17 4 -11 1 -11 -14 -3 -19 10 -19 12 -3 29 37
38 76 39 146 6z m-33 -49 c0 -3 -4 -8 -10 -11 -5 -3 -10 -1 -10 4 0 6 5 11 10
11 6 0 10 -2 10 -4z m3440 -75 c0 -6 -4 -13 -10 -16 -5 -3 -10 1 -10 9 0 9 5
16 10 16 6 0 10 -4 10 -9z m-6253 -316 c-13 -27 -27 -33 -27 -12 0 14 19 37
31 37 4 0 2 -11 -4 -25z m203 -12 c0 -12 -43 -53 -57 -53 -23 0 -14 24 15 42
30 18 42 21 42 11z m-367 -50 c-7 -46 -10 -50 -25 -35 -9 9 -9 15 0 24 7 7 12
20 12 30 0 10 4 18 9 18 6 0 7 -17 4 -37z m267 17 c0 -5 -7 -10 -16 -10 -8 0
-12 5 -9 10 3 6 10 10 16 10 5 0 9 -4 9 -10z m-860 -29 c0 -22 -16 -36 -24
-22 -8 12 3 41 15 41 5 0 9 -9 9 -19z m290 -4 c19 -15 21 -57 3 -57 -7 0 -13
1 -13 3 0 1 -4 17 -9 35 -10 34 -5 39 19 19z m-130 -17 c-6 -11 -12 -20 -14
-20 -2 0 -2 9 1 20 3 11 9 20 15 20 5 0 4 -9 -2 -20z m190 0 c0 -5 -2 -10 -4
-10 -3 0 -8 5 -11 10 -3 6 -1 10 4 10 6 0 11 -4 11 -10z m4468 -21 c7 -11 24
-19 38 -19 15 0 24 -6 24 -15 0 -8 -8 -15 -18 -15 -21 0 -88 48 -96 68 -9 20
36 3 52 -19z m-4431 15 c-3 -3 -12 -4 -19 -1 -8 3 -5 6 6 6 11 1 17 -2 13 -5z
m413 -4 c0 -5 -4 -10 -9 -10 -6 0 -13 5 -16 10 -3 6 1 10 9 10 9 0 16 -4 16
-10z m-311 -30 c24 -55 -5 -79 -47 -40 -28 26 -28 44 1 58 31 15 31 15 46 -18z
m5506 20 c3 -5 -1 -10 -9 -10 -9 0 -16 5 -16 10 0 6 4 10 9 10 6 0 13 -4 16
-10z m-4825 -20 c0 -5 -4 -10 -10 -10 -5 0 -10 5 -10 10 0 6 5 10 10 10 6 0
10 -4 10 -10z m4888 -36 c-3 -17 -4 -17 -20 0 -9 9 -14 24 -11 32 5 14 8 14
20 1 8 -8 13 -23 11 -33z m-1698 16 c8 -5 12 -11 9 -14 -7 -8 -49 5 -49 15 0
12 21 11 40 -1z m665 -20 c7 -11 -43 -46 -52 -36 -7 7 25 46 38 46 4 0 10 -4
14 -10z m317 -22 c-7 -7 -12 -8 -12 -2 0 14 12 26 19 19 2 -3 -1 -11 -7 -17z
m-3978 3 c3 -5 -1 -12 -10 -15 -20 -8 -29 -1 -19 13 8 13 22 14 29 2z m3361 0
c3 -5 1 -12 -5 -16 -5 -3 -10 1 -10 9 0 18 6 21 15 7z m-210 -17 c25 -12 38
-13 54 -5 24 13 51 14 51 2 0 -12 -58 -71 -70 -71 -6 0 -10 12 -10 26 0 16 -5
24 -12 21 -16 -5 -68 20 -68 33 0 14 17 12 55 -6z m598 -1 c-7 -2 -19 -2 -25
0 -7 3 -2 5 12 5 14 0 19 -2 13 -5z m2577 -372 c0 -33 5 -53 17 -62 15 -13 16
-11 10 17 -7 36 0 49 20 33 7 -7 13 -32 14 -58 0 -41 1 -43 10 -21 7 17 7 37
-1 63 -13 45 -7 58 18 34 16 -17 17 -23 12 -149 0 -16 -6 -28 -13 -28 -16 0
-197 181 -197 197 0 17 20 16 40 -2 15 -14 19 -13 35 5 28 31 35 24 35 -29z
m-48 -68 c35 -34 48 -55 48 -75 0 -35 -10 -35 -40 -3 -13 14 -34 25 -47 25
-21 0 -23 4 -23 50 0 28 3 50 7 50 4 0 29 -21 55 -47z m-2702 -253 c0 -17 -28
-18 -33 -1 -3 14 0 17 14 14 11 -3 19 -9 19 -13z m47 14 c-3 -3 -12 -4 -19 -1
-8 3 -5 6 6 6 11 1 17 -2 13 -5z m-473 -30 c24 -9 21 -54 -3 -54 -25 0 -34 14
-26 40 7 22 7 22 29 14z"/>
<path d="M3565 10430 c-3 -5 -1 -10 4 -10 6 0 11 -9 11 -20 0 -13 7 -20 20
-20 13 0 20 7 20 20 0 11 -6 20 -12 20 -9 0 -8 4 2 10 12 8 9 10 -12 10 -15 0
-30 -4 -33 -10z"/>
<path d="M3180 10384 c0 -15 26 -19 34 -5 3 5 -3 11 -14 14 -13 3 -20 0 -20
-9z"/>
<path d="M3445 10368 c-17 -10 -15 -13 24 -22 51 -13 58 -30 14 -34 -18 -2
-33 -7 -33 -12 0 -13 36 -31 45 -22 5 4 5 1 1 -5 -4 -8 -2 -13 6 -14 7 0 2 -5
-12 -10 -13 -6 -35 -7 -47 -4 -13 3 -23 1 -23 -4 0 -4 15 -12 33 -16 28 -7 29
-9 10 -12 -43 -8 -25 -26 20 -20 40 5 41 5 17 -8 -25 -14 -25 -14 13 -15 35 0
37 1 27 21 -8 14 -8 24 -1 33 6 7 8 16 4 19 -3 4 1 7 11 7 9 0 14 5 11 10 -4
6 -10 8 -15 5 -15 -9 -20 12 -6 24 9 8 16 8 20 2 4 -6 14 -7 22 -4 20 7 62
-15 67 -36 4 -13 5 -13 6 2 0 10 5 16 10 13 5 -3 11 0 14 7 6 15 -6 38 -19 39
-13 1 -34 8 -72 25 -34 15 -59 9 -32 -7 8 -5 11 -13 6 -17 -4 -4 -19 6 -34 22
-14 17 -29 30 -33 30 -4 0 -11 3 -15 8 -10 9 -15 9 -39 -5z"/>
<path d="M3630 10372 c0 -9 43 -32 61 -32 16 0 -14 26 -39 34 -12 4 -22 3 -22
-2z"/>
<path d="M3710 10340 c0 -5 18 -14 39 -20 36 -9 103 -62 98 -77 -1 -3 9 -13
23 -22 24 -15 24 -15 10 3 -8 10 -15 25 -16 33 -2 8 -12 22 -23 30 -12 8 -19
18 -16 23 3 4 -17 15 -44 24 -57 18 -71 20 -71 6z"/>
<path d="M3370 10325 c-7 -8 -8 -15 -2 -15 5 0 15 7 22 15 7 8 8 15 2 15 -5 0
-15 -7 -22 -15z"/>
<path d="M3305 10300 c-3 -5 1 -10 10 -10 9 0 13 5 10 10 -3 6 -8 10 -10 10
-2 0 -7 -4 -10 -10z"/>
<path d="M3350 10279 c0 -5 5 -7 10 -4 6 3 10 8 10 11 0 2 -4 4 -10 4 -5 0
-10 -5 -10 -11z"/>
<path d="M3720 10280 c0 -5 9 -10 20 -10 11 0 20 5 20 10 0 6 -9 10 -20 10
-11 0 -20 -4 -20 -10z"/>
<path d="M3378 10253 c7 -3 16 -2 19 1 4 3 -2 6 -13 5 -11 0 -14 -3 -6 -6z"/>
<path d="M3611 10244 c0 -11 3 -14 6 -6 3 7 2 16 -1 19 -3 4 -6 -2 -5 -13z"/>
<path d="M3690 10245 c-7 -9 -10 -18 -6 -22 3 -3 6 -1 6 5 0 7 5 12 11 12 6 0
9 -9 6 -20 -3 -10 0 -18 5 -17 6 1 12 -9 14 -22 2 -13 19 -42 36 -64 22 -27
32 -50 31 -71 -1 -17 1 -23 4 -13 2 9 9 17 14 17 5 0 9 7 9 16 0 8 -3 13 -8
10 -4 -2 -16 16 -26 40 -10 24 -22 44 -27 44 -20 0 -7 20 14 21 16 1 17 3 5 6
-10 2 -15 10 -11 19 5 14 -33 53 -53 54 -6 0 -17 -7 -24 -15z"/>
<path d="M3020 10236 c0 -8 5 -18 10 -21 12 -7 14 -26 3 -22 -5 1 -10 -2 -12
-8 -3 -5 3 -11 12 -13 12 -3 15 3 12 27 -4 27 -1 31 21 31 14 0 22 4 19 10
-10 16 -65 12 -65 -4z"/>
<path d="M3410 10173 c1 -10 30 -43 54 -63 17 -14 18 -13 12 7 -5 16 -2 23 11
26 17 4 17 5 0 6 -10 0 -25 8 -33 16 -16 16 -44 21 -44 8z"/>
<path d="M3800 10166 c0 -8 7 -16 15 -20 13 -4 14 -2 5 14 -13 23 -20 26 -20
6z"/>
<path d="M3580 10160 c0 -5 5 -10 10 -10 6 0 10 5 10 10 0 6 -4 10 -10 10 -5
0 -10 -4 -10 -10z"/>
<path d="M3681 10144 c0 -11 3 -14 6 -6 3 7 2 16 -1 19 -3 4 -6 -2 -5 -13z"/>
<path d="M3706 10147 c3 -10 9 -15 12 -12 3 3 0 11 -7 18 -10 9 -11 8 -5 -6z"/>
<path d="M3520 10125 c0 -28 24 -34 34 -9 10 26 7 34 -14 34 -15 0 -20 -7 -20
-25z"/>
<path d="M3836 10115 c4 -8 11 -15 16 -15 6 0 5 6 -2 15 -7 8 -14 15 -16 15
-2 0 -1 -7 2 -15z"/>
<path d="M3410 10082 c0 -5 7 -15 15 -22 8 -7 15 -8 15 -2 0 5 -7 15 -15 22
-8 7 -15 8 -15 2z"/>
<path d="M3472 10071 c4 -13 18 -16 19 -4 0 4 -5 9 -11 12 -7 2 -11 -2 -8 -8z"/>
<path d="M3529 10065 c-3 -3 -3 -20 -1 -37 l5 -33 8 30 c8 27 0 52 -12 40z"/>
<path d="M3577 10064 c-4 -4 -7 -17 -7 -28 1 -19 1 -20 11 -3 11 19 8 43 -4
31z"/>
<path d="M3677 10023 c3 -7 6 -13 8 -13 2 0 5 6 8 13 3 8 -1 14 -8 14 -7 0
-11 -6 -8 -14z"/>
<path d="M3661 9994 c0 -11 3 -14 6 -6 3 7 2 16 -1 19 -3 4 -6 -2 -5 -13z"/>
<path d="M3450 9720 c0 -5 5 -10 10 -10 6 0 10 5 10 10 0 6 -4 10 -10 10 -5 0
-10 -4 -10 -10z"/>
<path d="M3498 9703 c7 -3 16 -2 19 1 4 3 -2 6 -13 5 -11 0 -14 -3 -6 -6z"/>
<path d="M4350 9181 c0 -5 5 -13 10 -16 6 -3 10 -2 10 4 0 5 -4 13 -10 16 -5
3 -10 2 -10 -4z"/>
<path d="M4408 9183 c7 -3 16 -2 19 1 4 3 -2 6 -13 5 -11 0 -14 -3 -6 -6z"/>
<path d="M4710 9080 c-8 -5 -27 -10 -42 -10 -16 0 -28 -4 -28 -9 0 -11 69 4
83 18 14 14 7 14 -13 1z"/>
<path d="M4459 9025 c-3 -2 -19 -5 -37 -7 -19 -1 -28 -6 -23 -11 6 -6 25 -6
50 1 23 5 41 6 41 1 0 -5 -8 -9 -17 -10 -10 0 -13 -3 -6 -5 8 -4 9 -13 3 -30
-5 -13 -8 -24 -6 -24 6 0 46 70 46 81 0 9 -43 13 -51 4z"/>
<path d="M4546 8867 c-3 -14 -8 -32 -11 -39 -5 -11 1 -14 23 -10 22 3 38 -4
68 -30 l38 -33 -23 33 c-12 17 -27 32 -33 32 -6 0 -9 3 -5 6 3 4 -1 13 -9 21
-13 14 -17 13 -30 -3 -14 -18 -14 -17 -4 5 8 15 8 27 2 33 -6 6 -12 1 -16 -15z"/>
<path d="M3670 8485 c0 -7 43 -45 52 -45 17 0 6 16 -22 32 -17 9 -30 15 -30
13z"/>
<path d="M3740 8434 c0 -9 24 -28 60 -48 28 -16 32 -17 22 -3 -15 17 -82 60
-82 51z"/>
<path d="M3380 8391 c0 -22 6 -44 15 -51 8 -7 15 -23 15 -35 0 -13 7 -25 15
-29 17 -6 19 6 6 32 -6 9 -17 41 -26 70 -9 28 -18 52 -21 52 -2 0 -4 -17 -4
-39z"/>
<path d="M3985 8290 c3 -5 8 -10 11 -10 2 0 4 5 4 10 0 6 -5 10 -11 10 -5 0
-7 -4 -4 -10z"/>
<path d="M4006 8285 c-3 -10 2 -27 15 -43 l21 -27 -8 30 c-11 48 -20 60 -28
40z"/>
<path d="M3470 8141 c0 -13 29 -35 37 -28 7 8 -15 37 -28 37 -5 0 -9 -4 -9 -9z"/>
<path d="M3514 8102 c-6 -4 -8 -18 -4 -32 6 -24 7 -24 11 8 3 17 5 32 5 32 -1
0 -6 -4 -12 -8z"/>
<path d="M4865 8580 c-3 -5 1 -10 9 -10 9 0 16 5 16 10 0 6 -4 10 -9 10 -6 0
-13 -4 -16 -10z"/>
<path d="M4216 6721 c-19 -21 -12 -28 13 -12 7 5 12 14 9 21 -2 7 -10 4 -22
-9z"/>
<path d="M4178 5903 c6 -2 18 -2 25 0 6 3 1 5 -13 5 -14 0 -19 -2 -12 -5z"/>
<path d="M3760 5900 c0 -12 8 -12 35 0 18 8 17 9 -7 9 -16 1 -28 -3 -28 -9z"/>
<path d="M4848 5813 c7 -3 16 -2 19 1 4 3 -2 6 -13 5 -11 0 -14 -3 -6 -6z"/>
<path d="M6298 2883 c7 -3 16 -2 19 1 4 3 -2 6 -13 5 -11 0 -14 -3 -6 -6z"/>
<path d="M6080 4195 c0 -8 7 -15 16 -15 14 0 14 3 4 15 -7 8 -14 15 -16 15 -2
0 -4 -7 -4 -15z"/>
<path d="M3268 2778 c-4 -22 -1 -27 19 -31 13 -2 26 -1 29 4 2 5 16 4 30 -1
36 -14 42 -12 16 6 -12 8 -30 13 -40 10 -20 -6 -37 3 -44 24 -3 10 -7 5 -10
-12z"/>
<path d="M3245 2720 c-4 -12 -5 -24 -2 -27 3 -2 8 5 12 17 4 12 5 24 2 27 -3
2 -8 -5 -12 -17z"/>
<path d="M3105 2700 c-27 -30 -12 -34 15 -5 13 14 19 25 13 25 -5 0 -18 -9
-28 -20z"/>
<path d="M3036 2636 c-15 -31 -31 -56 -36 -56 -6 0 -10 -23 -10 -51 0 -31 4
-48 10 -44 6 3 10 20 10 36 0 16 14 59 31 95 17 36 28 68 26 71 -3 2 -17 -21
-31 -51z"/>
<path d="M3231 2664 c0 -11 3 -14 6 -6 3 7 2 16 -1 19 -3 4 -6 -2 -5 -13z"/>
<path d="M3260 2669 c0 -5 5 -7 10 -4 6 3 10 8 10 11 0 2 -4 4 -10 4 -5 0 -10
-5 -10 -11z"/>
<path d="M3292 2651 c2 -7 7 -12 11 -12 12 1 9 15 -3 20 -7 2 -11 -2 -8 -8z"/>
<path d="M3203 2595 c-3 -9 -3 -18 -1 -21 3 -3 8 4 11 16 6 23 -1 27 -10 5z"/>
<path d="M3260 2600 c0 -5 6 -10 14 -10 8 0 18 5 21 10 3 6 -3 10 -14 10 -12
0 -21 -4 -21 -10z"/>
<path d="M3120 2590 c0 -5 7 -7 15 -4 8 4 15 8 15 10 0 2 -7 4 -15 4 -8 0 -15
-4 -15 -10z"/>
<path d="M3287 2550 c3 -11 9 -17 14 -15 10 7 1 35 -11 35 -5 0 -6 -9 -3 -20z"/>
<path d="M3100 2531 c0 -5 7 -12 16 -15 24 -9 28 -7 14 9 -14 17 -30 20 -30 6z"/>
<path d="M3020 2471 c0 -12 5 -21 10 -21 6 0 10 6 10 14 0 8 -4 18 -10 21 -5
3 -10 -3 -10 -14z"/>
<path d="M3080 2470 c13 -24 26 -26 33 -6 4 10 1 13 -9 9 -7 -3 -14 0 -14 6 0
6 -5 11 -10 11 -7 0 -7 -6 0 -20z"/>
<path d="M3291 2444 c-24 -13 -51 -24 -59 -24 -8 0 -31 -14 -52 -30 -21 -17
-44 -29 -52 -28 -7 2 -14 -7 -16 -19 -2 -13 -8 -23 -13 -23 -5 0 -9 -4 -9 -10
0 -18 15 -10 55 30 22 21 43 39 48 40 10 0 177 82 177 86 0 11 -40 0 -79 -22z"/>
<path d="M490 1354 c0 -17 22 -14 28 4 2 7 -3 12 -12 12 -9 0 -16 -7 -16 -16z"/>
<path d="M5246 9118 c4 -18 17 -58 31 -88 24 -53 25 -54 35 -30 17 46 -9 117
-52 140 -18 10 -19 8 -14 -22z"/>
<path d="M4864 9111 c4 -5 1 -11 -6 -13 -7 -3 5 -5 27 -5 22 0 30 2 18 4 -13
2 -23 9 -23 14 0 5 -5 9 -11 9 -5 0 -8 -4 -5 -9z"/>
<path d="M4890 9061 c0 -5 5 -13 10 -16 6 -3 10 -2 10 4 0 5 -4 13 -10 16 -5
3 -10 2 -10 -4z"/>
<path d="M4921 9035 c0 -11 6 -31 14 -45 18 -32 19 -5 0 35 -10 23 -13 25 -14
10z"/>
<path d="M5246 8988 c-3 -13 -6 -33 -6 -45 0 -20 71 -207 84 -220 3 -4 6 10 6
29 0 19 3 62 6 94 6 57 5 61 -32 111 -22 29 -42 53 -45 53 -4 0 -9 -10 -13
-22z"/>
<path d="M4960 8973 c0 -15 19 -37 26 -31 3 4 -1 14 -10 23 -9 9 -16 13 -16 8z"/>
<path d="M4270 8930 c0 -5 5 -10 10 -10 6 0 10 5 10 10 0 6 -4 10 -10 10 -5 0
-10 -4 -10 -10z"/>
<path d="M5092 8875 c26 -48 33 -55 59 -55 l30 0 -21 30 c-20 28 -80 80 -92
80 -4 0 7 -25 24 -55z"/>
<path d="M4927 8850 c15 -24 29 -33 51 -35 l31 -3 -27 23 c-15 12 -38 28 -51
35 l-25 13 21 -33z"/>
<path d="M4264 8675 c3 -14 14 -39 26 -55 12 -17 19 -37 16 -45 -9 -23 -26
-17 -26 9 0 13 -7 29 -15 36 -8 7 -15 18 -15 25 0 6 -9 20 -20 30 -19 17 -21
17 -46 0 l-27 -17 26 -17 c15 -8 27 -21 27 -28 0 -7 4 -13 9 -13 5 0 25 -15
44 -33 l35 -33 15 32 c14 28 14 33 -1 48 -13 12 -14 20 -6 33 9 14 6 21 -12
35 -30 24 -35 23 -30 -7z"/>
<path d="M5528 8630 c2 -22 1 -53 -3 -68 l-7 -27 -16 34 c-12 24 -28 37 -56
47 -65 21 -79 -3 -18 -31 57 -27 92 -71 92 -116 0 -21 -4 -41 -10 -44 -12 -7
20 -97 36 -102 8 -3 18 25 27 74 8 43 15 68 16 56 1 -12 6 -25 13 -29 29 -18
-22 198 -56 231 -21 21 -22 20 -18 -25z m59 -142 c-3 -8 -6 -5 -6 6 -1 11 2
17 5 13 3 -3 4 -12 1 -19z"/>
<path d="M4350 8595 c0 -8 -6 -15 -12 -16 -7 0 -4 -4 7 -8 22 -9 45 4 45 25 0
8 -9 14 -20 14 -11 0 -20 -7 -20 -15z"/>
<path d="M4180 8587 c0 -25 25 -67 41 -67 10 0 19 -4 19 -10 0 -5 10 -10 23
-10 12 0 18 4 12 8 -5 4 -14 15 -20 25 -9 17 -75 64 -75 54z"/>
<path d="M4935 8550 c-3 -5 -2 -10 4 -10 5 0 13 5 16 10 3 6 2 10 -4 10 -5 0
-13 -4 -16 -10z"/>
<path d="M4315 8510 c9 -46 17 -53 41 -36 15 12 17 18 8 33 -6 10 -17 18 -25
18 -8 0 -18 5 -22 10 -5 6 -5 -6 -2 -25z m45 -10 c0 -5 -7 -10 -15 -10 -8 0
-15 5 -15 10 0 6 7 10 15 10 8 0 15 -4 15 -10z"/>
<path d="M4407 8534 c-4 -4 -6 -19 -6 -33 1 -17 3 -20 6 -8 2 9 11 17 20 17 8
0 13 5 11 12 -5 14 -22 21 -31 12z"/>
<path d="M5135 8524 c-38 -7 -97 -13 -130 -14 -33 0 -78 -7 -100 -15 -22 -8
-54 -15 -72 -15 -22 0 -44 -10 -68 -31 -34 -30 -35 -33 -35 -105 0 -119 49
-301 129 -476 42 -91 91 -291 91 -368 0 -46 -25 -129 -33 -110 -11 27 37 -342
49 -384 7 -21 13 -20 229 8 66 8 165 21 220 27 171 20 187 39 196 228 3 74 2
152 -3 173 -4 22 -9 63 -9 91 -2 148 -69 360 -179 567 -40 74 -75 140 -80 145
-11 14 -40 136 -40 168 0 14 -5 49 -11 77 -11 49 -11 50 -47 49 -20 -1 -68 -7
-107 -15z m82 -298 c-10 -8 -29 -11 -45 -8 l-27 6 30 7 c51 11 62 10 42 -5z
m-110 -55 c28 -36 36 -76 17 -92 -20 -17 -18 -32 4 -20 19 10 62 -13 47 -26
-4 -5 -10 -2 -12 5 -5 14 -23 16 -23 2 0 -18 47 -22 77 -6 l28 15 -27 1 c-16
0 -28 5 -28 11 0 8 14 10 41 6 58 -8 69 -1 63 36 -4 26 -1 23 16 -16 11 -27
24 -66 29 -87 8 -34 6 -39 -13 -44 -97 -27 -271 -66 -284 -64 -10 2 -26 43
-48 128 -42 157 -42 167 -6 173 72 11 97 6 119 -22z m148 -31 c-3 -5 -14 -10
-23 -10 -15 0 -15 2 -2 10 20 13 33 13 25 0z m165 -597 c1 -60 5 -128 10 -153
4 -25 8 -46 7 -47 -1 0 -31 -4 -67 -8 -36 -3 -81 -10 -100 -15 -19 -5 -51 -10
-70 -12 l-35 -3 -28 105 c-47 179 -50 162 30 184 37 10 97 26 133 37 36 10 77
18 93 18 l27 1 0 -107z"/>
<path d="M5183 7995 c-8 -22 6 -33 17 -15 13 20 12 30 0 30 -6 0 -13 -7 -17
-15z"/>
<path d="M5327 7390 c-3 -11 -2 -20 3 -20 12 0 21 28 11 35 -5 2 -11 -4 -14
-15z"/>
<path d="M4846 8518 c3 -4 9 -8 15 -8 5 0 9 4 9 8 0 5 -7 9 -15 9 -8 0 -12 -4
-9 -9z"/>
<path d="M4428 8493 c7 -3 16 -2 19 1 4 3 -2 6 -13 5 -11 0 -14 -3 -6 -6z"/>
<path d="M5641 8410 l-1 -85 -32 -15 c-18 -8 -36 -14 -39 -13 -4 1 2 -44 12
-100 10 -55 17 -103 15 -105 -2 -2 -11 32 -21 75 -16 77 -71 203 -88 203 -4 0
-5 5 -2 10 3 6 1 10 -4 10 -6 0 -11 6 -11 13 0 12 -39 67 -40 55 0 -7 23 -61
60 -142 32 -72 97 -272 131 -410 16 -65 39 -138 49 -162 11 -24 20 -48 20 -55
0 -6 18 -49 40 -94 45 -92 65 -180 55 -234 -4 -20 -9 -46 -11 -58 -4 -20 17
-86 75 -243 11 -30 21 -71 21 -90 0 -19 9 -64 20 -98 11 -35 20 -74 20 -86 0
-13 14 -48 30 -79 17 -31 30 -70 30 -86 0 -39 11 -91 19 -91 11 0 6 223 -6
245 -16 30 -61 201 -72 271 -5 33 -26 103 -47 155 -35 89 -38 101 -39 214 -2
103 -6 131 -29 195 -15 41 -39 113 -52 160 -26 87 -40 117 -84 186 -14 21 -33
56 -42 76 l-17 37 38 -27 c66 -47 146 -221 186 -406 30 -138 65 -250 75 -239
3 4 35 45 69 89 59 78 84 95 103 69 5 -6 8 -6 8 1 0 8 13 9 39 4 25 -4 44 -3
51 4 7 7 19 5 39 -7 19 -11 32 -14 36 -7 3 5 17 10 30 10 13 0 25 6 28 13 3 9
9 8 23 -4 14 -13 37 -16 89 -15 50 1 75 -2 88 -13 15 -13 24 -13 60 -2 71 21
110 22 167 5 30 -9 62 -20 70 -25 32 -19 41 -21 58 -13 9 4 22 6 27 5 6 -2 36
-3 67 -3 41 0 62 -5 77 -19 31 -29 49 -23 60 19 6 20 17 46 24 57 20 29 27 65
14 66 -7 0 -2 4 11 9 12 5 24 15 26 22 2 7 7 22 12 33 6 18 8 24 12 48 1 5 15
-1 31 -12 29 -21 61 -28 61 -13 0 5 6 16 13 26 11 16 17 16 34 6 17 -11 24 -9
46 10 14 13 24 26 22 31 -3 4 4 5 15 2 11 -3 23 -9 26 -14 9 -15 28 13 44 59
12 39 12 53 -2 120 -17 78 -11 163 12 186 6 6 10 13 10 17 0 9 -108 29 -168
30 -29 1 -52 6 -52 10 0 5 9 9 20 9 24 0 100 39 100 51 0 15 -22 10 -88 -18
-62 -26 -65 -26 -167 -16 -71 8 -116 8 -142 1 -48 -13 -167 -26 -258 -29 l-70
-2 68 -7 c73 -7 104 -23 67 -35 -21 -7 -21 -8 -4 -26 13 -15 25 -18 50 -13 25
5 36 1 50 -15 10 -12 26 -21 36 -21 10 0 18 -6 18 -14 0 -8 3 -23 6 -33 5 -14
4 -15 -4 -3 -9 12 -14 10 -33 -14 -19 -24 -27 -27 -57 -23 -22 4 -42 1 -58
-10 -19 -12 -27 -13 -39 -3 -11 9 -22 9 -45 1 -22 -7 -38 -7 -56 1 -20 9 -27
9 -34 -2 -6 -9 -21 -11 -55 -7 -27 4 -55 2 -66 -4 -11 -5 -54 -10 -97 -10 -42
0 -81 -4 -87 -9 -6 -5 -31 -10 -55 -12 l-45 -3 0 -57 c0 -31 4 -54 9 -50 5 3
7 -2 3 -11 -4 -10 -1 -17 6 -17 8 0 7 -4 -3 -9 -8 -6 -18 -7 -22 -5 -4 3 -8 1
-8 -5 0 -5 5 -13 10 -16 18 -11 11 -23 -10 -18 -11 3 -20 0 -20 -6 0 -6 7 -11
15 -11 14 0 20 -23 16 -64 -2 -27 -10 -33 -21 -16 -7 11 -11 11 -24 1 -14 -11
-16 -11 -16 5 0 15 -2 16 -9 5 -8 -12 -12 -12 -25 -2 -13 11 -16 11 -16 -3 0
-9 5 -16 10 -16 6 0 10 -4 10 -10 0 -5 -13 -10 -30 -10 -24 0 -30 -4 -30 -22
0 -19 -2 -20 -10 -8 -8 13 -10 12 -10 -2 0 -10 -4 -18 -10 -18 -5 0 -10 2 -10
5 0 7 89 124 127 168 l34 38 -2 101 c-2 100 -3 103 -46 180 -36 64 -42 82 -33
93 7 8 8 15 3 15 -6 0 -18 -17 -27 -38 -19 -41 -124 -126 -218 -174 -62 -33
-84 -35 -93 -9 -6 21 3 51 17 51 5 0 6 5 2 11 -3 6 -17 9 -31 6 -13 -2 -21 -2
-19 1 3 3 -13 14 -35 25 -22 11 -38 25 -36 31 2 6 -5 24 -15 39 -18 26 -20 40
-14 165 3 75 2 155 -3 177 -8 35 -9 29 -10 -45z m-25 -176 c-4 -9 -9 -15 -11
-12 -3 3 -3 13 1 22 4 9 9 15 11 12 3 -3 3 -13 -1 -22z m1452 -51 c-10 -2 -26
-2 -35 0 -10 3 -2 5 17 5 19 0 27 -2 18 -5z m212 -423 c0 -5 -5 -10 -11 -10
-5 0 -7 5 -4 10 3 6 8 10 11 10 2 0 4 -4 4 -10z"/>
<path d="M4220 8461 c0 -28 15 -33 34 -12 18 20 12 31 -16 31 -11 0 -18 -7
-18 -19z"/>
<path d="M4289 8448 c-11 -21 -11 -22 4 -10 9 8 22 10 29 6 10 -6 9 -3 -1 9
-17 22 -18 21 -32 -5z"/>
<path d="M4412 8454 c3 -19 34 -41 43 -32 4 4 4 16 0 27 -8 25 -48 29 -43 5z"/>
<path d="M4369 8429 c-10 -6 -11 -9 -1 -9 7 0 16 -9 20 -20 4 -11 12 -16 19
-12 8 5 6 13 -6 29 -12 15 -22 18 -32 12z"/>
<path d="M4273 8397 c-23 -26 -19 -57 7 -57 13 0 19 9 22 36 5 44 -3 50 -29
21z"/>
<path d="M4342 8393 c2 -33 11 -42 23 -23 3 5 -1 20 -10 32 -15 23 -16 23 -13
-9z"/>
<path d="M4551 8366 c-74 -108 -99 -264 -63 -396 12 -41 33 -129 47 -195 55
-258 68 -315 101 -444 28 -112 31 -136 20 -145 -9 -7 -16 -44 -20 -103 -4 -58
-13 -104 -24 -122 -9 -16 -14 -33 -10 -36 13 -14 83 22 133 67 62 56 93 121
101 210 4 41 14 76 30 100 36 56 33 77 -40 378 -38 154 -68 250 -109 341 -14
32 -42 116 -62 189 -19 72 -43 147 -54 167 l-18 36 -32 -47z"/>
<path d="M6395 8190 c-25 -6 -27 -8 -12 -15 10 -4 16 -13 14 -19 -3 -7 23 -12
82 -13 74 -2 81 0 54 9 -37 12 -41 22 -15 37 13 8 4 10 -38 10 -30 -1 -68 -5
-85 -9z"/>
<path d="M6218 8153 c6 -2 18 -2 25 0 6 3 1 5 -13 5 -14 0 -19 -2 -12 -5z"/>
<path d="M6625 8150 c28 -12 37 -12 30 0 -3 6 -16 10 -28 9 -21 0 -21 -1 -2
-9z"/>
<path d="M6742 8151 c2 -7 7 -12 11 -12 12 1 9 15 -3 20 -7 2 -11 -2 -8 -8z"/>
<path d="M4295 7940 c3 -5 8 -10 11 -10 2 0 4 5 4 10 0 6 -5 10 -11 10 -5 0
-7 -4 -4 -10z"/>
<path d="M6156 7704 c-18 -17 -21 -34 -7 -34 5 0 13 9 16 20 3 11 11 20 16 20
13 0 11 -18 -3 -23 -7 -2 -9 -8 -5 -13 4 -5 12 -2 18 6 8 13 10 13 18 0 6 -8
13 -11 17 -7 7 7 -32 47 -47 47 -4 0 -15 -7 -23 -16z"/>
<path d="M4381 7555 c23 -38 34 -43 42 -21 6 16 -16 40 -26 29 -4 -3 -7 1 -7
10 0 10 -7 17 -15 17 -11 0 -10 -7 6 -35z"/>
<path d="M5736 7294 c-11 -7 -16 -17 -13 -21 4 -4 15 1 24 10 9 9 15 19 12 21
-2 2 -13 -2 -23 -10z"/>
<path d="M7040 7215 c0 -20 -37 -38 -65 -31 -16 4 -27 1 -32 -9 -11 -20 -70
-37 -79 -23 -4 5 -17 6 -33 2 -32 -9 -58 -11 -296 -19 -187 -6 -331 -9 -370
-6 -11 1 -51 -1 -89 -4 -51 -5 -71 -3 -77 7 -6 9 -9 7 -9 -7 -1 -17 -3 -17
-12 5 -19 43 -21 -1 -3 -75 8 -37 20 -123 27 -191 6 -68 15 -124 20 -124 4 0
8 8 9 18 0 11 2 12 6 4 4 -10 8 -10 19 -1 8 6 14 8 14 3 0 -5 20 -9 45 -9 25
0 45 4 45 9 0 5 35 6 83 2 45 -4 116 -9 157 -10 84 -3 117 -11 143 -34 9 -8
17 -11 17 -7 0 5 11 -2 25 -15 14 -13 25 -30 25 -37 0 -8 7 -16 15 -19 9 -4
15 -19 15 -40 0 -24 5 -34 15 -34 8 0 15 5 15 10 0 6 5 10 11 10 5 0 8 -4 4
-9 -3 -5 11 -22 32 -38 42 -32 96 -36 198 -14 83 18 87 21 70 51 -28 49 -28
53 -9 67 10 7 24 11 31 9 7 -3 13 -1 13 4 0 6 -8 10 -17 10 -15 0 -16 2 -3 10
8 5 24 10 36 10 12 0 26 11 34 28 8 15 22 36 32 48 16 18 19 45 23 179 5 157
5 158 -19 180 -14 13 -30 41 -36 64 -10 39 -30 57 -30 26z"/>
<path d="M4540 6910 c-9 -6 -10 -10 -3 -10 6 0 15 5 18 10 8 12 4 12 -15 0z"/>
<path d="M2273 6804 c-8 -21 13 -42 28 -27 13 13 5 43 -11 43 -6 0 -13 -7 -17
-16z"/>
<path d="M2477 6773 c-12 -12 -7 -43 7 -43 9 0 12 8 8 25 -5 27 -6 28 -15 18z"/>
<path d="M1004 6606 c-21 -31 -17 -52 16 -79 45 -38 86 -44 123 -17 23 18 34
20 47 12 13 -8 27 -7 54 2 48 17 53 23 30 44 -45 40 -54 45 -66 34 -30 -23
-56 -23 -86 2 -37 32 -96 33 -118 2z"/>
<path d="M7019 6594 c-8 -10 -8 -14 0 -14 6 0 11 -7 11 -15 0 -8 9 -15 20 -15
25 0 26 14 1 39 -17 17 -21 18 -32 5z"/>
<path d="M4410 6464 c0 -3 5 -14 10 -24 7 -14 21 -19 51 -18 40 0 40 1 23 18
-18 17 -84 36 -84 24z"/>
<path d="M6031 6345 c0 -11 6 -31 14 -45 18 -32 19 -5 0 35 -10 23 -13 25 -14
10z"/>
<path d="M5694 6266 c-4 -9 -4 -20 0 -23 3 -4 12 -1 18 5 9 9 9 15 0 24 -9 9
-13 7 -18 -6z"/>
<path d="M5681 6200 c-19 -16 -20 -21 -8 -26 9 -3 14 -11 11 -18 -2 -6 7 -23
21 -36 l26 -24 6 22 c3 12 9 19 14 16 5 -3 9 1 9 9 0 8 9 22 20 32 11 10 20
21 20 25 0 8 -56 4 -71 -5 -5 -4 -9 1 -9 9 0 21 -10 20 -39 -4z"/>
<path d="M5978 6133 c-10 -2 -18 -11 -18 -20 0 -11 3 -13 13 -5 12 10 17 12
38 12 5 0 7 5 4 10 -6 10 -9 11 -37 3z"/>
<path d="M28 5990 c-26 -20 -28 -27 -28 -90 l0 -69 37 -7 c21 -4 50 -2 68 5
42 15 55 14 55 -4 0 -11 11 -15 40 -15 30 0 48 7 75 31 19 17 35 27 35 23 1
-5 7 9 15 31 19 51 15 59 -35 85 -30 15 -68 22 -138 27 -89 5 -99 4 -124 -17z"/>
<path d="M2930 5913 c-44 -16 -72 -83 -35 -83 8 0 16 -6 16 -12 1 -7 2 -19 3
-26 1 -14 25 -32 42 -32 23 0 34 121 13 147 -12 14 -16 14 -39 6z"/>
<path d="M4515 5879 c56 -11 125 -11 125 1 0 6 -33 10 -82 9 -71 -1 -77 -2
-43 -10z"/>
<path d="M2258 5844 c-9 -9 -10 -76 -2 -98 4 -9 18 -16 33 -16 15 0 31 -4 37
-8 12 -12 86 -32 114 -32 27 0 81 -25 108 -50 27 -25 63 -25 104 0 18 11 39
20 46 20 25 0 65 40 68 67 4 31 -12 63 -30 63 -7 0 -34 9 -60 20 -38 17 -72
21 -193 24 -82 2 -164 7 -183 11 -19 4 -38 3 -42 -1z"/>
<path d="M2811 4831 c-14 -15 -35 -33 -46 -38 -11 -6 -28 -33 -37 -60 -22 -62
-12 -119 34 -191 26 -41 42 -55 72 -64 29 -9 41 -9 43 -1 2 6 12 9 21 6 10 -2
30 0 44 6 l27 10 -3 98 c-4 103 -15 137 -61 187 -14 15 -24 30 -24 34 7 42
-36 50 -70 13z"/>
<path d="M2898 4463 c6 -2 18 -2 25 0 6 3 1 5 -13 5 -14 0 -19 -2 -12 -5z"/>
<path d="M2472 4268 c-58 -10 -62 -13 -52 -50 13 -43 46 -75 82 -80 25 -4 36
1 59 26 19 21 27 39 24 54 -8 50 -39 63 -113 50z"/>
<path d="M7850 3350 c0 -5 9 -10 20 -10 11 0 20 5 20 10 0 6 -9 10 -20 10 -11
0 -20 -4 -20 -10z"/>
<path d="M7798 3313 c7 -3 16 -2 19 1 4 3 -2 6 -13 5 -11 0 -14 -3 -6 -6z"/>
<path d="M760 3250 c0 -5 5 -10 10 -10 6 0 10 5 10 10 0 6 -4 10 -10 10 -5 0
-10 -4 -10 -10z"/>
<path d="M4050 29 c0 -11 4 -18 9 -15 5 4 12 0 14 -6 3 -7 5 -1 4 15 -2 31
-27 38 -27 6z"/>
</g>
</svg>
