<?xml version="1.0" standalone="no"?>
<!DOCTYPE svg PUBLIC "-//W3C//DTD SVG 20010904//EN"
 "http://www.w3.org/TR/2001/REC-SVG-20010904/DTD/svg10.dtd">
<svg version="1.0" xmlns="http://www.w3.org/2000/svg"
 width="828.000000pt" height="799.000000pt" viewBox="0 0 828.000000 799.000000"
 preserveAspectRatio="xMidYMid meet">

<g transform="translate(0.000000,799.000000) scale(0.100000,-0.100000)"
fill="#000000" stroke="none">
<path d="M2986 7975 c10 -8 30 -15 44 -15 53 -1 72 -11 66 -36 -7 -28 18 -34
28 -8 6 16 8 16 24 0 10 -9 30 -16 45 -16 14 0 29 -4 32 -10 4 -6 -5 -8 -22
-5 -15 3 -41 1 -58 -4 l-30 -9 28 -1 c15 -1 27 -5 27 -10 0 -11 -29 -23 -40
-16 -4 3 -10 -2 -14 -10 -3 -8 -12 -12 -21 -9 -10 4 -15 0 -15 -15 0 -12 5
-21 10 -21 6 0 10 -9 10 -21 0 -15 -5 -19 -16 -15 -11 4 -14 1 -9 -13 3 -12 0
-21 -10 -25 -8 -3 -15 -9 -14 -13 5 -28 -3 -35 -14 -13 -16 32 -43 33 -40 3 2
-17 -2 -23 -17 -23 -12 0 -20 -7 -20 -17 -1 -16 -2 -16 -16 2 -13 17 -16 18
-24 5 -5 -8 -10 -19 -10 -24 0 -4 -7 -6 -15 -2 -11 4 -15 -2 -15 -22 0 -16 -5
-33 -12 -40 -9 -9 -9 -15 0 -24 16 -16 15 -58 -2 -58 -7 0 -19 -7 -26 -15 -10
-13 -9 -15 9 -15 11 0 21 -4 21 -10 0 -5 -8 -10 -17 -10 -15 0 -14 -4 6 -19
20 -15 21 -19 7 -24 -18 -7 -22 -33 -6 -39 6 -2 4 -15 -5 -32 -19 -36 -19 -36
5 -36 15 0 20 -7 20 -25 0 -14 -8 -29 -20 -35 -22 -12 -27 -40 -8 -40 6 0 3
-6 -8 -14 -18 -14 -18 -15 -1 -21 21 -9 23 -35 1 -35 -10 0 -14 -6 -10 -17 18
-61 18 -71 -1 -76 -15 -3 -13 -6 10 -15 38 -16 44 -39 18 -64 -17 -15 -22 -29
-20 -59 3 -34 0 -42 -24 -54 -26 -13 -28 -13 -39 11 -9 19 -9 27 2 37 10 9 13
9 17 0 9 -25 19 -12 15 18 -3 22 -7 27 -13 18 -5 -8 -9 -9 -10 -4 -3 19 -6 40
-8 58 -1 22 -46 23 -55 1 -10 -27 -7 -94 5 -94 7 0 9 -11 6 -28 -5 -25 -1 -31
26 -45 21 -10 26 -16 15 -16 -14 -1 -18 -10 -18 -40 0 -22 5 -41 12 -43 10 -4
-21 -59 -43 -78 -3 -3 -9 -17 -12 -31 -7 -28 13 -60 46 -72 16 -6 18 -14 12
-47 -5 -28 -2 -46 8 -61 14 -19 13 -23 -3 -39 -10 -10 -28 -24 -40 -30 l-22
-12 26 -27 c24 -25 25 -29 11 -41 -20 -16 -10 -30 23 -31 24 -2 24 -2 5 -6
-28 -5 -30 -33 -4 -40 11 -3 22 -14 25 -25 3 -15 2 -18 -6 -10 -6 6 -17 8 -24
5 -11 -4 -11 -8 2 -20 11 -12 12 -18 3 -29 -7 -8 -10 -15 -8 -17 44 -25 48
-26 58 -13 13 16 4 27 -15 19 -9 -3 -14 2 -14 17 0 11 4 19 9 16 4 -3 27 4 51
15 28 13 46 17 52 11 11 -11 1 -52 -13 -52 -5 0 -9 -9 -9 -20 0 -11 -6 -20
-14 -20 -13 0 -13 -4 0 -27 7 -16 14 -34 14 -40 0 -7 3 -13 8 -13 16 0 31 -41
26 -70 -6 -28 -34 -44 -34 -19 0 6 -7 3 -16 -5 -11 -12 -13 -20 -5 -33 10 -17
10 -17 11 0 0 10 5 15 10 12 6 -3 10 -15 10 -26 0 -19 1 -19 16 -5 8 9 20 16
25 16 15 0 10 -18 -7 -28 -21 -12 0 -29 41 -34 17 -2 30 -9 30 -17 0 -8 9 -17
20 -22 19 -7 19 -8 -2 -8 -18 -1 -23 -7 -23 -26 0 -14 7 -28 15 -31 15 -6 45
17 45 35 0 14 17 14 26 0 4 -7 -1 -16 -10 -21 -18 -10 -13 -28 10 -28 8 0 14
9 14 20 0 11 5 20 11 20 8 0 8 4 0 14 -10 12 -9 20 5 41 23 35 37 27 48 -29 5
-29 15 -50 27 -57 15 -7 19 -6 19 6 0 8 5 15 10 15 12 0 14 -196 3 -203 -5 -2
-2 -2 5 -1 19 5 21 -144 1 -157 -6 -3 -3 -11 6 -19 17 -14 21 -60 5 -60 -5 0
-10 -6 -10 -14 0 -7 -7 -19 -16 -27 -10 -8 -13 -21 -9 -36 5 -23 -8 -32 -20
-13 -11 18 -26 0 -16 -18 6 -11 6 -24 0 -35 -7 -11 -7 -17 0 -17 11 0 3 -137
-10 -160 -7 -13 -8 -12 -9 2 0 9 -7 21 -16 26 -10 6 -15 17 -12 29 4 16 -1 19
-26 21 -40 2 -69 -14 -43 -24 14 -5 15 -9 6 -20 -6 -8 -18 -14 -26 -14 -8 0
-11 -4 -8 -10 3 -5 -3 -10 -13 -10 -11 0 -22 7 -26 15 -8 22 -19 18 -32 -9 -9
-19 -8 -28 1 -38 17 -18 29 -88 15 -88 -5 0 -10 -12 -10 -26 0 -20 4 -24 18
-20 14 5 17 1 16 -21 0 -19 -6 -27 -21 -28 -16 -1 -19 3 -16 19 4 17 3 18 -6
6 -9 -13 -12 -12 -17 7 -3 12 -12 24 -19 27 -14 5 -9 -30 6 -40 16 -10 9 -22
-16 -26 -14 -3 -25 -1 -25 4 0 5 -10 4 -21 -3 -16 -8 -18 -13 -9 -19 7 -4 16
-26 20 -49 7 -39 6 -41 -16 -41 -22 0 -24 5 -25 48 -1 39 -2 42 -8 17 -8 -39
-41 -48 -41 -11 0 28 -27 66 -47 66 -21 0 -15 28 9 44 18 13 19 16 5 16 -30 0
-32 -1 -29 -16 2 -8 -2 -14 -8 -14 -17 0 -77 -64 -72 -78 2 -7 -9 -15 -27 -18
-35 -7 -41 -23 -10 -31 14 -4 18 -10 13 -22 -4 -9 -9 -28 -12 -43 -2 -16 -11
-28 -18 -28 -8 0 -14 -4 -14 -10 0 -5 5 -10 10 -10 6 0 10 -5 10 -11 0 -8 -4
-8 -14 0 -10 9 -16 9 -21 1 -4 -6 -14 -8 -23 -6 -14 5 -17 -2 -19 -31 -3 -64
-21 -60 -25 6 -1 34 0 61 5 61 10 0 9 28 -3 35 -5 3 -20 1 -32 -6 -16 -9 -23
-9 -26 0 -2 6 -10 11 -17 11 -17 0 -24 38 -12 67 5 12 7 29 4 37 -8 20 -37 21
-37 1 0 -9 6 -12 15 -9 10 4 15 0 15 -10 0 -12 -7 -16 -27 -14 -22 2 -28 -1
-27 -14 1 -10 -2 -18 -7 -18 -5 0 -9 -6 -9 -14 0 -8 -5 -16 -10 -18 -6 -2 -13
-21 -16 -43 -8 -55 -23 -83 -48 -87 -11 -2 -22 -11 -24 -22 -3 -15 1 -18 22
-14 26 5 37 -14 16 -27 -6 -4 -8 -15 -5 -26 6 -19 -5 -22 -92 -23 -13 0 -23
-6 -23 -13 0 -6 -4 -14 -10 -18 -12 -7 -60 5 -60 16 0 5 7 6 15 3 9 -4 15 0
15 10 0 9 -7 16 -15 16 -8 0 -25 11 -37 25 -12 14 -25 25 -29 25 -4 0 -14 -17
-22 -37 -14 -34 -16 -36 -18 -13 -1 14 -3 30 -4 35 -2 6 -4 15 -5 20 -1 6 -7
-7 -13 -28 -13 -40 -32 -47 -32 -11 0 25 -31 59 -40 44 -4 -6 -1 -17 5 -25 7
-8 9 -15 5 -15 -4 0 -2 -6 4 -14 17 -20 3 -66 -20 -66 -14 0 -19 -7 -19 -26 0
-22 -2 -25 -15 -14 -8 7 -15 9 -15 4 0 -5 -11 4 -25 19 -14 15 -34 26 -43 26
-15 -1 -15 -2 1 -6 15 -4 14 -8 -10 -34 -22 -23 -36 -29 -71 -29 -40 0 -79
-14 -93 -33 -4 -5 -16 -3 -27 4 -15 10 -18 17 -11 25 6 7 16 11 23 8 8 -3 16
2 20 11 4 12 13 15 30 11 19 -5 28 0 44 26 16 25 18 36 10 46 -9 10 -5 19 15
38 25 23 29 53 5 38 -6 -4 -13 -1 -17 5 -5 8 -15 5 -34 -9 -31 -25 -33 -34
-12 -74 19 -35 19 -33 -6 -39 -15 -4 -23 1 -31 19 -8 18 -14 21 -19 12 -6 -10
-12 -8 -23 7 -8 11 -18 16 -22 12 -10 -10 11 -43 25 -40 6 2 11 -4 11 -12 0
-8 -9 -15 -20 -15 -11 0 -23 -7 -26 -15 -4 -8 -11 -12 -17 -8 -6 4 -8 -2 -4
-16 4 -17 2 -21 -9 -17 -8 3 -17 -1 -20 -8 -5 -14 -64 -20 -64 -7 0 3 -4 12
-9 20 -7 11 -13 10 -36 -5 -22 -15 -28 -15 -35 -3 -5 7 -17 14 -27 14 -13 0
-17 8 -16 38 0 20 -4 40 -8 43 -5 3 -9 -3 -9 -14 0 -15 -5 -18 -25 -14 -14 2
-25 8 -25 13 0 5 -7 9 -15 9 -8 0 -15 5 -15 10 0 6 -5 10 -10 10 -7 0 -6 -6 1
-17 8 -13 7 -26 -1 -48 -7 -16 -14 -24 -17 -17 -7 19 -23 14 -23 -8 0 -11 -7
-20 -15 -20 -8 0 -15 -4 -15 -10 0 -5 -7 -10 -15 -10 -8 0 -15 5 -15 10 0 15
-50 12 -51 -2 0 -7 -4 -3 -9 10 -5 12 -18 25 -27 28 -10 3 -27 10 -37 16 -15
8 -21 6 -28 -7 -9 -15 -12 -15 -34 6 -40 37 -31 46 44 44 37 -1 59 0 50 3 -27
5 -22 31 7 38 14 3 30 14 35 23 9 13 10 13 9 1 -3 -30 1 -42 13 -38 14 5 23
98 9 98 -5 0 -11 -6 -14 -14 -4 -9 -14 -12 -26 -9 -12 3 -21 1 -21 -5 0 -6
-13 -23 -29 -39 l-29 -29 6 40 c4 28 2 37 -7 32 -6 -4 -10 -15 -9 -24 4 -24
-33 -28 -50 -6 -13 17 -14 16 -9 -13 4 -18 2 -35 -3 -38 -6 -3 -10 3 -10 14 0
16 -6 21 -24 21 -14 0 -28 5 -31 10 -3 6 -13 10 -22 10 -13 0 -13 -2 -2 -16
12 -15 11 -16 -9 -10 -22 7 -22 6 -10 -14 11 -18 10 -23 -6 -35 -16 -12 -17
-17 -6 -30 10 -12 9 -16 -4 -21 -9 -3 -23 -4 -31 -1 -8 4 -17 2 -20 -3 -10
-17 -33 -11 -61 14 -58 53 -62 54 -73 43 -8 -8 -11 -8 -11 1 0 15 -34 16 -61
2 -12 -7 -19 -7 -19 -1 0 6 -12 22 -27 37 -23 23 -25 28 -11 38 18 14 38 50
38 70 0 23 -39 20 -64 -4 -12 -10 -38 -20 -59 -22 -32 -2 -37 -6 -38 -28 -1
-14 -1 -31 1 -39 5 -36 -11 -61 -37 -61 -33 0 -20 -17 17 -22 23 -3 22 -5 -17
-26 -33 -17 -43 -28 -43 -47 0 -14 -4 -25 -10 -25 -5 0 -10 -9 -10 -20 0 -13
-7 -20 -20 -20 -16 0 -20 7 -20 30 0 17 -4 30 -10 30 -5 0 -10 -5 -10 -11 0
-5 -5 -7 -10 -4 -6 4 -4 12 5 21 8 9 15 22 15 30 0 19 -29 18 -36 -1 -4 -8
-18 -15 -33 -14 -26 0 -26 0 -3 10 29 11 21 25 -18 34 -17 4 -30 13 -30 21 0
8 -7 14 -15 14 -8 0 -19 15 -24 33 l-9 32 -1 -42 c-1 -35 2 -43 17 -43 16 -1
16 -1 -1 -11 -16 -9 -17 -122 -17 -2144 l0 -2135 1819 0 1819 0 -5 21 c-6 20
-10 21 -75 15 l-68 -7 -6 31 c-8 39 -19 45 -46 26 -31 -22 -54 -20 -75 8 -19
23 -20 23 -31 5 -10 -15 -9 -17 6 -12 35 11 -44 -47 -85 -63 -54 -21 -91 -8
-134 46 -23 29 -35 36 -54 32 -14 -2 -35 2 -48 11 -20 13 -26 13 -42 1 -28
-21 -50 -17 -85 16 -36 33 -45 37 -36 15 3 -10 -5 -20 -25 -30 -28 -15 -31
-15 -52 9 l-22 25 -41 -34 c-99 -81 -188 -38 -186 90 1 44 25 105 41 105 4 0
6 11 3 25 -2 14 -9 25 -14 25 -6 0 -8 6 -5 13 22 53 23 51 -7 32 -38 -25 -46
-9 -11 20 27 23 28 26 12 35 -28 17 -20 32 12 25 24 -5 32 -2 41 14 13 25 55
30 46 6 -4 -12 0 -14 22 -9 15 4 36 11 47 17 11 5 17 6 13 2 -4 -4 4 -16 17
-27 14 -11 25 -27 25 -36 0 -10 8 -2 17 16 13 26 14 38 4 58 -18 39 -13 49 12
26 20 -19 28 -20 57 -12 19 6 35 10 36 10 1 0 7 -13 14 -30 14 -34 16 -35 61
-16 32 13 35 13 56 -10 18 -20 26 -22 48 -14 28 11 65 -5 65 -27 0 -17 15 -17
32 0 7 7 32 19 54 26 38 12 45 12 74 -5 17 -11 41 -34 52 -52 l20 -33 15 21
c22 31 116 69 98 40 -3 -5 -1 -10 4 -10 6 0 11 -7 11 -15 0 -14 3 -14 23 -1
46 29 61 28 77 -7 8 -17 13 -38 12 -44 -2 -7 2 -13 8 -13 5 0 10 -7 10 -15 0
-8 5 -15 10 -15 6 0 10 6 10 13 0 13 53 69 64 68 3 0 21 6 41 14 19 9 38 14
42 13 5 0 21 4 36 10 35 15 91 16 82 2 -3 -5 -1 -10 4 -10 6 0 11 -4 11 -9 0
-5 -17 -7 -38 -4 -25 3 -50 -1 -71 -11 -17 -9 -36 -14 -41 -11 -6 3 -18 1 -27
-4 -17 -10 -16 -11 2 -12 26 -2 25 -2 59 7 21 5 27 4 22 -5 -7 -10 4 -15 20
-8 4 1 11 -8 15 -21 5 -14 13 -20 20 -16 7 4 10 3 6 -2 -3 -5 1 -31 7 -59 7
-27 13 -70 12 -96 -1 -39 2 -46 14 -39 8 4 21 5 28 3 10 -4 9 -11 -4 -31 -15
-23 -15 -26 0 -37 9 -7 16 -20 16 -29 0 -17 -25 -22 -35 -6 -11 18 -23 11 -34
-20 l-10 -30 2135 0 2134 0 0 3194 c0 3181 0 3195 20 3201 11 3 24 3 30 0 7
-4 10 -1063 10 -3201 l0 -3194 30 0 30 0 0 3464 c0 3287 -1 3465 -18 3469 -14
4 -14 5 -1 6 11 1 17 10 17 26 0 19 -6 25 -22 25 -21 1 -21 1 -2 15 17 13 18
15 3 15 -9 0 -17 5 -17 11 0 6 -14 24 -31 41 -23 24 -27 33 -17 39 9 6 4 9
-14 9 -30 0 -36 17 -18 50 8 15 5 24 -17 45 -15 14 -36 25 -45 25 -23 0 -23
20 0 21 10 0 12 3 5 6 -7 2 -13 21 -13 41 0 21 -5 44 -11 52 -9 12 -10 12 -5
-4 5 -14 2 -17 -11 -12 -9 4 -20 1 -24 -6 -7 -10 -11 -10 -21 0 -9 9 -9 12 1
12 7 0 10 4 6 9 -3 5 4 16 15 24 18 12 18 16 6 26 -8 7 -23 11 -33 10 -22 -3
-73 17 -73 28 0 5 7 17 15 27 20 27 19 36 -5 36 -11 0 -20 -7 -20 -16 0 -8 -4
-12 -10 -9 -6 4 -5 13 2 25 18 29 -4 70 -39 71 l-28 1 30 7 c28 6 29 7 7 13
-13 4 -22 12 -21 20 4 18 -23 58 -38 58 -7 0 -13 5 -13 10 0 6 -7 10 -16 10
-8 0 -13 4 -10 9 3 5 16 7 29 4 l22 -6 -24 22 c-13 11 -28 21 -34 21 -5 0 -3
7 4 17 13 14 11 16 -12 11 -25 -4 -27 -3 -24 30 3 27 -2 40 -26 63 -23 22 -28
33 -20 43 11 13 -3 36 -24 36 -5 0 -3 -4 5 -10 8 -5 11 -12 7 -16 -4 -4 -15 0
-25 9 -14 14 -14 21 -4 37 12 20 7 20 -928 20 -517 0 -940 -3 -940 -6 0 -3 19
-40 41 -82 91 -168 188 -360 205 -402 10 -25 24 -51 31 -58 7 -7 13 -23 13
-35 l0 -21 -15 21 c-10 14 -22 19 -35 16 -16 -4 -19 -2 -13 13 5 14 3 16 -11
11 -11 -4 -29 1 -46 13 -15 11 -35 20 -43 20 -9 0 -22 6 -30 14 -7 8 -48 20
-91 26 -42 7 -79 17 -82 21 -3 5 -15 9 -28 9 -25 0 -107 37 -117 53 -4 5 -23
7 -42 4 -25 -4 -37 -1 -41 9 -3 8 -16 14 -30 14 -13 0 -27 6 -29 13 -4 9 -8 9
-16 -3 -8 -12 -14 -10 -37 13 -20 20 -30 24 -40 16 -14 -11 -54 -3 -54 11 0 4
-12 7 -27 5 -16 -2 -33 1 -40 7 -7 5 -17 7 -22 4 -5 -4 -17 4 -25 16 -13 19
-19 20 -40 10 -22 -10 -27 -8 -40 9 -10 15 -23 20 -49 18 -19 -2 -42 2 -50 9
-8 7 -41 17 -73 23 -33 6 -72 13 -89 16 -16 3 -32 9 -35 12 -3 3 -15 12 -27
19 -27 15 -56 17 -33 2 9 -6 10 -10 3 -10 -6 0 -15 5 -18 10 -3 6 -24 10 -46
10 -36 0 -93 20 -161 56 -14 8 -33 14 -43 14 -9 0 -58 18 -110 40 l-94 40
-652 0 c-576 0 -651 -2 -633 -15z m209 -115 c3 -5 1 -10 -4 -10 -6 0 -11 5
-11 10 0 6 2 10 4 10 3 0 8 -4 11 -10z m324 -36 c3 -5 13 -10 21 -12 21 -4
196 -70 248 -93 24 -11 69 -29 100 -41 58 -21 136 -54 205 -89 22 -10 45 -19
53 -19 8 0 14 -4 14 -10 0 -5 5 -10 11 -10 12 0 348 -166 419 -207 175 -100
235 -136 238 -144 2 -5 8 -9 12 -9 15 0 130 -71 216 -132 45 -32 85 -58 90
-58 5 0 29 -16 53 -35 24 -19 47 -35 51 -35 3 0 15 -8 26 -17 10 -10 37 -30
59 -45 89 -61 93 -66 100 -153 3 -44 8 -100 11 -125 13 -144 14 -168 2 -178
-7 -6 -62 -13 -123 -17 -236 -13 -411 -25 -685 -44 -157 -11 -375 -24 -485
-30 -110 -6 -265 -16 -345 -22 -80 -6 -167 -9 -195 -7 l-50 3 -1 40 c-2 47
-30 346 -44 460 -6 44 -17 168 -25 275 -9 107 -22 249 -30 315 -8 66 -17 140
-19 165 -3 25 -12 95 -21 155 -18 120 -18 116 -16 129 1 11 101 2 110 -10z
m1641 -124 c0 -5 -4 -10 -10 -10 -5 0 -10 5 -10 10 0 6 5 10 10 10 6 0 10 -4
10 -10z m2758 -159 c3 -8 -1 -12 -9 -9 -7 2 -15 10 -17 17 -3 8 1 12 9 9 7 -2
15 -10 17 -17z m112 -145 c0 -2 -9 -6 -20 -9 -11 -3 -18 -1 -14 4 5 9 34 13
34 5z m40 -116 c0 -5 -5 -10 -11 -10 -5 0 -7 5 -4 10 3 6 8 10 11 10 2 0 4 -4
4 -10z m70 -84 c0 -2 -7 -7 -16 -10 -8 -3 -12 -2 -9 4 6 10 25 14 25 6z m87
-172 c-3 -3 -12 -4 -19 -1 -8 3 -5 6 6 6 11 1 17 -2 13 -5z m-5373 -213 c3 -5
-1 -11 -9 -15 -10 -3 -15 -19 -15 -46 0 -29 -4 -40 -15 -40 -12 0 -15 13 -15
55 0 52 1 55 24 55 14 0 27 -4 30 -9z m2736 -137 c131 -104 177 -144 216 -181
18 -18 37 -33 43 -33 5 0 11 -9 14 -19 4 -17 -1 -19 -37 -19 -22 1 -102 -2
-178 -6 l-136 -8 -7 69 c-3 37 -10 98 -16 135 -11 80 -12 138 -1 138 4 -1 50
-35 102 -76z m-2740 6 c0 -5 -9 -10 -20 -10 -11 0 -20 5 -20 10 0 6 9 10 20
10 11 0 20 -4 20 -10z m-50 -30 c0 -11 -4 -20 -10 -20 -5 0 -10 9 -10 20 0 11
5 20 10 20 6 0 10 -9 10 -20z m-42 -99 c-15 -5 -19 4 -11 24 6 18 7 18 13 -1
4 -10 3 -21 -2 -23z m92 -47 c0 -8 -5 -12 -10 -9 -6 4 -8 11 -5 16 9 14 15 11
15 -7z m-30 -59 c0 -21 5 -25 30 -25 30 0 30 0 30 -57 l0 -58 -19 29 c-11 16
-17 35 -14 42 3 8 0 14 -7 14 -17 0 -36 22 -44 53 -5 20 -3 27 9 27 9 0 15 -9
15 -25z m3186 -140 c41 -40 75 -70 77 -68 2 1 10 -8 17 -22 7 -14 19 -25 27
-25 7 0 13 -6 13 -14 0 -7 12 -21 26 -31 15 -9 40 -33 58 -53 17 -20 60 -69
96 -107 36 -39 91 -100 122 -135 32 -36 66 -74 75 -85 10 -11 33 -40 52 -65
19 -25 45 -55 57 -66 13 -12 20 -24 18 -27 -3 -3 20 -31 50 -63 31 -33 56 -64
56 -71 0 -6 14 -27 30 -45 17 -18 30 -38 30 -45 0 -7 7 -13 15 -13 8 0 15 -6
15 -13 0 -7 9 -23 20 -35 22 -23 26 -42 10 -42 -6 0 -5 -6 2 -14 9 -10 15 -10
20 -3 8 13 8 13 36 -35 18 -32 19 -38 5 -38 -13 0 -13 -3 -3 -15 7 -8 19 -14
28 -13 8 2 19 -5 26 -15 9 -14 8 -21 -6 -30 -9 -7 -15 -24 -13 -37 1 -14 0
-17 -2 -7 -2 9 -10 17 -18 17 -7 0 -16 6 -18 13 -9 20 -25 -12 -19 -37 3 -14
1 -18 -6 -11 -5 6 -12 19 -15 30 -3 11 -5 4 -6 -17 -1 -34 -4 -38 -26 -38 -14
0 -25 5 -25 11 0 6 9 8 20 4 17 -6 20 -2 20 29 0 34 2 36 40 42 22 4 40 10 40
14 0 15 -33 20 -48 8 -16 -14 -61 -12 -76 3 -18 17 -26 9 -27 -28 l-1 -38 -12
40 c-10 32 -18 41 -38 43 -31 4 -46 -27 -28 -55 8 -15 9 -13 4 11 -6 26 -5 27
15 17 26 -15 27 -32 1 -54 -11 -9 -20 -23 -20 -31 0 -8 -6 -16 -12 -19 -7 -2
-9 -8 -5 -13 4 -5 12 -2 16 5 7 11 13 9 32 -8 23 -21 23 -22 5 -52 -19 -31
-15 -52 6 -31 18 18 38 14 38 -7 0 -14 -5 -18 -20 -14 -22 6 -23 3 -14 -21 5
-14 9 -14 21 -4 13 10 15 9 12 -7 -2 -10 -15 -22 -28 -25 -26 -6 -50 -35 -38
-46 4 -4 15 0 24 8 10 8 26 18 37 22 14 5 17 2 12 -10 -3 -8 -6 -19 -6 -24 0
-5 -18 -11 -40 -15 -52 -9 -54 -32 -2 -27 32 3 39 0 49 -22 6 -14 7 -26 2 -26
-5 0 -9 5 -9 10 0 6 -14 10 -32 10 -29 0 -30 -1 -14 -13 20 -14 18 -54 -2 -49
-7 1 -12 -5 -12 -13 0 -9 6 -12 15 -9 8 4 15 1 15 -4 0 -6 8 -18 18 -28 14
-15 17 -35 16 -116 l-2 -98 37 -1 c20 -1 50 -5 66 -10 20 -5 11 -6 -27 -2 -62
6 -76 -6 -28 -24 20 -7 30 -8 33 0 2 7 15 7 42 0 38 -10 38 -11 10 -12 -16 -1
-37 -5 -44 -10 -12 -8 -9 -11 11 -16 14 -4 34 -6 44 -5 32 4 40 0 24 -11 -11
-7 -3 -8 28 -4 27 5 42 3 42 -4 0 -10 -7 -12 -52 -15 -10 -1 -17 -5 -15 -11 1
-5 9 -8 18 -7 12 2 16 -5 15 -28 -1 -24 -5 -30 -24 -30 -22 0 -26 18 -7 32 6
4 2 8 -7 8 -10 0 -18 -6 -19 -12 -1 -7 -2 -22 -3 -33 -1 -13 -11 -21 -36 -26
-19 -4 -39 -4 -44 1 -5 5 -18 4 -30 -1 -29 -14 -78 4 -70 26 3 8 2 15 -3 15
-12 0 -44 -39 -39 -48 2 -4 -12 -7 -32 -6 -20 0 -40 -3 -43 -9 -4 -5 -53 -10
-110 -11 -57 0 -110 -5 -116 -9 -7 -4 -61 -10 -120 -13 -149 -7 -255 -12 -343
-19 -41 -3 -95 -7 -120 -9 -25 -2 -61 -7 -81 -11 l-37 -7 -6 49 c-3 26 -8 84
-12 128 -3 44 -12 141 -20 215 -8 74 -25 241 -39 370 -13 129 -31 327 -40 440
-20 273 -33 425 -51 605 -8 83 -21 217 -29 299 -16 154 -13 175 23 174 28 -1
266 13 269 16 2 1 28 3 59 3 l56 0 74 -72z m-541 37 c6 -4 11 -20 12 -37 9
-165 25 -363 33 -420 5 -38 14 -128 20 -200 13 -157 46 -498 60 -615 5 -47 14
-148 20 -225 12 -165 27 -343 40 -475 18 -177 22 -306 9 -293 -8 8 -19 9 -37
2 -14 -5 -44 -10 -66 -9 -65 0 -218 -9 -256 -16 -19 -3 -57 -8 -85 -10 -27 -2
-69 -6 -91 -9 -67 -9 -96 42 -58 100 13 20 15 38 9 89 -6 61 -9 66 -52 103
-25 21 -51 43 -58 50 -7 7 -15 9 -19 6 -3 -3 -11 7 -18 23 -7 16 -20 29 -28
29 -10 0 -14 9 -13 27 1 16 -3 27 -10 25 -15 -3 -28 75 -15 91 10 11 4 16 -14
13 -11 -1 -29 37 -26 52 2 7 -10 26 -27 42 -21 19 -26 29 -17 33 14 4 -12 24
-50 38 -10 3 -18 15 -18 25 0 12 -5 16 -15 13 -8 -4 -15 -1 -15 5 0 6 9 11 20
11 11 0 20 7 20 15 0 18 -12 19 -27 4 -8 -8 -15 -5 -24 12 -18 35 -39 54 -40
37 0 -10 -2 -10 -6 0 -2 6 -11 12 -19 12 -8 0 -14 7 -14 15 0 23 -140 85 -191
85 -46 0 -129 19 -129 30 0 3 -19 7 -42 8 -23 1 -45 7 -49 13 -4 6 -12 8 -18
5 -6 -4 -11 -2 -11 3 0 6 -7 11 -16 11 -11 0 -13 6 -9 19 5 16 2 18 -16 14
-14 -4 -20 -2 -16 4 4 6 0 14 -9 17 -26 10 -44 7 -44 -7 0 -17 -54 -57 -78
-57 -10 0 -23 -5 -30 -12 -8 -8 -15 -8 -27 2 -11 9 -22 10 -38 3 -12 -5 -63
-11 -114 -12 -108 -2 -100 -13 -108 139 -6 103 -10 176 -20 315 -2 39 -7 113
-10 165 -3 52 -10 151 -16 220 -5 69 -12 161 -14 205 -3 44 -7 96 -10 116 -3
23 0 41 8 47 12 10 75 17 247 27 52 3 131 7 175 10 203 11 315 18 370 20 33 2
105 6 160 9 55 3 226 13 380 21 154 9 285 18 290 20 19 7 250 5 260 -3z
m-2484 -29 c12 -15 12 -16 -3 -10 -10 3 -18 2 -18 -3 0 -6 -7 -10 -15 -10 -20
0 -19 17 3 29 9 6 18 11 18 11 1 0 8 -8 15 -17z m-121 -128 c0 -8 -9 -15 -20
-15 -11 0 -20 7 -20 15 0 8 9 15 20 15 11 0 20 -7 20 -15z m97 -121 c-3 -3
-12 -4 -19 -1 -8 3 -5 6 6 6 11 1 17 -2 13 -5z m5 -76 c-8 -8 -9 -4 -5 13 4
13 8 18 11 10 2 -7 -1 -18 -6 -23z m-2 -74 c0 -8 -5 -12 -10 -9 -6 4 -8 11 -5
16 9 14 15 11 15 -7z m34 -69 c4 -10 -1 -15 -14 -15 -20 0 -26 11 -13 23 10
11 20 8 27 -8z m129 -23 c-7 -27 -19 -28 -26 -3 -3 13 1 21 12 24 21 4 21 5
14 -21z m94 -64 c-3 -8 -6 -5 -6 6 -1 11 2 17 5 13 3 -3 4 -12 1 -19z m34
-555 c-9 -15 -10 -13 -11 13 0 17 3 34 8 38 11 12 14 -32 3 -51z m-14 -55 c-3
-8 -6 -5 -6 6 -1 11 2 17 5 13 3 -3 4 -12 1 -19z m3613 -59 c0 -11 -4 -17 -10
-14 -5 3 -10 13 -10 21 0 8 5 14 10 14 6 0 10 -9 10 -21z m150 0 c0 -11 -4
-17 -10 -14 -5 3 -10 13 -10 21 0 8 5 14 10 14 6 0 10 -9 10 -21z m48 -44 c5
-7 4 -16 -4 -23 -13 -12 -16 -6 -30 53 l-5 20 15 -20 c8 -11 19 -25 24 -30z
m-243 -5 c3 -5 1 -10 -4 -10 -6 0 -11 5 -11 10 0 6 2 10 4 10 3 0 8 -4 11 -10z
m199 -6 c3 -8 2 -12 -4 -9 -6 3 -10 10 -10 16 0 14 7 11 14 -7z m88 -56 c37
-43 37 -62 2 -46 -15 7 -21 14 -15 16 8 3 8 9 0 23 -11 22 -34 15 -25 -7 3 -8
1 -14 -4 -14 -6 0 -10 2 -10 4 0 2 -3 12 -7 22 -4 12 -3 15 5 10 7 -4 12 -1
12 8 0 24 12 19 42 -16z m-242 12 c0 -5 -4 -10 -10 -10 -5 0 -10 5 -10 10 0 6
5 10 10 10 6 0 10 -4 10 -10z m70 -65 c0 -8 -4 -15 -10 -15 -5 0 -10 7 -10 15
0 8 5 15 10 15 6 0 10 -7 10 -15z m223 -38 c20 -22 38 -57 29 -57 -5 0 -14 12
-20 26 -9 19 -17 24 -32 19 -11 -4 -20 -2 -20 3 0 9 12 17 28 21 2 1 9 -5 15
-12z m-63 -7 c0 -5 -4 -10 -10 -10 -5 0 -10 5 -10 10 0 6 5 10 10 10 6 0 10
-4 10 -10z m-190 -4 c0 -3 -4 -8 -10 -11 -5 -3 -10 -1 -10 4 0 6 5 11 10 11 6
0 10 -2 10 -4z m-50 -16 c0 -5 -4 -10 -9 -10 -6 0 -13 5 -16 10 -3 6 1 10 9
10 9 0 16 -4 16 -10z m232 -22 c-7 -7 -12 -8 -12 -2 0 14 12 26 19 19 2 -3 -1
-11 -7 -17z m-69 -38 c16 -19 16 -20 -3 -20 -11 0 -20 2 -20 4 0 2 -3 11 -6
20 -9 22 8 20 29 -4z m64 -6 c-3 -3 -12 -4 -19 -1 -8 3 -5 6 6 6 11 1 17 -2
13 -5z m167 -50 c8 -21 8 -21 -9 -28 -11 -4 -15 1 -15 19 0 28 15 33 24 9z
m-4500 -66 c14 -9 1 -22 -13 -13 -6 3 -11 16 -10 28 0 15 2 17 6 7 3 -8 11
-18 17 -22z m4366 22 c0 -5 -2 -10 -4 -10 -3 0 -8 5 -11 10 -3 6 -1 10 4 10 6
0 11 -4 11 -10z m-260 -20 c-25 -4 -34 -10 -32 -22 1 -9 -2 -19 -8 -23 -10 -6
-15 47 -5 56 2 3 21 3 42 0 l38 -5 -35 -6z m-3873 -62 c-16 -9 -27 0 -21 17 5
11 9 12 19 2 9 -8 10 -14 2 -19z m4118 22 c3 -5 -1 -10 -9 -10 -9 0 -16 5 -16
10 0 6 4 10 9 10 6 0 13 -4 16 -10z m-175 -31 c0 -10 -7 -19 -15 -19 -9 0 -15
9 -15 25 0 18 4 23 15 19 8 -4 15 -15 15 -25z m-4522 -1 c-5 -32 -28 -35 -28
-4 0 17 5 26 16 26 10 0 14 -7 12 -22z m4469 -106 l-4 -37 -1 43 c-1 23 -7 42
-13 42 -5 0 -7 5 -3 11 12 20 26 -18 21 -59z m-4457 38 c0 -5 -4 -10 -10 -10
-5 0 -10 5 -10 10 0 6 5 10 10 10 6 0 10 -4 10 -10z m4530 -40 c0 -5 -7 -10
-15 -10 -8 0 -15 5 -15 10 0 6 7 10 15 10 8 0 15 -4 15 -10z m-4370 -27 c0 -5
-5 -15 -10 -23 -9 -13 -11 -13 -19 0 -5 8 -7 18 -5 22 6 10 34 11 34 1z
m-2090 -13 c0 -5 -7 -10 -15 -10 -8 0 -15 5 -15 10 0 6 7 10 15 10 8 0 15 -4
15 -10z m6500 0 c0 -5 -2 -10 -4 -10 -3 0 -8 5 -11 10 -3 6 -1 10 4 10 6 0 11
-4 11 -10z m-70 -41 c0 -5 -4 -9 -10 -9 -5 0 -10 7 -10 16 0 8 5 12 10 9 6 -3
10 -10 10 -16z m110 -64 c0 -8 -4 -15 -9 -15 -13 0 -22 16 -14 24 11 11 23 6
23 -9z m280 11 c0 -11 -19 -15 -25 -6 -3 5 1 10 9 10 9 0 16 -2 16 -4z m-5100
-46 c0 -5 -4 -10 -10 -10 -5 0 -10 5 -10 10 0 6 5 10 10 10 6 0 10 -4 10 -10z
m-50 -20 c0 -11 -59 -6 -64 5 -2 7 9 9 30 7 19 -2 34 -8 34 -12z m5067 -12
c-3 -8 -6 -5 -6 6 -1 11 2 17 5 13 3 -3 4 -12 1 -19z m-5127 -18 c0 5 9 10 21
10 14 0 19 -5 17 -17 -2 -13 -15 -18 -43 -21 -55 -4 -74 4 -49 22 13 10 24 11
36 5 12 -6 18 -6 18 1z m4960 -23 c0 -20 5 -23 33 -21 17 1 22 -1 9 -3 -12 -2
-20 -9 -17 -14 7 -11 -16 -12 -30 -1 -13 9 -17 62 -4 62 5 0 9 -10 9 -23z
m100 13 c0 -5 -4 -10 -10 -10 -5 0 -10 5 -10 10 0 6 5 10 10 10 6 0 10 -4 10
-10z m-4983 -22 c-3 -8 -6 -5 -6 6 -1 11 2 17 5 13 3 -3 4 -12 1 -19z m5044
-21 c-13 -13 -26 -3 -16 12 3 6 11 8 17 5 6 -4 6 -10 -1 -17z m49 13 c-8 -5
-19 -10 -25 -10 -5 0 -3 5 5 10 8 5 20 10 25 10 6 0 3 -5 -5 -10z m-5511 -22
c-1 -17 -2 -19 -6 -5 -6 21 -23 23 -23 1 0 -8 -4 -12 -10 -9 -20 12 -10 35 15
35 20 0 25 -5 24 -22z m141 7 c0 -8 -4 -15 -10 -15 -5 0 -10 7 -10 15 0 8 5
15 10 15 6 0 10 -7 10 -15z m2240 -19 c0 -3 -4 -8 -10 -11 -5 -3 -10 -1 -10 4
0 6 5 11 10 11 6 0 10 -2 10 -4z m-450 -81 c0 -9 4 -13 10 -10 6 3 7 -1 4 -9
-4 -11 0 -16 13 -16 25 0 33 -8 26 -26 -6 -17 -60 -19 -66 -1 -2 6 -3 4 -2 -5
2 -9 -10 -31 -26 -49 -24 -27 -30 -29 -35 -16 -3 9 -10 14 -15 11 -21 -12 -7
32 17 57 20 20 28 42 32 78 l4 51 19 -24 c11 -13 19 -32 19 -41z m-1490 41 c0
-2 -7 -7 -16 -10 -8 -3 -12 -2 -9 4 6 10 25 14 25 6z m1271 -16 c21 6 31 4 41
-7 7 -9 26 -24 42 -34 l29 -18 -31 -28 c-35 -30 -41 -60 -14 -70 29 -11 82
-57 82 -71 0 -10 9 -12 33 -7 39 9 39 9 31 28 -3 9 -12 13 -20 10 -10 -4 -14
2 -14 20 0 33 34 46 59 23 36 -33 126 -9 157 41 10 15 19 30 21 32 1 2 23 -4
48 -13 44 -17 46 -17 82 4 25 15 38 18 43 10 4 -6 29 -17 56 -24 l49 -13 -29
-12 c-16 -7 -50 -11 -75 -10 -105 5 -149 -65 -152 -241 0 -48 -16 -118 -18
-81 -1 9 -5 10 -13 5 -32 -23 -90 4 -108 50 -7 20 -17 36 -21 36 -4 0 -14 12
-21 27 -10 21 -27 30 -77 44 -36 10 -67 22 -70 26 -16 21 -170 66 -158 45 4
-5 -3 -13 -16 -16 -20 -7 -19 -9 17 -24 30 -14 36 -20 25 -29 -18 -13 -50 -23
-96 -29 -20 -3 -40 -7 -44 -10 -5 -3 -9 1 -10 8 0 9 -2 9 -6 -2 -9 -22 -33
-43 -41 -36 -3 4 0 11 7 16 8 5 12 17 8 30 -4 16 2 26 26 41 18 10 45 19 61
19 21 0 27 4 22 16 -3 8 -2 12 4 9 17 -11 11 7 -7 22 -10 7 -13 13 -8 12 24
-3 45 2 45 11 0 6 -16 10 -35 10 -25 0 -37 -6 -46 -21 -9 -17 -8 -23 2 -30 11
-7 11 -9 -1 -9 -9 0 -32 -8 -52 -19 -36 -18 -36 -18 -43 3 -11 37 -10 77 3 88
6 6 12 22 12 37 0 15 4 31 9 37 5 5 11 18 13 28 2 12 13 20 30 22 15 1 40 16
55 32 26 26 30 28 57 16 18 -7 40 -9 57 -4z m3814 -30 c-28 -12 -37 -12 -30 0
3 6 16 10 28 9 21 0 21 -1 2 -9z m-6525 -4 c0 -3 -4 -8 -10 -11 -5 -3 -10 -1
-10 4 0 6 5 11 10 11 6 0 10 -2 10 -4z m6260 -6 c-30 -5 -36 -7 -17 -8 15 -1
26 -5 25 -9 -4 -14 13 -53 23 -53 5 0 9 -10 8 -22 l0 -23 -9 23 c-5 12 -11 22
-14 22 -17 0 -36 -15 -36 -27 0 -10 -7 -14 -20 -10 -11 3 -23 1 -26 -4 -3 -5
2 -9 10 -9 9 0 16 -7 16 -15 0 -11 -11 -15 -40 -15 -42 0 -50 9 -25 30 10 8
15 30 15 60 0 44 3 49 28 58 15 6 45 10 67 10 l40 -1 -45 -7z m209 6 c-2 -3
-38 -7 -79 -10 -41 -2 -76 -5 -77 -5 -1 -1 0 -8 3 -16 7 -17 -11 -21 -21 -4
-14 22 30 38 104 39 41 0 72 -2 70 -4z m-373 -17 c5 -8 9 -7 14 1 4 7 15 10
23 7 19 -7 27 -100 10 -116 -17 -15 -26 -14 -20 4 4 8 1 17 -5 21 -15 9 -28
-17 -18 -36 11 -21 -4 -45 -23 -37 -9 3 -17 1 -19 -4 -2 -6 -11 -7 -21 -3 -14
5 -15 9 -6 20 9 11 8 18 -1 29 -13 15 -42 21 -37 8 1 -5 -2 -10 -8 -13 -5 -3
-11 10 -13 28 -4 35 -22 45 -22 12 0 -21 -16 -28 -22 -10 -2 7 -15 7 -38 0
-53 -15 -72 -13 -66 8 6 20 -9 50 -21 39 -4 -5 -1 -12 7 -18 13 -8 13 -10 0
-19 -20 -13 -25 -13 -40 5 -8 9 -21 13 -36 9 -17 -4 -24 -2 -24 9 0 10 -8 13
-27 9 -23 -4 -24 -6 -9 -17 13 -10 14 -14 3 -18 -9 -3 -19 4 -25 18 -18 40 11
46 293 61 66 4 122 8 124 10 8 7 20 4 27 -7z m337 -6 c-7 -2 -19 -2 -25 0 -7
3 -2 5 12 5 14 0 19 -2 13 -5z m-3213 -13 c0 -5 -4 -10 -10 -10 -5 0 -10 5
-10 10 0 6 5 10 10 10 6 0 10 -4 10 -10z m3237 -6 c-3 -3 -12 -4 -19 -1 -8 3
-5 6 6 6 11 1 17 -2 13 -5z m-948 -32 c0 -10 -3 -12 -5 -5 -3 7 -12 9 -20 6
-8 -3 -14 -1 -14 5 0 12 21 21 33 15 4 -2 7 -12 6 -21z m876 -3 c4 -11 4 -23
1 -26 -3 -4 -6 1 -6 10 0 10 -7 17 -15 17 -8 0 -15 5 -15 10 0 19 29 10 35
-11z m-1965 -60 c0 -5 -9 -9 -20 -9 -11 0 -20 -6 -20 -12 0 -9 -2 -10 -8 -2
-4 6 -18 15 -31 19 -14 4 -19 10 -13 14 15 9 92 1 92 -10z m86 3 c-11 -11 -19
-11 -47 1 l-34 15 47 -2 c39 -1 45 -3 34 -14z m61 12 c-3 -3 -12 -4 -19 -1 -8
3 -5 6 6 6 11 1 17 -2 13 -5z m1346 -9 c4 -8 2 -17 -3 -20 -6 -4 -10 3 -10 14
0 25 6 27 13 6z m-2633 -9 c0 -6 -14 -25 -30 -43 -17 -18 -30 -37 -30 -43 0
-6 -5 -8 -12 -4 -8 5 -9 2 -5 -9 3 -10 2 -17 -3 -17 -20 0 -15 88 6 111 16 18
74 22 74 5z m2994 -2 c23 -9 20 -24 -4 -24 -11 0 -20 7 -20 15 0 17 2 18 24 9z
m-2629 -41 c-5 -15 -4 -16 6 -5 19 18 34 15 18 -5 -10 -11 -10 -14 -1 -9 18
11 14 -5 -5 -19 -33 -25 -61 13 -31 43 17 17 21 15 13 -5z m2491 -20 c-11 -11
-19 6 -11 24 8 17 8 17 12 0 3 -10 2 -21 -1 -24z m64 26 c0 -14 -26 -40 -33
-32 -8 8 11 43 23 43 6 0 10 -5 10 -11z m-3890 -34 c30 -32 32 -124 3 -164
-30 -40 -33 -66 -12 -80 11 -6 19 -20 19 -30 0 -25 17 -36 33 -23 7 6 21 42
32 81 19 72 40 99 28 39 -3 -18 -6 -35 -6 -38 -1 -12 25 -120 29 -120 3 0 2
26 -2 59 -4 36 -2 72 5 94 11 32 14 34 36 23 13 -6 29 -21 34 -33 6 -12 22
-30 36 -39 23 -15 26 -23 22 -53 -3 -20 -3 -28 0 -18 6 22 36 17 98 -15 47
-25 125 -29 174 -8 30 12 31 15 15 21 -16 6 -15 8 8 8 15 1 30 -3 33 -9 3 -5
13 -10 21 -10 9 0 12 5 8 12 -4 7 -3 8 5 4 8 -6 10 0 5 18 -9 36 2 33 15 -4 5
-17 6 -28 2 -25 -5 3 -12 -2 -15 -10 -3 -9 -17 -20 -31 -25 -27 -10 -33 -38
-13 -58 16 -16 -18 -51 -78 -82 -40 -20 -57 -22 -124 -17 -90 6 -127 22 -187
83 -24 24 -43 40 -43 36 0 -4 24 -31 54 -59 55 -52 106 -85 129 -82 28 3 140
-1 135 -6 -3 -3 -27 -8 -53 -10 -27 -3 -51 -7 -53 -10 -9 -9 116 -5 141 4 13
5 60 45 104 88 64 62 82 87 92 125 11 40 17 47 43 50 18 3 37 -1 48 -11 17
-15 17 -21 -11 -141 -19 -85 -29 -153 -29 -212 0 -99 -10 -128 -50 -151 -43
-26 -76 -21 -108 14 -25 28 -32 31 -65 25 -20 -4 -37 -10 -37 -14 0 -20 34
-52 54 -52 46 0 84 -21 95 -51 5 -16 16 -29 23 -29 23 0 59 -46 51 -66 -4 -12
-3 -15 5 -10 19 11 14 -9 -5 -26 -28 -24 -63 -28 -101 -12 -19 7 -62 14 -97
14 -34 0 -87 5 -117 11 -45 9 -63 9 -87 -2 -17 -8 -31 -17 -31 -20 0 -4 -6 -9
-14 -12 -14 -6 -60 54 -61 78 0 6 -4 15 -8 22 -4 6 -2 13 4 15 7 2 9 13 4 27
-4 12 -12 20 -19 18 -7 -3 -13 1 -13 9 0 8 4 14 9 14 4 0 8 7 8 15 0 9 -6 12
-15 9 -11 -4 -15 1 -16 17 -1 13 -2 31 -3 39 -1 8 -4 20 -9 27 -4 6 -4 18 -1
27 3 9 1 16 -5 16 -6 0 -11 6 -11 14 0 8 -7 16 -15 20 -8 3 -15 16 -15 30 0
14 -4 28 -10 31 -5 3 -10 17 -10 31 0 15 -6 24 -16 24 -8 0 -12 5 -9 11 4 6 1
9 -6 7 -14 -3 -19 3 -19 22 0 6 5 9 11 8 6 -2 15 7 20 20 5 14 5 22 -2 22 -6
0 -9 7 -5 15 3 8 -2 18 -11 23 -11 6 -12 11 -4 16 13 9 14 55 1 76 -8 13 -10
12 -10 -2 0 -10 -4 -18 -9 -18 -6 0 -9 -34 -9 -75 1 -41 -1 -78 -5 -81 -4 -4
-2 -12 3 -19 12 -15 -17 -58 -35 -51 -8 3 -19 -2 -25 -10 -17 -20 -30 -18 -30
6 0 10 -4 29 -9 42 -36 96 -63 229 -50 250 6 8 9 1 9 -19 0 -52 20 -38 22 15
0 26 2 84 3 130 2 71 6 87 25 107 15 16 21 32 18 49 -4 22 -1 26 17 26 12 0
32 -11 45 -25z m3780 5 c0 -5 8 -10 17 -10 13 0 14 -3 6 -11 -9 -9 -16 -8 -27
4 -18 18 -20 27 -6 27 6 0 10 -4 10 -10z m170 6 c0 -11 -19 -15 -25 -6 -3 5 1
10 9 10 9 0 16 -2 16 -4z m-36 -32 c9 -24 7 -27 -9 -10 -17 17 -19 26 -6 26 5
0 12 -7 15 -16z m52 -21 c-10 -10 -19 5 -10 18 6 11 8 11 12 0 2 -7 1 -15 -2
-18z m-2443 -17 c7 3 3 -2 -7 -10 -24 -19 -30 -15 -20 16 6 19 9 20 12 5 2 -9
9 -15 15 -11z m-1409 -61 c-4 -8 -10 -15 -15 -15 -4 0 -6 7 -3 15 4 8 10 15
15 15 4 0 6 -7 3 -15z m350 -5 c34 -13 33 -25 -4 -40 -51 -21 -106 14 -62 39
22 13 34 13 66 1z m1196 -20 c0 -5 -5 -10 -11 -10 -5 0 -7 5 -4 10 3 6 8 10
11 10 2 0 4 -4 4 -10z m-1240 -100 c0 -5 -5 -10 -11 -10 -8 0 -8 -5 1 -15 7
-8 19 -15 26 -15 8 0 14 -4 14 -9 0 -15 -64 -6 -93 14 -33 21 -22 44 12 25 17
-9 22 -8 27 5 7 17 24 21 24 5z m1040 -133 c0 -9 -12 -14 -32 -15 -37 -1 -51
5 -43 19 10 15 75 11 75 -4z m-562 -584 c1 -2 21 -3 45 -3 59 0 102 -14 251
-77 95 -41 146 -57 191 -61 59 -4 64 -3 80 22 39 59 25 99 -66 186 -19 19 -45
56 -58 82 -22 47 -25 48 -105 73 -90 27 -133 30 -219 14 -70 -12 -90 -7 -106
28 -17 36 8 68 85 111 131 72 152 75 296 41 99 -23 128 -43 128 -88 0 -63 11
-91 36 -91 17 0 28 -8 34 -25 5 -14 17 -25 25 -25 9 0 13 -4 10 -10 -3 -5 1
-10 9 -10 19 0 38 -33 30 -53 -3 -8 0 -18 6 -22 7 -4 8 -11 1 -18 -6 -8 -5
-18 4 -31 13 -17 14 -15 21 18 l6 36 22 -22 c12 -13 43 -42 69 -66 26 -24 47
-50 47 -58 0 -7 4 -14 8 -14 5 0 8 -36 6 -79 -2 -65 0 -79 12 -74 20 8 17 -15
-6 -44 -11 -14 -20 -21 -20 -16 0 13 -74 33 -88 24 -5 -3 -19 -21 -30 -40 -16
-26 -18 -39 -11 -59 8 -21 6 -32 -12 -56 -21 -28 -22 -31 -6 -59 23 -38 22
-44 -10 -59 -20 -10 -28 -21 -28 -41 -1 -17 -14 -40 -35 -62 l-34 -35 37 -31
c31 -25 35 -34 27 -50 -6 -10 -16 -19 -24 -19 -13 0 -126 -102 -126 -114 0 -4
-12 -18 -27 -32 -23 -20 -35 -23 -68 -19 -21 3 -44 10 -51 16 -13 11 -164 8
-164 -3 0 -5 -7 -8 -15 -8 -8 0 -14 6 -12 13 1 8 -10 12 -33 12 -23 0 -34 -4
-33 -12 3 -13 0 -14 -77 -17 -137 -5 -148 -6 -146 -18 1 -14 -5 -18 -30 -18
-11 0 -14 5 -10 16 5 13 1 15 -19 10 -24 -6 -25 -4 -25 34 0 22 -5 40 -11 40
-6 0 -9 -18 -8 -47 3 -37 0 -48 -11 -48 -16 0 -16 2 -20 63 -1 20 -4 31 -7 24
-5 -13 -23 -7 -23 9 0 14 97 11 104 -3 3 -7 3 -2 0 11 -4 15 -2 21 4 17 6 -3
13 -2 17 4 4 6 10 8 14 5 5 -2 17 5 27 16 28 31 68 49 108 49 19 0 57 7 83 16
31 11 78 17 133 16 107 -1 151 9 194 44 38 32 38 52 2 92 -27 30 -55 41 -119
48 -29 3 -79 10 -112 17 -33 6 -119 9 -192 8 l-132 -3 -7 26 c-8 33 18 106 44
122 10 6 58 24 107 39 104 31 122 29 299 -31 108 -37 138 -41 154 -21 26 31
-4 65 -63 73 -73 9 -159 26 -215 43 -36 10 -103 27 -150 36 -151 30 -160 32
-180 50 -23 20 -25 47 -9 96 16 47 42 67 100 75 l49 7 2 221 c1 121 2 230 3
241 1 11 4 36 6 55 2 19 6 -86 9 -235 3 -148 7 -271 8 -272z m833 521 c8 4 3
-2 -10 -13 -28 -25 -36 -22 -26 10 5 15 9 18 15 9 4 -7 14 -9 21 -6z m-1358
-614 c5 -18 3 -19 -11 -8 -9 7 -19 13 -21 15 -1 1 0 7 4 12 9 15 21 6 28 -19z
m143 -35 c16 -8 37 -15 47 -15 9 0 17 -5 17 -11 0 -12 -60 -5 -69 9 -3 5 -15
14 -26 20 -30 17 -2 14 31 -3z m-56 -9 c0 -3 -4 -8 -10 -11 -5 -3 -10 -1 -10
4 0 6 5 11 10 11 6 0 10 -2 10 -4z m-85 -126 c22 -6 65 -12 95 -13 97 -6 158
-51 116 -86 -8 -7 -44 -14 -80 -16 -37 -3 -75 -9 -86 -15 -10 -5 -35 -10 -55
-10 -32 0 -36 2 -30 21 6 18 4 20 -13 15 -42 -14 -53 71 -14 102 19 14 16 14
67 2z m312 -576 c-3 -3 -12 -4 -19 -1 -8 3 -5 6 6 6 11 1 17 -2 13 -5z m-307
-93 c0 -6 9 -11 20 -11 13 0 20 -7 20 -19 0 -10 9 -21 20 -24 11 -3 20 -12 20
-21 0 -19 15 -20 59 -5 20 7 31 18 31 30 0 10 7 19 15 19 16 0 31 -43 20 -59
-3 -6 1 -11 9 -11 16 0 21 22 17 68 -2 27 10 28 29 2 9 -13 18 -16 26 -9 14
12 44 1 44 -15 0 -15 30 -17 47 -4 9 7 14 2 19 -16 3 -14 10 -26 16 -26 5 0 7
3 5 8 -8 12 85 7 116 -6 16 -7 33 -12 38 -12 5 0 9 -4 9 -9 0 -13 -41 -21 -69
-14 -16 4 -22 2 -17 -5 4 -6 -3 -9 -19 -7 -14 1 -25 -2 -25 -8 0 -5 -9 -7 -19
-4 -13 3 -18 0 -15 -8 3 -7 -9 -19 -28 -28 -42 -19 -118 -32 -118 -20 0 12
-114 4 -118 -8 -5 -13 -150 -11 -157 1 -4 6 -14 8 -24 5 -11 -3 -25 4 -39 20
-12 14 -19 25 -17 25 3 0 1 9 -5 20 -9 16 -8 20 5 20 17 0 21 40 4 57 -7 7 -6
14 4 24 7 8 14 31 15 52 1 21 4 42 7 47 6 10 55 -32 55 -49z m204 8 c-3 -5
-10 -7 -15 -3 -5 3 -7 10 -3 15 3 5 10 7 15 3 5 -3 7 -10 3 -15z m463 5 c-3
-3 -12 -4 -19 -1 -8 3 -5 6 6 6 11 1 17 -2 13 -5z m1022 -221 c5 -10 13 -15
17 -11 7 8 64 -22 64 -33 0 -4 8 -9 19 -12 21 -5 32 -50 36 -144 2 -65 -3 -74
-25 -48 -7 9 -15 13 -18 11 -2 -3 -10 0 -18 7 -32 29 -44 37 -53 37 -5 0 -26
29 -46 65 -20 36 -40 65 -45 65 -14 0 -12 54 2 68 18 18 56 15 67 -5z m31
-238 c25 -25 48 -45 52 -45 5 0 8 -7 8 -16 0 -13 8 -15 35 -12 19 2 35 0 35
-4 0 -5 12 -13 27 -19 19 -7 23 -13 15 -18 -9 -6 -7 -12 8 -26 11 -10 20 -24
20 -32 0 -8 5 -11 11 -8 6 4 9 1 8 -6 -2 -14 11 -51 37 -101 8 -14 14 -33 14
-41 0 -8 7 -20 15 -27 10 -9 13 -26 10 -64 -2 -28 -1 -45 1 -38 7 16 24 15 24
-2 0 -7 7 -19 15 -26 9 -8 13 -21 9 -32 -3 -12 1 -27 12 -39 18 -20 24 -96 8
-107 -11 -9 -17 -102 -6 -102 14 0 11 -38 -4 -44 -9 -3 -12 -11 -9 -17 4 -6
13 -8 20 -5 21 8 25 -5 9 -30 -18 -26 -11 -61 15 -81 15 -12 14 -14 -2 -24
-14 -8 -16 -14 -6 -25 8 -10 8 -14 0 -14 -6 0 -11 -7 -11 -16 0 -9 -7 -14 -17
-12 -10 2 -23 -3 -29 -11 -6 -8 -16 -11 -24 -6 -10 6 -9 9 1 16 7 4 10 11 6
15 -4 4 -15 0 -25 -9 -24 -22 -34 -21 -30 1 3 9 -4 40 -15 67 -10 28 -18 52
-18 55 1 3 -3 6 -9 6 -5 1 -14 2 -20 3 -16 2 -12 21 5 21 8 0 15 5 15 11 0 7
-10 9 -25 5 -20 -5 -25 -3 -25 13 0 10 -7 24 -15 31 -9 7 -14 19 -11 27 6 15
-13 63 -24 63 -11 0 -33 58 -26 69 4 5 2 12 -3 15 -5 4 -8 18 -5 31 3 16 0 25
-8 25 -20 0 -40 55 -36 102 3 39 1 43 -19 41 -18 -2 -23 2 -23 21 0 13 -7 29
-15 36 -8 7 -15 28 -15 46 0 37 -21 114 -31 114 -3 0 -6 16 -7 35 -1 19 -11
55 -22 81 -12 25 -19 48 -16 52 3 3 0 12 -6 20 -10 11 -9 16 5 23 9 5 14 16
11 24 -4 10 0 15 14 15 12 0 24 5 27 10 10 16 17 12 65 -35z m-1143 -1048 c12
-12 40 -40 62 -62 23 -22 41 -45 41 -51 0 -13 -30 -41 -30 -28 0 5 -5 2 -10
-6 -9 -13 -15 -10 -39 17 -31 33 -65 56 -73 47 -3 -3 3 -21 13 -42 21 -41 24
-78 9 -117 -9 -23 -6 -30 20 -57 26 -25 30 -37 30 -83 0 -45 -4 -56 -21 -65
-31 -17 -34 -6 -8 29 18 25 21 36 13 63 -6 21 -20 38 -38 46 -22 11 -26 18
-21 35 4 12 9 45 12 74 4 41 1 57 -14 80 -16 22 -18 34 -11 56 5 15 15 27 21
27 7 1 0 8 -15 16 -27 14 -35 33 -21 48 12 11 56 -4 80 -27z m1573 6 c2 -58
13 -122 19 -119 13 8 27 -9 44 -52 20 -49 21 -62 7 -62 -17 0 -50 39 -50 60 0
11 -7 20 -15 20 -26 0 -37 39 -30 106 4 35 10 64 15 64 5 0 9 -8 10 -17z m50
-83 c0 -5 -2 -10 -4 -10 -3 0 -8 5 -11 10 -3 6 -1 10 4 10 6 0 11 -4 11 -10z
m-3124 -85 c-9 -9 -16 -13 -16 -8 0 12 22 34 28 28 2 -2 -3 -11 -12 -20z m44
-26 c0 -24 -23 -21 -28 4 -2 10 3 17 12 17 10 0 16 -9 16 -21z m-44 -69 c8 -7
14 -17 14 -23 0 -5 -9 0 -20 13 -12 14 -19 36 -18 54 l1 31 4 -32 c2 -17 11
-37 19 -43z m-5 -91 c-5 -26 -9 -34 -10 -19 -1 27 9 73 15 67 2 -2 0 -23 -5
-48z m13 -65 c3 -8 2 -12 -4 -9 -6 3 -10 10 -10 16 0 14 7 11 14 -7z m96 -40
c34 3 59 2 55 -2 -4 -4 -16 -8 -28 -9 -12 -1 -33 -5 -47 -8 -18 -5 -32 -1 -46
12 -11 10 -15 14 -8 10 7 -4 40 -6 74 -3z"/>
<path d="M6573 5423 c9 -2 23 -2 30 0 6 3 -1 5 -18 5 -16 0 -22 -2 -12 -5z"/>
<path d="M6660 5414 c0 -9 5 -14 12 -12 18 6 21 28 4 28 -9 0 -16 -7 -16 -16z"/>
<path d="M6722 5410 c0 -14 2 -19 5 -12 2 6 2 18 0 25 -3 6 -5 1 -5 -13z"/>
<path d="M6710 5360 c0 -11 4 -20 9 -20 5 0 7 9 4 20 -3 11 -7 20 -9 20 -2 0
-4 -9 -4 -20z"/>
<path d="M6744 5369 c-3 -5 9 -9 25 -9 17 0 31 2 31 4 0 8 -51 13 -56 5z"/>
<path d="M6560 5350 c0 -19 3 -21 12 -12 9 9 9 15 0 24 -9 9 -12 7 -12 -12z"/>
<path d="M6721 5314 c0 -11 3 -14 6 -6 3 7 2 16 -1 19 -3 4 -6 -2 -5 -13z"/>
<path d="M6795 5320 c-3 -5 -1 -10 4 -10 6 0 11 5 11 10 0 6 -2 10 -4 10 -3 0
-8 -4 -11 -10z"/>
<path d="M6820 5285 c-7 -8 -15 -13 -19 -11 -4 3 -13 0 -21 -5 -13 -9 -13 -10
0 -8 32 3 42 -1 36 -16 -4 -11 2 -15 25 -15 19 0 28 -4 23 -11 -3 -6 -19 -9
-35 -5 -16 3 -29 1 -29 -4 0 -6 18 -10 40 -10 33 0 40 3 40 19 0 11 -9 23 -21
26 -16 5 -20 13 -16 31 5 27 -5 31 -23 9z"/>
<path d="M6739 5224 c21 -15 24 -15 39 0 15 15 13 16 -23 16 -39 0 -39 0 -16
-16z"/>
<path d="M6830 5183 c8 -4 21 -15 30 -25 13 -17 17 -17 35 -4 20 14 19 15 -8
25 -16 6 -38 11 -50 10 -15 0 -17 -2 -7 -6z"/>
<path d="M6660 5121 c0 -5 7 -11 14 -14 10 -4 13 -1 9 9 -6 15 -23 19 -23 5z"/>
<path d="M6603 5103 c9 -2 23 -2 30 0 6 3 -1 5 -18 5 -16 0 -22 -2 -12 -5z"/>
<path d="M6640 4987 c0 -9 -4 -17 -10 -17 -5 0 -10 -4 -10 -10 0 -5 4 -10 9
-10 12 0 25 39 17 47 -3 4 -6 -1 -6 -10z"/>
<path d="M6680 4880 l-45 -7 48 -1 c26 -1 47 3 47 8 0 6 -1 9 -2 8 -2 0 -23
-4 -48 -8z"/>
<path d="M6683 4750 c0 -25 2 -35 4 -22 2 12 2 32 0 45 -2 12 -4 2 -4 -23z"/>
<path d="M6640 4699 c0 -5 5 -7 10 -4 6 3 10 8 10 11 0 2 -4 4 -10 4 -5 0 -10
-5 -10 -11z"/>
<path d="M6700 4701 c0 -17 15 -19 28 -5 11 12 9 14 -8 14 -11 0 -20 -4 -20
-9z"/>
<path d="M6645 4660 c-3 -5 -2 -10 4 -10 5 0 16 -3 25 -6 11 -4 16 -1 16 10 0
18 -35 22 -45 6z"/>
<path d="M6640 4621 c0 -5 14 -11 31 -15 51 -10 57 -6 14 9 -48 17 -45 17 -45
6z"/>
<path d="M6675 4565 c22 -8 41 -15 43 -15 1 0 2 -5 2 -11 0 -6 -8 -9 -17 -6
-10 3 -29 9 -43 12 -21 5 -22 5 -7 -5 21 -13 22 -43 2 -63 -13 -13 -13 -16 0
-27 23 -19 18 -30 -20 -46 -19 -8 -35 -19 -35 -25 0 -7 7 -8 18 -4 9 4 28 10
41 13 20 4 23 2 18 -12 -5 -13 -1 -19 12 -23 11 -3 22 -12 24 -22 6 -22 0 26
-8 67 -4 20 -2 32 4 32 6 0 11 9 11 20 0 17 7 20 40 20 l40 0 0 40 c0 38 -2
40 -29 40 -16 0 -31 4 -33 9 -1 4 -25 11 -53 15 l-50 6 40 -15z m105 -45 c13
-9 13 -11 0 -20 -24 -16 -40 -12 -40 10 0 22 16 26 40 10z m-63 -26 c-3 -3
-12 -4 -19 -1 -8 3 -5 6 6 6 11 1 17 -2 13 -5z"/>
<path d="M6560 4420 c0 -5 7 -10 16 -10 8 0 12 5 9 10 -3 6 -10 10 -16 10 -5
0 -9 -4 -9 -10z"/>
<path d="M6720 4401 c0 -21 5 -31 16 -31 11 0 14 8 12 27 -4 39 -28 42 -28 4z"/>
<path d="M6800 4330 c0 -11 7 -20 15 -20 8 0 15 6 15 14 0 8 -7 16 -15 20 -10
4 -15 -1 -15 -14z"/>
<path d="M6631 4323 c-1 -16 5 -23 17 -23 10 0 13 3 6 8 -6 4 -14 14 -17 22
-4 10 -6 8 -6 -7z"/>
<path d="M6900 4300 c0 -5 5 -10 10 -10 6 0 10 5 10 10 0 6 -4 10 -10 10 -5 0
-10 -4 -10 -10z"/>
<path d="M6472 4255 c0 -16 2 -22 5 -12 2 9 2 23 0 30 -3 6 -5 -1 -5 -18z"/>
<path d="M6800 4270 c0 -5 14 -7 33 -3 45 8 47 13 4 13 -20 0 -37 -4 -37 -10z"/>
<path d="M6916 4262 c-16 -18 -13 -52 4 -52 8 0 23 60 17 67 -2 2 -11 -5 -21
-15z"/>
<path d="M6630 4260 c0 -5 12 -10 28 -10 21 0 24 2 12 10 -20 13 -40 13 -40 0z"/>
<path d="M6775 4240 c-3 -5 1 -10 10 -10 9 0 14 -4 10 -9 -3 -5 -1 -12 5 -16
11 -7 13 5 4 29 -7 18 -20 21 -29 6z"/>
<path d="M6845 4220 c4 -6 11 -8 16 -5 14 9 11 15 -7 15 -8 0 -12 -5 -9 -10z"/>
<path d="M6690 4195 c0 -9 6 -12 15 -9 8 4 15 10 15 15 0 5 -7 9 -15 9 -8 0
-15 -7 -15 -15z"/>
<path d="M6930 4071 c0 -11 5 -23 10 -26 6 -3 10 0 10 7 0 10 3 9 10 -2 5 -8
12 -11 16 -8 10 11 -4 40 -16 33 -5 -3 -10 -1 -10 4 0 6 -4 11 -10 11 -5 0
-10 -9 -10 -19z"/>
<path d="M6872 4060 c0 -14 2 -19 5 -12 2 6 2 18 0 25 -3 6 -5 1 -5 -13z"/>
<path d="M6748 4063 c6 -2 18 -2 25 0 6 3 1 5 -13 5 -14 0 -19 -2 -12 -5z"/>
<path d="M3055 3580 c3 -5 8 -10 11 -10 2 0 4 5 4 10 0 6 -5 10 -11 10 -5 0
-7 -4 -4 -10z"/>
<path d="M3280 3549 c0 -5 5 -7 10 -4 6 3 10 8 10 11 0 2 -4 4 -10 4 -5 0 -10
-5 -10 -11z"/>
<path d="M2941 3530 c-1 -21 16 -46 26 -37 4 5 3 11 -3 15 -6 4 -14 14 -17 22
-5 13 -5 13 -6 0z"/>
<path d="M3015 3370 c-3 -5 -1 -10 4 -10 6 0 11 5 11 10 0 6 -2 10 -4 10 -3 0
-8 -4 -11 -10z"/>
<path d="M5250 1460 c0 -5 7 -10 16 -10 8 0 12 5 9 10 -3 6 -10 10 -16 10 -5
0 -9 -4 -9 -10z"/>
<path d="M2760 7420 c0 -5 7 -7 15 -4 8 4 15 8 15 10 0 2 -7 4 -15 4 -8 0 -15
-4 -15 -10z"/>
<path d="M2756 7295 c-3 -8 -3 -21 0 -29 3 -8 1 -17 -5 -21 -6 -3 -11 -17 -11
-30 0 -12 -7 -26 -16 -29 -12 -5 -14 -14 -9 -38 4 -18 12 -36 17 -39 5 -3 12
-17 16 -30 5 -20 12 -24 28 -20 18 5 20 10 13 29 -5 13 -17 22 -29 22 -11 0
-20 7 -20 15 0 11 5 12 26 5 14 -6 32 -10 40 -10 22 0 17 28 -7 35 -23 8 -20
31 5 27 17 -3 20 6 10 32 -3 8 -12 12 -20 9 -13 -5 -20 24 -15 64 2 18 -16 25
-23 8z"/>
<path d="M8160 7149 c0 -5 5 -7 10 -4 6 3 10 8 10 11 0 2 -4 4 -10 4 -5 0 -10
-5 -10 -11z"/>
<path d="M2505 6880 c-4 -6 5 -10 20 -10 15 0 24 4 20 10 -3 6 -12 10 -20 10
-8 0 -17 -4 -20 -10z"/>
<path d="M2495 6851 c-7 -12 31 -25 45 -16 6 4 8 11 5 16 -8 12 -42 12 -50 0z"/>
<path d="M2658 6796 c-27 -20 -22 -26 22 -26 41 0 49 7 28 28 -15 15 -29 15
-50 -2z"/>
<path d="M2528 6793 c6 -2 18 -2 25 0 6 3 1 5 -13 5 -14 0 -19 -2 -12 -5z"/>
<path d="M2683 6655 c-8 -22 6 -33 17 -15 13 20 12 30 0 30 -6 0 -13 -7 -17
-15z"/>
<path d="M2525 6480 c-3 -5 1 -10 10 -10 9 0 13 5 10 10 -3 6 -8 10 -10 10 -2
0 -7 -4 -10 -10z"/>
<path d="M2598 6463 c7 -3 16 -2 19 1 4 3 -2 6 -13 5 -11 0 -14 -3 -6 -6z"/>
<path d="M2730 6401 c0 -5 7 -14 15 -21 16 -14 18 -10 9 14 -6 17 -24 22 -24
7z"/>
<path d="M2237 6300 c3 -11 7 -20 9 -20 2 0 4 9 4 20 0 11 -4 20 -9 20 -5 0
-7 -9 -4 -20z"/>
<path d="M2873 6124 c-6 -13 -8 -26 -3 -29 4 -3 11 7 14 21 9 35 4 39 -11 8z"/>
<path d="M2820 6030 c0 -5 5 -10 10 -10 6 0 10 5 10 10 0 6 -4 10 -10 10 -5 0
-10 -4 -10 -10z"/>
<path d="M2865 6000 c-3 -5 -1 -10 4 -10 6 0 11 5 11 10 0 6 -2 10 -4 10 -3 0
-8 -4 -11 -10z"/>
<path d="M2881 5954 c0 -11 3 -14 6 -6 3 7 2 16 -1 19 -3 4 -6 -2 -5 -13z"/>
<path d="M2895 5740 c4 -6 11 -8 16 -5 5 4 12 -1 15 -9 9 -23 24 -20 24 4 0
16 -7 20 -31 20 -18 0 -28 -4 -24 -10z"/>
<path d="M3135 5690 c3 -5 8 -10 11 -10 2 0 4 5 4 10 0 6 -5 10 -11 10 -5 0
-7 -4 -4 -10z"/>
<path d="M2934 5676 c-3 -9 1 -27 10 -41 9 -13 16 -32 17 -42 0 -11 3 -13 6
-5 2 6 15 12 28 12 37 0 39 18 3 22 -27 2 -32 7 -30 24 4 28 -25 53 -34 30z"/>
<path d="M3070 5661 c0 -5 11 -8 25 -7 33 1 33 16 0 16 -14 0 -25 -4 -25 -9z"/>
<path d="M3041 5533 c0 -6 -4 -20 -7 -30 -5 -14 -4 -15 5 -7 7 7 11 20 8 30
-3 11 -5 14 -6 7z"/>
<path d="M3201 5443 c0 -25 1 -26 9 -8 12 27 12 35 0 35 -5 0 -10 -12 -9 -27z"/>
<path d="M3040 5213 c0 -13 5 -23 10 -23 13 0 13 11 0 30 -8 12 -10 11 -10 -7z"/>
<path d="M3040 5050 c0 -5 4 -10 9 -10 6 0 13 5 16 10 3 6 -1 10 -9 10 -9 0
-16 -4 -16 -10z"/>
<path d="M3095 5050 c3 -5 10 -10 16 -10 5 0 9 5 9 10 0 6 -7 10 -16 10 -8 0
-12 -4 -9 -10z"/>
<path d="M2955 5029 c-4 -6 -5 -12 -2 -15 2 -3 7 2 10 11 7 17 1 20 -8 4z"/>
<path d="M2918 4956 c-10 -7 -15 -16 -12 -19 7 -7 44 14 44 25 0 12 -13 9 -32
-6z"/>
<path d="M2762 4888 c-14 -14 2 -48 23 -48 7 0 16 -8 19 -17 2 -10 2 0 -1 22
-8 58 -17 67 -41 43z"/>
<path d="M2880 4889 c0 -5 5 -7 10 -4 6 3 10 8 10 11 0 2 -4 4 -10 4 -5 0 -10
-5 -10 -11z"/>
<path d="M2870 4865 c0 -2 9 -9 20 -15 16 -9 20 -8 20 5 0 8 -9 15 -20 15 -11
0 -20 -2 -20 -5z"/>
<path d="M2881 4774 c0 -11 3 -14 6 -6 3 7 2 16 -1 19 -3 4 -6 -2 -5 -13z"/>
<path d="M2610 4740 c0 -5 5 -10 11 -10 5 0 7 5 4 10 -3 6 -8 10 -11 10 -2 0
-4 -4 -4 -10z"/>
<path d="M2090 4400 c-8 -5 -10 -10 -5 -10 6 0 17 5 25 10 8 5 11 10 5 10 -5
0 -17 -5 -25 -10z"/>
<path d="M2190 4400 c0 -5 5 -10 10 -10 6 0 10 5 10 10 0 6 -4 10 -10 10 -5 0
-10 -4 -10 -10z"/>
<path d="M1256 4393 c-4 -4 -25 -8 -47 -9 -76 -4 -67 -23 14 -29 52 -4 55 -2
60 21 4 23 -11 33 -27 17z"/>
<path d="M77 4323 c-3 -5 -2 -15 2 -22 5 -7 11 -9 14 -4 3 5 2 15 -2 22 -5 7
-11 9 -14 4z"/>
<path d="M670 4306 c0 -10 9 -16 25 -16 14 0 25 5 25 10 0 6 -4 10 -9 10 -5 0
-16 3 -25 6 -11 4 -16 1 -16 -10z"/>
<path d="M1432 4304 c-7 -8 -10 -19 -6 -25 4 -8 9 -7 16 2 6 10 7 7 3 -10 -5
-17 -4 -22 6 -19 19 6 22 30 7 50 -11 15 -15 15 -26 2z"/>
<path d="M1105 4291 c-3 -5 -1 -12 5 -16 5 -3 10 1 10 9 0 18 -6 21 -15 7z"/>
<path d="M2850 510 c-12 -8 -12 -10 -1 -10 8 0 11 -7 8 -20 -4 -17 10 -98 19
-109 2 -2 10 2 19 9 10 8 15 30 15 64 0 67 -22 91 -60 66z"/>
<path d="M2682 473 c-18 -9 -31 -22 -28 -28 6 -16 -13 -35 -36 -35 -10 0 -18
-1 -18 -2 -13 -83 -14 -78 21 -74 22 2 42 14 62 37 23 27 28 30 22 12 -4 -15
-2 -23 6 -23 8 0 8 -5 -3 -17 -16 -19 -18 -60 -4 -81 18 -28 -3 -21 -24 7 -29
42 -84 44 -117 4 -42 -48 -25 -157 26 -170 40 -10 58 -6 94 21 70 53 114 203
86 292 -19 63 -43 78 -87 57z"/>
<path d="M2958 477 c-19 -7 -28 -18 -28 -33 0 -12 -3 -30 -7 -40 -4 -11 -3
-15 4 -11 6 4 16 1 22 -7 9 -10 2 -21 -30 -50 -36 -31 -43 -43 -47 -84 -9
-102 51 -164 106 -109 34 34 42 118 17 167 l-17 34 -28 -35 c-16 -18 -32 -31
-36 -27 -11 12 25 58 62 80 20 12 34 28 34 40 0 10 5 29 11 40 9 18 8 24 -7
35 -20 15 -19 15 -56 0z"/>
<path d="M2806 472 c-15 -24 -17 -84 -3 -105 15 -23 62 -36 54 -14 -2 7 -12
38 -21 70 -17 57 -21 64 -30 49z"/>
<path d="M3046 439 c-30 -23 -34 -49 -8 -49 13 -1 10 -6 -13 -25 l-30 -25 38
0 c31 0 45 7 68 31 60 64 14 122 -55 68z"/>
<path d="M3185 432 c-22 -15 -45 -38 -51 -50 -6 -12 -18 -30 -28 -41 -23 -25
-26 -179 -4 -195 8 -6 13 -16 11 -23 -6 -17 14 -51 41 -68 69 -45 135 -14 185
86 26 52 31 74 31 133 -1 157 -83 228 -185 158z m72 -29 c-12 -15 -47 -122
-47 -147 0 -4 8 -2 19 3 12 7 22 31 30 71 8 37 17 60 24 57 13 -4 37 -91 32
-116 -1 -9 -6 -39 -10 -68 -7 -57 -30 -87 -46 -62 -5 8 -12 35 -15 62 -4 26
-9 47 -11 47 -3 0 -24 -16 -47 -35 -24 -19 -47 -35 -51 -35 -4 0 -5 28 -3 62
7 81 38 134 92 159 51 23 53 23 33 2z m-51 -233 c-7 -8 -16 -27 -20 -42 -8
-35 -19 -35 -35 -1 -11 24 -10 29 11 44 12 10 30 17 40 16 15 -1 15 -4 4 -17z
m36 -45 c3 -24 -1 -36 -10 -40 -21 -8 -23 -2 -16 43 8 49 20 47 26 -3z"/>
<path d="M3186 350 c-22 -23 -48 -111 -35 -124 13 -14 38 13 48 53 25 100 24
108 -13 71z"/>
<path d="M3278 344 c-3 -5 -8 -26 -12 -46 -4 -21 -11 -38 -15 -38 -5 0 -4 -20
2 -45 6 -25 14 -45 18 -45 12 0 29 61 28 104 0 45 -12 85 -21 70z"/>
<path d="M3411 399 c-31 -30 -37 -59 -25 -105 9 -33 53 -19 70 22 8 19 18 34
23 34 17 0 18 49 1 65 -24 21 -34 19 -69 -16z"/>
<path d="M3525 396 c-27 -27 -33 -61 -12 -69 6 -2 10 -6 7 -9 -35 -31 -91 -68
-103 -68 -31 0 -66 -126 -41 -150 15 -14 58 0 78 27 10 14 20 49 23 82 6 60
16 73 108 136 16 11 18 18 10 41 -14 38 -39 41 -70 10z"/>
<path d="M3695 372 c-17 -12 -44 -66 -47 -96 -3 -15 -16 -37 -30 -49 -23 -19
-27 -31 -30 -89 -3 -50 0 -69 9 -73 14 -5 17 0 28 49 3 17 15 42 26 57 10 15
19 41 19 58 0 40 21 91 49 115 11 11 21 23 21 28 0 10 -31 10 -45 0z"/>
<path d="M3748 341 c-35 -22 -49 -39 -57 -66 -14 -51 -6 -65 32 -59 51 9 56
12 76 45 l19 31 0 -68 c-1 -38 2 -80 7 -94 6 -21 3 -20 -25 12 -27 33 -37 38
-75 38 -58 0 -86 -33 -84 -99 3 -74 10 -81 86 -81 57 0 64 2 49 13 -23 17 -11
47 19 47 12 0 28 7 35 15 7 8 16 13 20 10 5 -3 12 0 16 6 4 6 -1 16 -10 21
-22 13 -20 38 4 38 11 0 20 -5 20 -11 0 -5 5 -7 10 -4 6 3 10 34 10 68 -1 94
-41 167 -92 167 -8 0 -35 -13 -60 -29z"/>
<path d="M2790 324 c0 -8 5 -12 10 -9 6 4 8 11 5 16 -9 14 -15 11 -15 -7z"/>
<path d="M3048 312 c-23 -14 -26 -22 -25 -62 1 -25 -1 -57 -6 -72 -6 -24 -5
-27 10 -21 16 6 16 5 4 -10 -11 -14 -11 -18 3 -23 33 -13 38 1 39 104 1 56 2
102 2 101 0 0 -12 -8 -27 -17z"/>
<path d="M3573 314 c-7 -3 -13 -10 -13 -16 0 -6 -11 -20 -23 -32 -13 -11 -32
-41 -41 -66 -16 -40 -16 -45 -2 -56 14 -10 14 -13 2 -23 -20 -17 -6 -65 20
-69 60 -9 81 99 39 202 -7 16 -6 17 14 7 34 -18 63 -5 59 27 -3 27 -27 38 -55
26z"/>
<path d="M2792 277 c-18 -19 -22 -34 -21 -80 2 -59 15 -82 42 -71 23 8 49 84
45 130 -4 48 -32 57 -66 21z"/>
<path d="M2737 173 c-4 -3 -7 -13 -7 -22 1 -13 3 -13 11 2 11 19 8 33 -4 20z"/>
</g>
</svg>
